<?xml version="1.0" encoding="utf-8"?>
<!-- Generator: Adobe Illustrator 17.1.0, SVG Export Plug-In . SVG Version: 6.00 Build 0)  -->
<!DOCTYPE svg PUBLIC "-//W3C//DTD SVG 1.1//EN" "http://www.w3.org/Graphics/SVG/1.1/DTD/svg11.dtd">
<svg version="1.1" id="Layer_1" xmlns="http://www.w3.org/2000/svg" xmlns:xlink="http://www.w3.org/1999/xlink" x="0px" y="0px"
	 width="1920px" height="1080px" viewBox="0 0 1920 1080" enable-background="new 0 0 1920 1080" xml:space="preserve">
<pattern  x="737.5" y="-49" width="29" height="29" patternUnits="userSpaceOnUse" id="New_Pattern_Swatch_53" viewBox="0 -29 29 29" overflow="visible">
	<g>
		<polygon fill="none" points="0,0 29,0 29,-29 0,-29 		"/>
		<polygon fill="#FCB28D" points="29,0 0,0 0,-29 29,-29 		"/>
	</g>
</pattern>
<path id="XMLID_87_" fill="#7A513F" d="M1314.6,975.5c0-0.2-0.1-0.4-0.1-0.7c0.2,0.1,0.3,0.3,0.5,0.4L1314.6,975.5z"/>
<g id="Гора">
	<path id="XMLID_90_" fill="#5A5CA8" d="M24.6,725.3c0,0,285.1-34.4,568.5-196.9h51l17-23.8l241.3-119.4L1920,812.1l-96.4,204.2
		H193.7L24.6,725.3z"/>
	<polygon id="XMLID_88_" fill="#9AA2D8" points="644,528.4 580.6,590.6 620.2,528.4 	"/>
	<polygon fill="#9AA2D8" points="902.4,385.2 950.8,470.9 893.2,470.9 1015.4,721.1 835.5,850.4 1174.3,700 1598.7,676.1 	"/>
</g>
<path id="Лес" fill="#2B286D" d="M1806.4,804.6C1806.4,804.6,1806.4,804.5,1806.4,804.6c0-2.5-1.3-4.6-2.7-6.6
	c-1.6-2.1-2.6-4.4-4-6.6c-1.5-2.5-3.2-4.7-3.6-7.8c3.1-3.1,6.2,8.6,10.7,3.5c0.8-0.9,0.7-2.4,0-3.3c-4.5-5.7-7.2-12.4-8.8-19.4
	c-0.7-3-1.1-6.1-1.5-9.1c-0.2-1.2,0-7.8-2.8-6c-0.8,0.5-1.1,1.6-1.3,2.6c-1.1,5.1-2.2,10.2-3.5,15.3c-1,4-1.5,9.5-4.1,12.9
	c-1.4,1.8-3.1,3.3-2.9,5.8c0,0.2,0,0.4,0.1,0.6c0.2,0.3,0.5,0.4,0.8,0.5c2.9,1,4.9-1.2,6.8-3.2c0.2-0.3,0.5-0.5,0.8-0.7
	c0.3-0.1,0.7-0.1,1,0.1c0.6,0.7,0.1,2.7,0,3.4c-0.4,2.6-1.6,5-3.1,7.1c-2.5,3.4-5.7,6.2-7.6,10c-0.1,0.3-0.3,0.5-0.4,0.8h-14.6
	L1504,904.9c-1.7-3.6-4.7-6.4-7.1-9.5c-1.4-1.8-2.7-3.8-3.2-6.1c-0.1-0.6-0.8-2.7-0.5-3.2c0.8-1.2,2,0.3,2.4,1
	c0.6,1.1,1.3,2.2,2.1,3.2c0.6,0.8,1.2,1.6,2,2.1c0.8,0.5,1.9,0.8,2.8,0.4c1.2-0.5,1.7-2,1.8-3.3c0.1-2.1-0.7-4.1-1.9-5.8
	c-1.1-1.7-2.6-3.2-3.9-4.7c-1-1.1-2-2.3-2.9-3.4c-1-1.3-5.1-9.1-2-10.2c0.7-0.3,1.6,0.1,2.2,0.7c0.6,0.5,1,1.2,1.5,1.8
	c1.2,1.4,3.1,2.2,4.9,2.1c0.5,0,0.9-0.1,1.3-0.4c0.6-0.4,0.8-1.3,0.8-2c0-2.4-1.3-4.6-2.7-6.5c-1.6-2.1-2.6-4.4-4-6.6
	c-1.5-2.5-3.2-4.7-3.6-7.8c3.1-3.1,6.2,8.6,10.7,3.5c0.8-0.9,0.7-2.4,0-3.3c-4.5-5.7-7.2-12.4-8.8-19.4c-0.7-3-1.1-6.1-1.5-9.1
	c-0.2-1.2,0-7.8-2.8-6c-0.8,0.5-1.1,1.6-1.3,2.6c-1.1,5.1-2.2,10.2-3.5,15.3c-1,4-1.5,9.5-4.1,12.9c-1.4,1.8-3.1,3.3-2.9,5.8
	c0,0.2,0,0.4,0.1,0.6c0.2,0.3,0.5,0.4,0.8,0.5c2.9,1,4.9-1.2,6.8-3.2c0.2-0.3,0.5-0.5,0.8-0.7c0.3-0.1,0.7-0.1,1,0.1
	c0.6,0.7,0.1,2.7,0,3.4c-0.4,2.6-1.6,5-3.1,7.1c-2.5,3.4-5.7,6.2-7.6,10c-0.4,0.8-0.7,1.6-0.7,2.5c0.1,1.6,1.7,2.6,3.2,2.7
	c2,0.1,3.1-1.4,3.8-3.2c0.4-1.1,0.9-2.4,2-3c0.3-0.1,0.7-0.2,0.8,0c0.1,0.1,0.1,0.2,0.1,0.4c0.2,2.5-0.3,4.9-1.3,7.2
	c-1,2.3-2.7,3.7-4.5,5.5c-1,0.9-1.9,1.9-2.6,3.1c-0.5,0.9-0.8,1.8-0.7,2.8c0.1,1,0.7,1.9,1.6,2.3c1.2,0.5,2.7-0.2,3.6-1.2
	c0.5-0.5,3.1-4.8,4.1-3.1c0.3,0.6-0.4,2.9-0.5,3.6c-0.5,2.6-1.3,5.1-2.3,7.5l-5.3-5.4h-44.9l0,0.4l-173.3,0.6l0-0.4h-0.1l-45.1,45.9
	c-0.3,0.3-0.7,0.2-0.9,0c-0.7-0.9-1.5-1.7-2.2-2.4c-3-3.1-5.2-7.1-6.3-11.3c1.4,1.8,3,3.4,4.8,4.7c1.3,1,2.7,0.8,3.2-0.9
	c0.2-0.7,0.2-1.5,0.1-2.3c-0.2-1.6-0.4-3.3-1.1-4.8c-1.1-2.6-3.3-4.5-5.1-6.7c-1.8-2.2-3.3-4.9-2.7-7.7c0.1-0.4,0.3-0.9,0.7-1.1
	c0.6-0.3,1.4,0.2,1.7,0.8c0.8,1.3,0.8,2.3,2.5,1.8c1.2-0.4,2-1.8,2-3c0-1-0.6-1.9-1.1-2.8c-2.6-4.6-7.7-8.7-6.9-14.6
	c0.1-0.4,0.2-0.9,0.5-1.1c0.8-0.7,1.9,0.2,2.5,1.1c0.6,0.9,1.4,1.9,2.4,1.5c0.9-0.4,0.9-1.7,0.7-2.7c-1.1-4.4-3.9-8.2-5.7-12.4
	c-0.5-1.1-0.9-2.2-0.8-3.4c0-0.2,0.1-0.4,0.2-0.6c0.3-0.4,1-0.4,1.4,0c0.9,0.8,1,2.5,2.5,2.7c1.1,0.1,2.1-0.7,2.3-1.7
	c0.5-2-0.7-3.6-1.7-5.2c-5.6-9.1-5.6-21.1-9-31.1c-0.1-0.4-0.3-0.8-0.6-1c-0.6-0.5-1.6,0-2,0.8c-0.3,0.7-0.2,1.6-0.1,2.4
	c0.8,6.9-0.5,13.8-1.7,20.6c-0.5,2.6-1,5.2-1.8,7.7c-1.3,3.7-3.4,7-4.7,10.7c-0.4,1.1,0,2.3,1,2.9c2.2,1.2,3.7-2.5,5.9-2.4
	c3.5,0.1,0.7,4.9,0.1,6.2c-1.5,3.1-4,6.1-4.1,9.7c0,0.5,0,1,0.3,1.5c1.8,2.9,4.4-1.8,5.2-2.9c0.4-0.5,1.1-0.9,1.7-0.6
	c0.5,0.3,0.5,1.1,0.5,1.7c-0.7,7.3-8.1,11.7-10.1,18.7c-0.2,0.9-0.4,1.8,0,2.6c0.9,1.9,3.8,1.4,5.2-0.1c1-1,1.7-2.4,2.7-3.4
	c1.1-1,3-1.6,2.5,0.8c-0.2,0.8-0.7,1.5-1.3,2.1c-1.6,1.8-3.2,3.6-4.9,5.2c-0.9,0.8-1.8,1.7-2.5,2.7c-0.9,1.2-1.4,2.7-1.8,4.1
	c-0.4,1.3-0.8,2.9,0.3,3.8c0.6,0.5,1.6,0.6,2.3,0.2c0.8-0.3,1.3-1,1.9-1.6c0.9-1.1,1.7-2.2,2.3-3.4c0.4-0.3,1,0,1.2,0.5
	c0.2,0.4,0.2,1,0.1,1.5c-0.6,4-2.5,5.9-5.3,8.4c-3,2.8-6.6,5.7-7,9.8c0,0.5,0,1,0.1,1.4c0.1,0.4-0.2,0.8-0.6,0.8H971.1
	c0-0.2,0-0.3,0-0.5c0-2.4-1.3-4.6-2.7-6.5c-1.6-2.1-2.6-4.4-4-6.6c-1.5-2.4-3.1-4.5-3.5-7.4c0-0.2,0-0.5,0.2-0.6
	c2.7-1.9,5.5,6.8,9.2,4.8c1.7-0.9,2-3.2,0.8-4.7c-4.3-5.6-6.9-12.2-8.5-19c-0.7-3-1.1-6.1-1.5-9.1c-0.2-1.2,0-7.8-2.8-6
	c-0.8,0.6-1.1,1.6-1.3,2.6c-1.1,5.1-2.2,10.2-3.5,15.3c-1,4-1.5,9.5-4.1,12.9c-1.4,1.8-3.1,3.3-2.9,5.8c0,0.2,0,0.4,0.1,0.6
	c0.2,0.3,0.5,0.4,0.8,0.5c2.9,1,4.9-1.2,6.8-3.2c0.2-0.3,0.5-0.5,0.8-0.7c0.3-0.1,0.7-0.1,1,0.1c0.6,0.7,0.1,2.7,0,3.4
	c-0.4,2.6-1.6,5-3.1,7.1c-2.5,3.4-5.7,6.2-7.6,10c-0.4,0.8-0.7,1.6-0.7,2.5c0.1,1.6,1.7,2.6,3.2,2.7c2,0.1,3.1-1.4,3.8-3.2
	c0.4-1.1,0.9-2.4,2-3c0.3-0.1,0.7-0.2,0.8,0c0.1,0.1,0.1,0.2,0.1,0.4c0.1,2-0.2,4-0.8,5.9c-0.1,0.2-0.2,0.3-0.4,0.4l-17.5,6.4
	c0,0,0,0,0-0.1c-1.1-4.9-5.1-8.5-8.1-12.3c-1.4-1.8-2.7-3.8-3.2-6.1c-0.1-0.6-0.8-2.7-0.5-3.2c0.8-1.2,2,0.3,2.4,1
	c0.6,1.1,1.3,2.2,2.1,3.2c0.6,0.8,1.2,1.6,2,2.1c0.8,0.5,1.9,0.8,2.8,0.4c1.2-0.5,1.7-2,1.8-3.3c0.1-2.1-0.7-4.1-1.9-5.8
	s-2.6-3.2-3.9-4.7c-1-1.1-2-2.3-2.9-3.4c-1-1.3-5.1-9.1-2-10.2c0.7-0.3,1.6,0.1,2.2,0.7c0.6,0.5,1,1.2,1.5,1.8
	c1.2,1.4,3.1,2.2,4.9,2.1c0.5,0,0.9-0.1,1.3-0.4c0.6-0.4,0.8-1.3,0.8-2c0-2.4-1.3-4.6-2.7-6.5c-1.6-2.1-2.6-4.4-4-6.6
	c-1.5-2.4-3.1-4.5-3.5-7.4c0-0.2,0-0.5,0.2-0.6c2.7-1.9,5.5,6.8,9.2,4.8c1.7-0.9,2-3.2,0.8-4.7c-4.3-5.6-6.9-12.2-8.5-19
	c-0.7-3-1.1-6.1-1.5-9.1c-0.2-1.2,0-7.8-2.8-6c-0.8,0.6-1.1,1.6-1.3,2.6c-1.1,5.1-2.2,10.2-3.5,15.3c-1,4-1.5,9.5-4.1,12.9
	c-1.4,1.8-3.1,3.3-2.9,5.8c0,0.2,0,0.4,0.1,0.6c0.2,0.3,0.5,0.4,0.8,0.5c2.9,1,4.9-1.2,6.8-3.2c0.2-0.3,0.5-0.5,0.8-0.7
	c0.3-0.1,0.7-0.1,1,0.1c0.6,0.7,0.1,2.7,0,3.4c-0.4,2.6-1.6,5-3.1,7.1c-2.5,3.4-5.7,6.2-7.6,10c-0.4,0.8-0.7,1.6-0.7,2.5
	c0.1,1.6,1.7,2.6,3.2,2.7c2,0.1,3.1-1.4,3.8-3.2c0.4-1.1,0.9-2.4,2-3c0.3-0.1,0.7-0.2,0.8,0c0.1,0.1,0.1,0.2,0.1,0.4
	c0.2,2.5-0.3,4.9-1.3,7.2c-1,2.3-2.7,3.7-4.5,5.5c-1,0.9-1.9,1.9-2.6,3.1c-0.5,0.9-0.8,1.8-0.7,2.8c0.1,1,0.7,1.9,1.6,2.3
	c1.2,0.5,2.7-0.2,3.6-1.2c0.5-0.5,3.1-4.8,4.1-3.1c0.3,0.6-0.4,2.9-0.5,3.6c-0.5,2.3-1.1,4.6-2,6.7c-1.8,4.4-4.4,8.5-7.7,11.9
	c-1.4,1.5-3.1,3.1-3,5.2c0.1,2.7,3.5,4,5.8,3.3c3.2-0.9,3.1-4.3,5.4-6c0.2-0.1,0.4-0.2,0.6-0.2c0.5,0.1,0.5,0.7,0.4,1.2
	c-0.3,2.1-0.9,4.1-1.6,6c-0.1,0.2-0.2,0.3-0.4,0.4l-28.1,10.2c-0.2,0.1-0.5,0-0.7-0.2c-0.6-0.6-1.1-1.3-1.7-2c-1-1.3-5.1-9.1-2-10.2
	c0.7-0.3,1.6,0.1,2.2,0.7c0.6,0.5,1,1.2,1.5,1.8c1.2,1.4,3.1,2.2,4.9,2.1c0.5,0,0.9-0.1,1.3-0.4c0.6-0.4,0.8-1.3,0.8-2
	c0-2.4-1.3-4.6-2.7-6.5c-1.6-2.1-2.6-4.4-4-6.6c-1.5-2.4-3.1-4.5-3.5-7.4c0-0.2,0-0.5,0.2-0.6c2.7-1.9,5.5,6.8,9.2,4.8
	c1.7-0.9,2-3.2,0.8-4.7c-4.3-5.6-6.9-12.2-8.5-19c-0.7-3-1.1-6.1-1.5-9.1c-0.2-1.2,0-7.8-2.8-6c-0.8,0.5-1.1,1.6-1.3,2.6
	c-1.1,5.1-2.2,10.2-3.5,15.3c-1,4-1.5,9.5-4.1,12.9c-1.4,1.8-3.1,3.3-2.9,5.8c0,0.2,0,0.4,0.1,0.6c0.2,0.3,0.5,0.4,0.8,0.5
	c2.9,1,4.9-1.2,6.8-3.2c0.2-0.3,0.5-0.5,0.8-0.7c0.3-0.1,0.7-0.1,1,0.1c0.6,0.7,0.1,2.7,0,3.4c-0.4,2.6-1.6,5-3.1,7.1
	c-2.5,3.4-5.7,6.2-7.6,10c-0.4,0.8-0.7,1.6-0.7,2.5c0.1,1.6,1.7,2.6,3.2,2.7c2,0.1,3.1-1.4,3.8-3.2c0.4-1.1,0.9-2.4,2-3
	c0.3-0.1,0.7-0.2,0.8,0c0.1,0.1,0.1,0.2,0.1,0.4c0.2,2.5-0.3,4.9-1.3,7.2c-1,2.3-2.7,3.7-4.5,5.5c-1,0.9-1.9,1.9-2.6,3.1
	c-0.4,0.7-0.7,1.5-0.7,2.3c0,0.3-0.2,0.5-0.4,0.6l-16.4,6c-0.1,0-0.1,0-0.2,0h-13.6l-53,1.8c-0.1,0-0.2,0-0.2,0L435.7,828
	c-3-3.7-6.8-7.8-6-12.6c3.3,0.3,4.1,6.2,7.5,5.8c1.7-0.2,2.9-1.9,2.8-3.7c-0.4-6-5.1-9.9-8.4-14.2c-1.4-1.8-2.7-3.8-3.2-6.1
	c-0.1-0.6-0.8-2.7-0.5-3.2c0.8-1.2,2,0.3,2.4,1c0.6,1.1,1.3,2.2,2.1,3.2c0.6,0.8,1.2,1.6,2,2.1c0.8,0.5,1.9,0.8,2.8,0.4
	c1.2-0.5,1.7-2,1.8-3.3c0.1-2.1-0.7-4.1-1.9-5.8c-1.1-1.7-2.6-3.2-3.9-4.7c-1-1.1-2-2.3-2.9-3.4c-1-1.3-5.1-9.1-2-10.2
	c0.7-0.3,1.6,0.1,2.2,0.7c0.6,0.5,1,1.2,1.5,1.8c1.2,1.4,3.1,2.2,4.9,2.1c0.5,0,0.9-0.1,1.3-0.4c0.6-0.4,0.8-1.3,0.8-2
	c0-2.4-1.3-4.6-2.7-6.5c-1.6-2.1-2.6-4.4-4-6.6c-1.5-2.5-3.2-4.7-3.6-7.8c2.8-2.8,5.7,6.6,9.5,4.5c1.7-0.9,2-3.2,0.8-4.7
	c-4.3-5.6-6.9-12.2-8.5-19c-0.7-3-1.1-6.1-1.5-9.1c-0.2-1.2,0-7.8-2.8-6c-0.8,0.5-1.1,1.6-1.3,2.6c-1.1,5.1-2.2,10.2-3.5,15.3
	c-1,4-1.5,9.5-4.1,12.9c-1.4,1.8-3.1,3.3-2.9,5.8c0,0.2,0,0.4,0.1,0.6c0.2,0.3,0.5,0.4,0.8,0.5c2.9,1,4.9-1.2,6.8-3.2
	c0.2-0.3,0.5-0.5,0.8-0.7c0.3-0.1,0.7-0.1,1,0.1c0.6,0.7,0.1,2.7,0,3.4c-0.4,2.6-1.6,5-3.1,7.1c-2.5,3.4-5.7,6.2-7.6,10
	c-0.4,0.8-0.7,1.6-0.7,2.5c0.1,1.6,1.7,2.6,3.2,2.7c2,0.1,3.1-1.4,3.8-3.2c0.4-1.1,0.9-2.4,2-3c0.3-0.1,0.7-0.2,0.8,0
	c0.1,0.1,0.1,0.2,0.1,0.4c0.2,2.5-0.3,4.9-1.3,7.2c-1,2.3-2.7,3.7-4.5,5.5c-1,0.9-1.9,1.9-2.6,3.1c-0.5,0.9-0.8,1.8-0.7,2.8
	c0.1,1,0.7,1.9,1.6,2.3c1.2,0.5,2.7-0.2,3.6-1.2c0.5-0.5,3.1-4.8,4.1-3.1c0.3,0.6-0.4,2.9-0.5,3.6c-0.5,2.3-1.1,4.6-2,6.7
	c-1.8,4.4-4.4,8.5-7.7,11.9c-0.8,0.8-1.7,1.7-2.3,2.8l-22.2-10.4c-0.3-1.2-0.1-2.1,1.2-2.1c0.4,0,0.7,0.2,1,0.5
	c0.7,0.7,1.2,1.6,1.8,2.3c0.7,0.7,1.7,1.2,2.6,0.8c1.2-0.6,1.2-2.4,0.7-3.7c-0.9-2.8-2.4-5.3-4.2-7.6c-1.7-2-4.5-4.2-3.6-7.2
	c0.1-0.4,0.3-0.8,0.6-1c0.5-0.4,1.3-0.3,1.9,0c0.6,0.3,1,0.9,1.4,1.4c0.6,0.8,3.2,5.1,4.4,2.7c0.2-0.3,0.2-0.7,0.1-1.1
	c-0.2-3.4-1.3-6.8-3.2-9.6c-1.7-2.6-4.1-4.8-5.3-7.7c-0.7-1.7-0.8-4.8,1.6-4.9c2,0,3.4,2.4,4.9,3.3c1.2,0.7,3.2,0.6,3.6-0.8
	c0.2-0.5,0-1.1-0.1-1.7c-0.9-3.1-2.6-6.2-4.9-8.5c-2.2-2.2-4-3.5-5.3-6.6c-0.5-1.2-0.7-2.8,0.3-3.5c0.8-0.5,1.9-0.2,2.6,0.5
	c0.7,0.6,1.2,1.5,1.9,2.2c0.7,0.7,1.8,1,2.6,0.5c0.6-0.4,0.9-1.3,0.7-2.1c-0.1-0.8-0.5-1.4-0.9-2.1c-1.3-2.2-2.8-4.2-4.1-6.4
	c-1-1.7-2.8-3.8-3-5.7c-0.1-0.7,0-1.5,0.7-1.8c0.4-0.2,1,0,1.4,0.3c0.4,0.3,0.7,0.7,1,1c0.7,0.7,1.6,1.2,2.6,1.3
	c0.6,0.1,1.4,0,1.8-0.5c0.4-0.4,0.4-1,0.4-1.6c-0.2-2.3-2-4-3.6-5.6c-1-1-6.2-7.4-3.8-8.8c1.8-1,4.3,4.9,6.2,2.5
	c0.5-0.7,0.5-1.7,0.2-2.5c-0.3-0.9-0.9-1.7-1.6-2.3c-0.9-0.7-2-1.2-3-1.8c-1.3-0.8-4.4-5.1-2.1-6.2c1.8-0.8,3,1.8,4.3,2.5
	c0.4,0.2,1.1,0.3,1.4-0.1c0,0,0,0,0.1-0.1c0.1-0.2,0.1-0.4,0.1-0.6c0.2-2.8-1.2-5.5-2.8-7.8c-1.5-2.4-3.2-4.8-3.7-7.5
	c-0.1-0.5-0.1-1,0.1-1.4c0.2-0.4,0.7-0.8,1.1-0.7c0.7,0.2,0.3,1.6,1,2.1c0.6,0.5,1.7,0.4,2.3,0c1-0.7,1.3-2.2,0.9-3.4
	c-0.3-1.2-1.1-2.2-1.8-3.2c-2.2-3.2-3.8-7-4.5-10.9c-0.7-3.8-0.2-7.4-0.2-11.2c0-1,0.2-6.1-1.5-6c-1.6,0.1-1.7,4.5-1.7,5.6
	c-0.5,8.5-1.2,17.7-6.6,24.3c-0.7,0.9-1.5,1.7-1.6,2.8c-0.1,1.1,0.4,2.2,1.4,2.7c0.9,0.5,2.2,0.3,2.9-0.5c0.5-0.5,1.1-1.8,2-1
	c0.4,0.4,0.4,0.9,0.5,1.4c0.3,4.8-2.9,9.3-5.3,13c-1.2,1.8-2.3,3.8-2.9,6c-0.3,1.1-0.6,2.2-0.3,3.3c0.3,1.1,1.1,2.1,2.2,2.1
	c1.8,0.1,2.1-1.6,3.4-2.3c0.7-0.4,1.6-0.3,2.1,0.2c0.3,0.4,0.4,0.9,0.4,1.5c-0.1,2.6-2.4,4.5-4.3,6.3c-2.1,2.2-3.8,4.8-4.9,7.7
	c-0.3,0.8-0.6,1.7-0.5,2.6c0,0.9,0.4,1.8,1.1,2.3c1.1,0.8,2.7,0.3,3.7-0.6c1-0.9,1.6-2.3,2.2-3.5c0.4-0.7,0.9-1.4,1.7-1.6
	c3-0.7,0.9,4.6,0.2,5.4c-3.6,4.8-8.6,9.5-8.3,15.6c0.1,1,0.3,2.1,1.2,2.5c1.3,0.6,2.6-0.7,3.4-1.9c0.5-0.7,4-7.9,4.4-4.2
	c0.4,3.6-2.2,5.2-4.2,7.6c-2.5,3-4.2,6.6-5.1,10.5c-0.3,1.2,0.3,2.5,1.5,2.8c1.9,0.5,2.6-2.2,3.8-3.1c1.3-1.1,3.2-0.5,3.5,1.3
	c0.2,1.1-0.2,2.2-0.7,3.1c-2.2,4-6.8,6.4-8.3,10.6c-0.4,1.2-0.5,2.7,0.5,3.4c1.6,1.2,3.2-0.9,4.3-1.9c0.4-0.3,0.8-0.7,1.2-0.7
	c0.5,0,0.9,0.5,1.1,1c0.1,0.5,0,1.1-0.1,1.6c-1.2,3.8-4.2,5.8-6.6,8.5l-225.4-74.5l0,0l-8.3-3.9l0-0.2l-34.8-17.2l-5.1-2.4
	c-1.1-1.3-2.2-2.5-3.1-3.8c-1.4-1.8-2.7-3.8-3.2-6.1c-0.1-0.6-0.8-2.7-0.5-3.2c0.8-1.2,2,0.3,2.4,1c0.6,1.1,1.3,2.2,2.1,3.2
	c0.6,0.8,1.2,1.6,2,2.1c0.8,0.5,1.9,0.8,2.8,0.4c1.2-0.5,1.7-2,1.8-3.3c0.1-2.1-0.7-4.1-1.9-5.8c-1.1-1.7-2.6-3.2-3.9-4.7
	c-1-1.1-2-2.3-2.9-3.4c-1-1.3-5.1-9.1-2-10.2c0.7-0.3,1.6,0.1,2.2,0.7c0.6,0.5,1,1.2,1.5,1.8c1.2,1.4,3.1,2.2,4.9,2.1
	c0.5,0,0.9-0.1,1.3-0.4c0.6-0.4,0.8-1.3,0.8-2c0-2.4-1.3-4.6-2.7-6.5c-1.6-2.1-2.6-4.4-4-6.6c-1.5-2.5-3.2-4.7-3.6-7.8
	c2.8-2.8,5.7,6.6,9.5,4.5c1.7-0.9,2-3.2,0.8-4.7c-4.3-5.6-6.9-12.2-8.5-19c-0.7-3-1.1-6.1-1.5-9.1c-0.2-1.2,0-7.8-2.8-6
	c-0.8,0.5-1.1,1.6-1.3,2.6c-1.1,5.1-2.2,10.2-3.5,15.3c-1,4-1.5,9.5-4.1,12.9c-1.4,1.8-3.1,3.3-2.9,5.8c0,0.2,0,0.4,0.1,0.6
	c0.2,0.3,0.5,0.4,0.8,0.5c2.9,1,4.9-1.2,6.8-3.2c0.2-0.3,0.5-0.5,0.8-0.7c0.3-0.1,0.7-0.1,1,0.1c0.6,0.7,0.1,2.7,0,3.4
	c-0.4,2.6-1.6,5-3.1,7.1c-2.5,3.4-5.7,6.2-7.6,10c-0.4,0.8-0.7,1.6-0.7,2.5c0.1,1.6,1.7,2.6,3.2,2.7c2,0.1,3.1-1.4,3.8-3.2
	c0.4-1.1,0.9-2.4,2-3c0.3-0.1,0.7-0.2,0.8,0c0.1,0.1,0.1,0.2,0.1,0.4c0.2,2.5-0.3,4.9-1.3,7.2c-1,2.3-2.7,3.7-4.5,5.5
	c-1,0.9-1.9,1.9-2.6,3.1c-0.5,0.9-0.8,1.8-0.7,2.8c0.1,1,0.7,1.9,1.6,2.3c1.2,0.5,2.7-0.2,3.6-1.2c0.5-0.5,3.1-4.8,4.1-3.1
	c0.3,0.6-0.4,2.9-0.5,3.6c-0.4,2-1,3.9-1.7,5.8l-18.2-8.5L0,653.8v413.3l1920,1V804.4L1806.4,804.6z M420.6,815.6
	c0.2-0.1,0.4-0.2,0.6-0.2c0.5,0.1,0.5,0.7,0.4,1.2c-0.2,1.4-0.6,2.9-1,4.3l-2.8-1.3C418.7,818.3,419.2,816.7,420.6,815.6z M926,957
	c-0.2-0.8-0.2-1.6-0.2-2.4c0-0.4,0.5-0.7,0.8-0.5c0.8,0.3,1.5,1,2.1,1.8c0.3,0.3,0.1,0.9-0.3,1l-1.7,0.6
	C926.5,957.6,926.1,957.4,926,957z M960.5,945.2c-0.4,0.1-0.7-0.1-0.8-0.5c-0.5-1.9-0.5-3.6,0.8-4.1c0.7-0.3,1.6,0.1,2.2,0.7
	c0.6,0.5,1,1.2,1.5,1.8c0.2,0.2,0.4,0.3,0.5,0.5L960.5,945.2z M1195.6,943.2c-0.1,0.1-0.3,0.2-0.4,0.2h-4.7c0.8-0.6,1.5-1.5,2-2.3
	c1.4-2.3,3.9-4.9,6-3.8c0.2,0.1,0.3,0.4,0.3,0.6C1198.5,940,1197.2,941.8,1195.6,943.2z M1208,943.3h-0.5c-0.4-1.1-0.7-2.2-0.8-3.4
	c0.8,0.7,1.7,1.5,2.6,2.1L1208,943.3z M1787.5,804.6c0.4-0.8,0.8-1.5,1.5-1.8c0.3-0.1,0.7-0.2,0.8,0c0.1,0.1,0.1,0.2,0.1,0.4
	c0,0.5,0,1,0,1.4H1787.5z M1794.6,804.6c0-1.1,0.2-1.9,1.1-2.2c0.7-0.3,1.6,0.1,2.2,0.7c0.5,0.5,0.9,1,1.3,1.6H1794.6z"/>
<g id="Флажки_-_стадии">
	<g id="Звезды">
		<polygon fill="#FBFFAE" points="940.9,325.1 942.6,333 950.6,334.8 942.6,336.6 940.9,344.5 939.1,336.6 931.2,334.8 939.1,333 		
			"/>
		<polygon fill="#FBFFAE" points="850.9,344.5 853.8,357.2 866.4,360 853.8,362.8 850.9,375.5 848.1,362.8 835.4,360 848.1,357.2 		
			"/>
		<polygon fill="#FBFFAE" points="892.6,279.8 897.3,300.6 918.1,305.3 897.3,309.9 892.6,330.8 887.9,309.9 867.1,305.3 
			887.9,300.6 		"/>
		<polygon fill="#FBFFAE" points="950.6,304.2 951.6,308.9 956.3,310 951.6,311 950.6,315.7 949.5,311 944.8,310 949.5,308.9 		"/>
	</g>
	<g>
		
			<line fill="none" stroke="#1A3954" stroke-width="1.6596" stroke-linecap="round" stroke-linejoin="round" stroke-miterlimit="10" x1="902.5" y1="385.5" x2="902.5" y2="346"/>
		<polygon fill="#FA4614" points="927.9,362.4 900.7,362.4 900.7,347.3 927.9,347.3 920.3,354.9 		"/>
	</g>
	<g>
		
			<line fill="none" stroke="#1A3954" stroke-width="1.6596" stroke-linecap="round" stroke-linejoin="round" stroke-miterlimit="10" x1="1041.6" y1="471.2" x2="1041.6" y2="431.8"/>
		<polygon fill="#FA4614" points="1067,448.1 1039.9,448.1 1039.9,433 1067,433 1059.4,440.6 		"/>
	</g>
	<g>
		
			<line fill="none" stroke="#1A3954" stroke-width="1.6596" stroke-linecap="round" stroke-linejoin="round" stroke-miterlimit="10" x1="1249.6" y1="590.7" x2="1249.6" y2="551.2"/>
		<polygon fill="#FA4614" points="1275.1,567.6 1247.9,567.6 1247.9,552.5 1275.1,552.5 1267.4,560.1 		"/>
	</g>
</g>
<g id="Вертолет">
	<g>
		<g>
			<polygon fill="#F2F2F2" points="1032.7,183.9 986.9,183.9 948.8,211.2 919.5,241 1014.5,259.9 			"/>
			<path fill="#5A5CA8" d="M1026.8,188l-23.5,51.6c0,0-52.2,0-70.4,0c-18.2,0,32.8-40.7,49.7-47.8C998.6,185,1026.8,188,1026.8,188z
				 M1031.7,174.1c-11.7,0.1-21.5,0.3-26.1,0.6c-30.2,1.8-71.1,27.4-99.4,71.7c-28.4,44.3,26.6,56.5,26.6,56.5h40.3h14.1h58.6h14.1
				h0.6c14.3,0,28.1-9.4,39.7-20.9c18.5-18.4,31.2-42.2,31.2-42.2l129.5-30.2l12.4,13.5h28.4l-10.6-40l19.5-39.8h-33.7l-21.1,31.6
				c0,0-84.4-0.8-155.8-1c-14,0-28.4,0-40.1,0L1031.7,174.1z"/>
			<g>
				<path fill="none" d="M963.9,176.1c-16.9,7.2-67.9,47.7-49.7,47.7c2.4,0,5.3,0,8.7,0c26.3-30.5,58.1-47.7,82.7-49.2
					c0.4,0,0.9,0,1.4,0l1.1-2.3C1008,172.3,979.9,169.3,963.9,176.1z"/>
				<path fill="none" d="M938.6,223.8c21.3,0,45.9,0,45.9,0l16.4-36c-6.5,0.6-13,1.7-18.3,3.9C972.8,195.9,951.2,212.1,938.6,223.8z
					"/>
				<path fill="#5A5CA8" d="M922.9,224c4.7,0,10.1,0,15.8,0c12.5-12.3,34.1-28,44-32.2c5.3-2.2,11.8-3.4,18.3-4l6-13.2
					c-0.5,0-1,0-1.4,0.1C981,176.2,949.2,193.5,922.9,224z"/>
				<path fill="#2B286D" d="M1041.7,287.3h-0.6H1027h-58.6h-14.1H914c0,0-5.7-1.3-12.4-4.4c8.8,15.1,31.2,20.1,31.2,20.1h40.3h14.1
					h58.6h14.1h0.6c14.3,0,28.1-9.4,39.7-20.9c16.5-16.4,28.4-37.2,30.8-41.4c-13.8,4.5-37.1,13.4-49.6,25.8
					C1069.8,277.9,1056,287.3,1041.7,287.3z"/>
				<path fill="#E6E6E6" d="M938.6,223.8c-8.9,9.4-13.2,16.4-5.7,16.4c18.2,0,70.4,0,70.4,0l23.5-51.9c0,0-12.7-1.6-25.8-0.4
					l-16.4,35.9C984.6,223.8,959.9,223.8,938.6,223.8z"/>
				<path fill="#FEC200" d="M1131,240.7c6.6-2.1,11-3.3,11-3.3l0,0l-10.6,2.5C1131.4,239.9,1131.2,240.1,1131,240.7z"/>
			</g>
			<rect x="902.3" y="324.7" fill="#3E3E3C" width="230.5" height="16.4"/>
			<rect x="902.3" y="324.7" fill="#333333" width="230.5" height="6"/>
			<rect x="972.9" y="303.6" fill="#333333" width="14.1" height="23.5"/>
			<rect x="1045.6" y="303.6" fill="#333333" width="14.1" height="23.5"/>
			<rect x="1040.9" y="167.5" fill="#2B286D" width="25.8" height="7"/>
			<rect x="1045.2" y="160.5" fill="#5A5CA8" width="17.2" height="7"/>
			<rect x="1049.7" y="153.4" fill="#5A5CA8" width="8.2" height="7"/>
			<rect x="892.5" y="151.1" fill="#5A5CA8" width="322.7" height="4.7"/>
			<polygon fill="#2B286D" points="1286.7,222.9 1273.8,183.7 1296.3,142.1 1301.5,144.9 1280.2,184.2 1292.3,221 			"/>
		</g>
		<g>
			
				<pattern  id="SVGID_1_" xlink:href="#New_Pattern_Swatch_53" patternTransform="matrix(-0.1752 -0.3361 -0.3361 0.1752 -12339.8682 -8273.6367)">
			</pattern>
			<path fill="url(#SVGID_1_)" d="M954.8,239c6.6,0,13.9-2.4,20.6-7.1c1.5-1.1,1.9-3.2,0.8-4.7c-1.1-1.5-3.2-1.9-4.7-0.8
				c-8.5,5.9-18.1,7.5-24.5,4.1c-5.5-2.9-8.3-9.4-8.1-18.6c0-1.9-1.4-3.4-3.3-3.5c0,0-0.1,0-0.1,0c-1.8,0-3.3,1.5-3.4,3.3
				c-0.3,11.8,3.9,20.6,11.7,24.8C947.1,238.1,950.8,239,954.8,239z"/>
			<g>
				<path fill="#FCB28D" d="M930.9,200L930.9,200c1.6-0.7,3.5,0,4.2,1.5l3.5,7.5c0.8,1.7-0.1,3.7-1.9,4.3l-0.9,0.3
					c-1.7,0.5-3.5-0.4-4-2l-2.5-7.8C928.7,202.3,929.4,200.6,930.9,200z"/>
			</g>
			<path fill="#FA4614" d="M969.3,233.5c0-7.1,5.8-12.9,12.9-12.9c7.1,0,12.9,5.8,12.9,12.9v8.3h-25.7V233.5z"/>
			<path fill="#3C2415" d="M983.4,185.7c-2.4,0.4-4.7,1.7-6.3,3.7c0-0.8,0.2-1.8,0.7-2.7c1.1-2,3.2-3.1,4.6-2.3
				C982.9,184.7,983.3,185.2,983.4,185.7z"/>
			
				<linearGradient id="SVGID_2_" gradientUnits="userSpaceOnUse" x1="1509.3683" y1="-697.366" x2="1518.5421" y2="-688.1922" gradientTransform="matrix(-0.9833 0.1821 0.1821 0.9833 2597.1716 623.1404)">
				<stop  offset="0" style="stop-color:#D8654E"/>
				<stop  offset="0.2392" style="stop-color:#DE7259"/>
				<stop  offset="0.6831" style="stop-color:#EF9575"/>
				<stop  offset="1" style="stop-color:#FCB28D"/>
			</linearGradient>
			<path fill="url(#SVGID_2_)" d="M979,213.2c-0.2-1.6,1-3,2.5-3.2c1.6-0.2,3,1,3.2,2.5l1.1,9.5c0.2,1.6-1,3-2.5,3.2
				c-1.6,0.2-3-1-3.2-2.5L979,213.2z"/>
			<g>
				<path fill="#FCB28D" d="M975.9,218.1l-2.1-1.2c-5.2-2.9-7-9.5-4.1-14.7l7.2-12.8c2.5-4.4,8.1-6,12.5-3.5l5.9,3.3
					c4.4,2.5,6,8.1,3.5,12.5l-6.6,11.8C988.9,219.2,981.6,221.3,975.9,218.1z"/>
			</g>
			<g>
				<path d="M975.9,196.6L975.9,196.6c-0.3-0.2-0.5-0.6-0.3-1l0.8-1.4c0.2-0.3,0.6-0.5,1-0.3c0.3,0.2,0.5,0.6,0.3,1l-0.8,1.4
					C976.7,196.7,976.2,196.8,975.9,196.6z"/>
			</g>
			<g>
				<path d="M984.8,201.6L984.8,201.6c-0.3-0.2-0.5-0.6-0.3-1l0.8-1.4c0.2-0.3,0.6-0.5,1-0.3c0.3,0.2,0.5,0.6,0.3,1l-0.8,1.4
					C985.6,201.7,985.1,201.8,984.8,201.6z"/>
			</g>
			<g>
				
					<linearGradient id="SVGID_3_" gradientUnits="userSpaceOnUse" x1="-2257.4983" y1="458.5011" x2="-2256.6643" y2="444.9169" gradientTransform="matrix(0.9318 0.3629 -0.3629 0.9318 3245.6541 596.6939)">
					<stop  offset="0" style="stop-color:#D8654E"/>
					<stop  offset="0.167" style="stop-color:#DB6C54"/>
					<stop  offset="0.4123" style="stop-color:#E58064"/>
					<stop  offset="0.7046" style="stop-color:#F4A07E"/>
					<stop  offset="0.8444" style="stop-color:#FCB28D"/>
				</linearGradient>
				<path fill="url(#SVGID_3_)" d="M975.8,204.1C975.8,204.1,975.8,204.1,975.8,204.1c-1.7-1.4-1-3.3-0.5-4.1
					c0.1-0.2,0.3-0.2,0.5-0.2l2.2,0.9l0.8-0.7c0,0,2.6-2.6,3.4-6.8c0-0.2,0.3-0.4,0.5-0.3c0.2,0,0.4,0.3,0.3,0.5
					c-0.8,4.5-3.5,7.2-3.6,7.3l-1,0.9c-0.1,0.1-0.3,0.1-0.4,0.1l-2.1-0.8c-0.3,0.6-0.6,1.8,0.4,2.6c0.2,0.1,0.2,0.4,0.1,0.6
					C976.2,204.2,976,204.2,975.8,204.1z"/>
			</g>
			<path fill="#3C2415" d="M1002.8,194.5c-0.4-0.8-1-1.2-1.7-1.4l0.1-0.2c1.3-2.3,0.5-5.1-1.8-6.4l-9.3-5.2l-3.5-1.9
				c-2.3-1.3-5.1-0.5-6.4,1.8l-0.1,0.2c-0.4,0.7-0.6,1.4-0.6,2.2c0,1.7,0.8,3.3,2.4,4.2l0.7,0.4l11.5,6.4c1.3,0.7,1.8,2.4,1,3.7
				l-4,7.2c-0.8,1.5-0.5,3.5,1,4.4c1.5,1,3.6,0.5,4.5-1.1l6.1-10.8C1003.4,196.9,1003.4,195.5,1002.8,194.5z"/>
			<g>
				<circle fill="#FCB28D" cx="995" cy="211.1" r="3.2"/>
				
					<linearGradient id="SVGID_4_" gradientUnits="userSpaceOnUse" x1="-2195.4089" y1="925.0131" x2="-2199.3806" y2="925.9663" gradientTransform="matrix(0.8719 0.4898 -0.4898 0.8719 3363.9614 480.3575)">
					<stop  offset="0" style="stop-color:#D8654E"/>
					<stop  offset="0.1833" style="stop-color:#E0765C"/>
					<stop  offset="0.5438" style="stop-color:#F4A17F"/>
					<stop  offset="0.6696" style="stop-color:#FCB28D"/>
				</linearGradient>
				<circle fill="url(#SVGID_4_)" cx="995" cy="211.1" r="1.7"/>
			</g>
			<path fill="#845D42" d="M988.6,199.3c0.2,0,0.3-0.1,0.4-0.2c0.4-0.5,0.5-1.2,0.4-1.8c-0.1-0.6-0.5-1.2-1-1.6
				c-1.1-0.7-2.6-0.4-3.4,0.7c-0.1,0.2-0.1,0.5,0.1,0.7c0.2,0.1,0.5,0.1,0.7-0.1c0.5-0.7,1.4-0.9,2.1-0.4c0.3,0.2,0.6,0.6,0.6,0.9
				c0.1,0.4,0,0.8-0.2,1.1c-0.1,0.2-0.1,0.5,0.1,0.7C988.4,199.3,988.5,199.3,988.6,199.3z"/>
			<path fill="#845D42" d="M979.8,194.3c0.2,0,0.3-0.1,0.4-0.2c0.4-0.5,0.5-1.2,0.4-1.8c-0.1-0.6-0.5-1.2-1-1.6
				c-1.1-0.7-2.6-0.4-3.4,0.7c-0.1,0.2-0.1,0.5,0.1,0.7c0.2,0.1,0.5,0.1,0.7-0.1c0.5-0.7,1.4-0.9,2.1-0.4c0.3,0.2,0.6,0.6,0.6,0.9
				c0.1,0.4,0,0.8-0.2,1.1c-0.1,0.2-0.1,0.5,0.1,0.7C979.6,194.3,979.7,194.3,979.8,194.3z"/>
			<path fill="#FFFFFF" d="M973.7,210.4c-1.7-0.9-2.3-3-1.4-4.7l6.1,3.3C977.5,210.7,975.4,211.3,973.7,210.4z"/>
			
				<pattern  id="SVGID_5_" xlink:href="#New_Pattern_Swatch_53" patternTransform="matrix(-0.2469 0.2875 0.2875 0.2469 -8812.9014 -2424.5588)">
			</pattern>
			<path fill="url(#SVGID_5_)" d="M1017.9,264.8c1.3,0,2.5-0.7,3.1-1.9c5.2-10.6,5.1-20.3-0.2-27.4c-6-7.9-17.7-11.4-30.5-9.1
				c-1.8,0.3-3.1,2.1-2.7,3.9c0.3,1.8,2.1,3.1,3.9,2.7c10.2-1.8,19.5,0.7,23.9,6.5c3.8,5,3.6,12-0.4,20.3c-0.8,1.7-0.1,3.7,1.6,4.5
				C1016.9,264.6,1017.4,264.8,1017.9,264.8z"/>
			<g>
				<path fill="#FCB28D" d="M1017.2,274L1017.2,274c-1.8,0-3.2-1.4-3.2-3.2l0-8.3c0-1.9,1.7-3.3,3.5-3.1l1,0.1
					c1.7,0.2,3,1.8,2.8,3.5l-1,8.2C1020.2,272.8,1018.8,274,1017.2,274z"/>
			</g>
			<g>
				<path fill="#FA4614" d="M939.6,215c0.4,7.3,3.1,12.4,7.7,14.9c6.2,3.3,15.5,1.7,23.8-4c1.8-1.3,4.3-0.8,5.6,1
					c1.3,1.8,0.8,4.3-1,5.6c-6.8,4.8-14.2,7.2-21,7.2c-4,0-7.9-0.9-11.2-2.7c-4.2-2.3-11.1-8-11.9-21.5L939.6,215z"/>
			</g>
			<g>
				<path fill="#FA4614" d="M990,225.8c13.1-2.3,25,1.2,31.1,9.3c2.8,3.8,6.5,11.6,2.1,23.7l-7.5-2.9c2.3-6.5,2-11.9-1-16
					c-4.2-5.6-13.4-8.1-23.3-6.3c-2.2,0.4-4.3-1.1-4.6-3.2C986.4,228.3,987.9,226.2,990,225.8z"/>
			</g>
		</g>
	</g>
	<g>
		<g>
			<path fill="#FFFFFF" d="M1202.8,191.7l-6.7,17.2h2.8l2.2-5.8h5.8l2.2,5.8h2.8l-6.6-17.2H1202.8z M1201.8,200.9l2.2-5.7l2.1,5.7
				H1201.8z"/>
			<g>
				<g>
					<path fill="#FFFFFF" d="M1113.7,191.6v5.7c-0.6,0-0.8,0-1.2,0c-1.6,0-2.5,1.4-2.5,3.5v8h-5.6v-9.2c0-2.4,0.7-4.4,2-5.8
						c1.3-1.4,3.1-2.2,5.3-2.2C1112.3,191.6,1111.8,191.6,1113.7,191.6z"/>
				</g>
			</g>
			<g>
				<g>
					<path fill="#FFFFFF" d="M1123.5,191.6c2.4,0,4.4,0.8,6.1,2.5c1.7,1.7,2.6,3.7,2.6,6.1c0,2.4-0.9,4.4-2.6,6.1
						c-1.7,1.7-3.8,2.5-6.3,2.5c-2.4,0-4.5-0.8-6.3-2.5c-1.7-1.7-2.6-3.7-2.6-6.1c0-2.4,0.9-4.5,2.6-6.1
						C1118.8,192.4,1120.9,191.6,1123.5,191.6z M1123.3,197c-0.9,0-1.6,0.3-2.2,0.9c-0.6,0.6-0.9,1.4-0.9,2.3c0,0.9,0.3,1.6,0.9,2.3
						c0.6,0.6,1.4,0.9,2.2,0.9c0.9,0,1.6-0.3,2.2-0.9c0.6-0.6,0.9-1.4,0.9-2.3c0-0.9-0.3-1.7-0.9-2.3
						C1124.9,197.3,1124.2,197,1123.3,197z"/>
				</g>
			</g>
			<g>
				<g>
					<path fill="#FFFFFF" d="M1148.5,208.8h-5.7l0-9.3c0-1-0.6-2.2-1.9-2.2c-1.5,0-2.1,1.2-2.1,2.2l0,9.3h-5.7v-9.3
						c0-2.2,0.7-4,2.2-5.5c1.5-1.5,3.3-2.2,5.5-2.2c2.5,0,4.4,0.9,5.9,2.6c1.2,1.4,1.7,3.2,1.7,5.7V208.8z"/>
				</g>
			</g>
			<g>
				<rect x="1150.2" y="192.4" fill="#FFFFFF" width="5.7" height="16.4"/>
			</g>
			<path fill="#FFFFFF" d="M1190.3,206.4h-2.1h-0.3c-0.5,0-1-0.2-1.3-0.5c-0.3-0.3-0.5-0.7-0.5-1.2v-0.4v-2v-10.6h-2.7v13.9
				c0,1,0.3,1.8,1,2.4c0.7,0.6,1.5,0.9,2.5,0.9h7.8v-2.5H1190.3z"/>
			<path fill="#FFFFFF" d="M1224.1,199.4c0.7-0.8,1.2-1.9,1.2-3c0-2.6-2.1-4.7-4.7-4.7c0,0,0,0-0.1,0l0,0h-7.1v17.2h7.1
				c0,0,0.2,0,0.3,0c2.9,0,5.3-2.4,5.3-5.3C1226.2,201.8,1225.4,200.4,1224.1,199.4z M1216.1,194.1h4.4c0.1,0,0.1,0,0.2,0
				c1.2,0,2.2,1,2.2,2.2c0,1.2-1,2.2-2.2,2.2c-0.1,0-0.1,0-0.2,0h-4.4V194.1z M1220.8,206.4C1220.8,206.4,1220.8,206.4,1220.8,206.4
				h-4.7v-5.7h4.7c0,0,0,0,0,0c1.6,0,2.9,1.3,2.9,2.9C1223.7,205.1,1222.4,206.4,1220.8,206.4z"/>
			<g>
				<path fill="#FFFFFF" d="M1167.3,197.3v-5.6h-1.3c-2.4,0-4.5,0.8-6.2,2.5c-1.7,1.7-2.6,3.7-2.6,6.1c0,2.5,0.8,4.6,2.5,6.3
					c1.5,1.5,3,2.1,4.9,2.3c0.3,0,0.6,0,1,0c0.4,0,1.1,0,1.6,0v-0.1v-5.5V203l-1.1,0c-0.1,0-0.2,0-0.3,0c0,0-0.1,0-0.1,0
					c-0.4,0-0.7-0.1-1-0.2c-1.1-0.4-1.9-1.5-1.9-2.7c0-1.6,1.3-2.9,2.9-2.9c0.1,0,0.3,0,0.4,0c0.1,0,0.2,0,0.2,0
					C1167.4,197.3,1166.5,197.3,1167.3,197.3z"/>
			</g>
			<g>
				<path fill="#FFFFFF" d="M1179.4,191.7c-2.2,0-3.7,1-5,2.2c-0.7,0.7-1.2,1.6-1.4,2.3c-0.2,0.7-0.4,1.9-0.5,3.6
					c-0.1,1.1-0.4,2.2-0.8,2.6c-0.4,0.4-1,0.6-1.7,0.6h-0.2h-0.8v5.7l0.9,0l1.3,0l0,0h0.5c1.1,0,1.9-0.1,2.8-0.6
					c2.2-1.3,3.5-3.1,3.8-6.3c0.1-1,0.2-2.3,0.4-2.7c0.6-1.4,1.7-1.8,2.6-1.8v-5.6H1179.4z"/>
			</g>
			<g>
				<polygon fill="#FFFFFF" points="1094.5,185.9 1092,185.9 1088.8,185.9 1088.8,191.6 1092.2,191.6 1094.5,191.6 1094.5,208.8 
					1100.3,208.8 1100.3,191.6 1106,191.6 1106,185.9 				"/>
			</g>
			<g>
				<rect x="1081.9" y="192.4" fill="#FFFFFF" width="5.7" height="16.4"/>
			</g>
			<g>
				<g>
					<path fill="#FFFFFF" d="M1079.4,198.9c-0.6-0.9-1.7-1.5-3-1.8c1.1-0.4,1.8-1.1,2.3-1.9c0.5-0.8,0.7-1.8,0.7-2.9
						c0-2.1-0.8-3.6-2.4-4.7c-1.6-1-3.8-1.6-6.6-1.6h-7.4v22.7h8.7c2.8,0,4.9-0.6,6.4-1.7c1.5-1.1,2.2-2.8,2.2-5
						C1080.4,200.8,1080.1,199.8,1079.4,198.9z M1073.9,204c-0.6,0.4-1.4,0.7-2.5,0.7h-2.5V199h2.5h0.2c1.1,0,1.9,0.3,2.4,0.8
						c0.5,0.5,0.7,1.2,0.7,2.2C1074.7,202.9,1074.4,203.6,1073.9,204z M1072.9,194.9c-0.6,0.4-1.6,0.7-2.8,0.7h-1.2v-5.4h1.3
						c1.2,0,2.2,0.2,2.8,0.7c0.6,0.4,0.9,1.1,0.9,2.1C1073.8,193.8,1073.5,194.4,1072.9,194.9z"/>
				</g>
			</g>
			<g>
				<circle fill="#FFFFFF" cx="1153" cy="188.3" r="2.9"/>
			</g>
			<g>
				<circle fill="#FFFFFF" cx="1084.7" cy="188.3" r="2.9"/>
			</g>
		</g>
	</g>
</g>
<g id="Путь">
	
		<path fill="none" stroke="#FA4614" stroke-width="4" stroke-linecap="round" stroke-linejoin="round" stroke-miterlimit="10" stroke-dasharray="12" d="
		M1104,1028.9c0,0,347.2-238.9,286.7-375.3c-27.3-61.5-116.7-70.3-116.7-70.3s123.7-191.1-219.3-115.3
		c157.4-67.5-70.3-104-140.5-85.7"/>
	
		<path fill="none" stroke="#660E00" stroke-width="4" stroke-linecap="round" stroke-linejoin="round" stroke-miterlimit="10" stroke-dasharray="12" d="
		M709,1028.9c0,0-567.8-66.1-494.7-123.7s559.4-40.8,559.4-40.8S361.9,655.3,193.2,690.3"/>
	
		<path fill="none" stroke="#660E00" stroke-width="4" stroke-linecap="round" stroke-linejoin="round" stroke-miterlimit="10" stroke-dasharray="12" d="
		M306,656.3c0,0,178.1-39.3,203.4-18.2l9.8-32.3h57.6l2.8-25.3l7-35.1c0,0,45,18.3,22.5,50.6c-22.5,32.3-43.6,163-1.4,153.2
		c42.2-9.8,56.2-217.9,81.5-220.7c25.3-2.8,47.8,0,47.8,0s-23.9-45,0-40.8c23.9,4.2,33.7,5.6,33.7,5.6l12.6-40.8H813l53.4-44.1
		l20.4-15.6"/>
</g>
<g id="Школьники">
	<g>
		
			<pattern  id="SVGID_6_" xlink:href="#New_Pattern_Swatch_53" patternTransform="matrix(0.2335 -0.448 0.448 0.2335 -3568.1826 -8864.3789)">
		</pattern>
		<path fill="url(#SVGID_6_)" d="M419.7,889.6c-2.9,0-5.6-0.6-8.2-1.8c-8.6-4.1-14.2-14.4-14.5-27c0-1.8,1.4-3.3,3.2-3.3
			c1.8,0,3.3,1.4,3.3,3.2c0.3,9.9,4.5,18.2,10.8,21.2c5.4,2.6,12,1.1,19-4.4c1.4-1.1,3.5-0.8,4.6,0.6c1.1,1.4,0.8,3.5-0.6,4.6
			C431.4,887.3,425.4,889.6,419.7,889.6z"/>
		<g>
			<path fill="#FCB28D" d="M447.1,877.1L447.1,877.1c-0.3-1.7-2-2.7-3.6-2.4l-7.8,1.6c-1.8,0.4-2.8,2.2-2.2,3.9l0.3,0.9
				c0.5,1.6,2.3,2.5,3.8,1.9l7.5-2.5C446.5,880.1,447.4,878.6,447.1,877.1z"/>
		</g>
		<g>
			<path fill="#00B469" d="M404.3,862.8c1.4-6.7-2.9-13.2-9.6-14.6c-6.7-1.4-13.2,2.9-14.6,9.6l-8.6,41.4l24.2,5L404.3,862.8z"/>
			<path fill="#00B469" d="M371.6,899.2l-1.3,6.4c-1.4,6.7,2.9,13.2,9.6,14.6s13.2-2.9,14.6-9.6l1.3-6.4L371.6,899.2z"/>
		</g>
		<path fill="#FCB28D" d="M431.1,959.3l17-2.9c1.1-0.2,1.8-1.2,1.6-2.3l0,0c-0.2-0.9-0.9-1.6-1.9-1.6l-18.8-0.6
			c-1.2,0-2.2,1.1-2,2.3l0.4,2.6C427.8,958.5,429.4,959.6,431.1,959.3z"/>
		<path fill="#A57C52" d="M392.6,814.3c2.4,0.1,4.7,1.1,6.4,2.9c-0.1-0.8-0.4-1.7-1-2.5c-1.3-1.8-3.4-2.6-4.6-1.7
			C393,813.3,392.8,813.8,392.6,814.3z"/>
		
			<linearGradient id="SVGID_7_" gradientUnits="userSpaceOnUse" x1="34.1191" y1="336.9265" x2="42.9322" y2="345.7395" gradientTransform="matrix(0.926 0.3774 -0.3774 0.926 488.3174 514.6802)">
			<stop  offset="0" style="stop-color:#D8654E"/>
			<stop  offset="0.2392" style="stop-color:#DE7259"/>
			<stop  offset="0.6831" style="stop-color:#EF9575"/>
			<stop  offset="1" style="stop-color:#FCB28D"/>
		</linearGradient>
		<path fill="url(#SVGID_7_)" d="M399.2,841.8c0.5-1.4-0.3-3-1.8-3.5c-1.4-0.5-3,0.3-3.5,1.8l-2.8,8.8c-0.5,1.4,0.3,3,1.8,3.5
			c1.4,0.5,3-0.3,3.5-1.8L399.2,841.8z"/>
		<g>
			<path fill="#FCB28D" d="M403.3,844.4l1.9-1.4c4.7-3.3,5.7-9.8,2.4-14.5l-8.2-11.4c-2.8-4-8.3-4.9-12.3-2l-5.3,3.8
				c-4,2.8-4.9,8.3-2,12.3l7.6,10.6C391,846.9,398.2,848.1,403.3,844.4z"/>
		</g>
		<g>
			<path d="M401,823.9L401,823.9c0.3-0.2,0.4-0.7,0.2-1l-0.9-1.3c-0.2-0.3-0.7-0.4-1-0.2c-0.3,0.2-0.4,0.7-0.2,1l0.9,1.3
				C400.3,824.1,400.7,824.1,401,823.9z"/>
		</g>
		<g>
			<path d="M393.1,829.6L393.1,829.6c0.3-0.2,0.4-0.7,0.2-1l-0.9-1.3c-0.2-0.3-0.7-0.4-1-0.2c-0.3,0.2-0.4,0.7-0.2,1l0.9,1.3
				C392.3,829.8,392.7,829.8,393.1,829.6z"/>
		</g>
		<g>
			
				<linearGradient id="SVGID_8_" gradientUnits="userSpaceOnUse" x1="-459.7708" y1="357.8674" x2="-458.9695" y2="344.8189" gradientTransform="matrix(-0.8862 0.4633 0.4633 0.8862 -171.231 727.483)">
				<stop  offset="0" style="stop-color:#D8654E"/>
				<stop  offset="0.167" style="stop-color:#DB6C54"/>
				<stop  offset="0.4123" style="stop-color:#E58064"/>
				<stop  offset="0.7046" style="stop-color:#F4A07E"/>
				<stop  offset="0.8444" style="stop-color:#FCB28D"/>
			</linearGradient>
			<path fill="url(#SVGID_8_)" d="M401.9,831.1C401.9,831.1,401.9,831.1,401.9,831.1c1.4-1.5,0.7-3.2,0-4c-0.1-0.1-0.3-0.2-0.5-0.1
				l-2,1.1l-0.8-0.6c0,0-2.8-2.2-3.9-6.2c-0.1-0.2-0.3-0.3-0.5-0.3c-0.2,0.1-0.3,0.3-0.3,0.5c1.2,4.2,4.1,6.5,4.2,6.6l1,0.7
				c0.1,0.1,0.3,0.1,0.4,0l1.9-1c0.3,0.5,0.8,1.6-0.1,2.6c-0.2,0.2-0.2,0.4,0,0.6C401.5,831.2,401.7,831.2,401.9,831.1z"/>
		</g>
		<path fill="#A57C52" d="M375.1,824.7c0.3-0.9,0.9-1.3,1.4-1.5l-0.1-0.2c-1.4-2-1-4.8,1-6.3l8.3-6l3.1-2.2c2-1.4,4.8-1,6.3,1
			l0.1,0.2c0.4,0.6,0.7,1.3,0.8,2c0.2,1.6-0.4,3.3-1.8,4.3l-0.7,0.5l-10.3,7.4c-1.2,0.8-1.5,2.5-0.6,3.7l4.6,6.5
			c1,1.3,0.8,3.3-0.5,4.3c-1.4,1.1-3.4,0.8-4.4-0.6l-6.9-9.7C374.8,827.1,374.6,825.8,375.1,824.7z"/>
		<g>
			<circle fill="#FCB28D" cx="384.3" cy="839.8" r="3.1"/>
			
				<linearGradient id="SVGID_9_" gradientUnits="userSpaceOnUse" x1="-429.465" y1="573.4014" x2="-433.2801" y2="574.3171" gradientTransform="matrix(-0.8126 0.5829 0.5829 0.8126 -300.5078 624.7982)">
				<stop  offset="0" style="stop-color:#D8654E"/>
				<stop  offset="0.1833" style="stop-color:#E0765C"/>
				<stop  offset="0.5438" style="stop-color:#F4A17F"/>
				<stop  offset="0.6696" style="stop-color:#FCB28D"/>
			</linearGradient>
			<circle fill="url(#SVGID_9_)" cx="384.3" cy="839.8" r="1.6"/>
		</g>
		<path fill="#845D42" d="M389.1,827.8c-0.1,0-0.3-0.1-0.4-0.2c-0.4-0.5-0.6-1.1-0.5-1.7c0.1-0.6,0.3-1.2,0.8-1.6
			c0.5-0.4,1.1-0.6,1.7-0.5c0.6,0.1,1.2,0.3,1.6,0.8c0.2,0.2,0.1,0.5-0.1,0.6c-0.2,0.2-0.5,0.1-0.6-0.1c-0.5-0.6-1.4-0.7-2-0.2
			c-0.3,0.2-0.5,0.6-0.5,1c0,0.4,0.1,0.7,0.3,1c0.2,0.2,0.1,0.5-0.1,0.6C389.3,827.8,389.2,827.8,389.1,827.8z"/>
		<path fill="#845D42" d="M397,822.1c-0.1,0-0.3-0.1-0.4-0.2c-0.8-1-0.7-2.5,0.3-3.3c0.5-0.4,1.1-0.6,1.7-0.5
			c0.6,0.1,1.2,0.3,1.6,0.8c0.2,0.2,0.1,0.5-0.1,0.6c-0.2,0.2-0.5,0.1-0.6-0.1c-0.2-0.3-0.6-0.5-1-0.5c-0.4,0-0.7,0.1-1,0.3
			c-0.6,0.5-0.7,1.4-0.2,2c0.2,0.2,0.1,0.5-0.1,0.6C397.2,822.1,397.1,822.1,397,822.1z"/>
		<path fill="#D67751" d="M405.4,838.1c1-0.7,0.6-3-0.9-5.2l-3.7,2.6C402.3,837.6,404.4,838.8,405.4,838.1z"/>
		
			<pattern  id="SVGID_10_" xlink:href="#New_Pattern_Swatch_53" patternTransform="matrix(0.3291 0.3833 -0.3833 0.3291 -8209.4443 -1058.3538)">
		</pattern>
		<path fill="url(#SVGID_10_)" d="M359.5,890.6c-1.1,0-2.2-0.6-2.8-1.6c-5.8-9.7-6.5-19.1-1.9-26.2c5.1-8.1,16-12.3,28.5-11.1
			c1.8,0.2,3.1,1.8,2.9,3.6c-0.2,1.8-1.8,3.1-3.6,2.9c-9.9-0.9-18.7,2.3-22.4,8.1c-3.2,5.1-2.5,11.8,2,19.4c0.9,1.5,0.4,3.5-1.1,4.5
			C360.6,890.4,360.1,890.6,359.5,890.6z"/>
		<g>
			<path fill="#FCB28D" d="M361.1,899.3L361.1,899.3c1.7-0.1,2.9-1.6,2.8-3.3l-0.6-7.9c-0.1-1.8-1.9-3.1-3.6-2.7l-0.9,0.2
				c-1.7,0.3-2.7,2-2.4,3.6l1.6,7.7C358.2,898.4,359.6,899.5,361.1,899.3z"/>
		</g>
		<path fill="#FCB28D" d="M430.8,955.6c0,0-0.1,0-0.1,0c-2-0.1-3.6-1.8-3.5-3.8c0.4-14-2.9-24.4-10.1-31
			c-10.3-9.5-25.3-7.9-25.4-7.9c-2,0.2-3.8-1.2-4.1-3.2c-0.2-2,1.2-3.8,3.2-4.1c0.7-0.1,18.4-2,31.2,9.7c8.8,8.1,13,20.4,12.5,36.6
			C434.4,954.1,432.7,955.6,430.8,955.6z"/>
		<path fill="#FCB28D" d="M340.9,959.9c-1.8,0-3.3-1.3-3.6-3.1c-0.3-2,1-3.9,3-4.2c13.8-2.3,23.4-7.6,28.5-15.9
			c7.3-12,2.8-26.3,2.8-26.4c-0.6-1.9,0.4-4,2.4-4.6c1.9-0.6,4,0.4,4.6,2.4c0.2,0.7,5.5,17.7-3.5,32.5
			c-6.2,10.2-17.5,16.7-33.5,19.3C341.3,959.9,341.1,959.9,340.9,959.9z"/>
		<path fill="#1F1D38" d="M450.8,954.6L450.8,954.6c-0.8-3.7-4.2-3.2-4.2-3.2s-1.9,0.3-3.3,0.3c-1.4,0-3.7-1.9-5.1-2.9
			c-1.4-1-2.7-1-2.9-0.1c-0.2,0.9-1.4,2.9-3.8,3.5c-2.4,0.6-4.3-1.2-4.5-1.5c-0.2-0.3-0.4-0.2-0.4-0.2c-1.3,0.2-1,1.9-1,1.9l1.1,6.2
			l0.1,0.4l0.2,1c0.1,0.3,0.4,0.5,0.7,0.5l22.4-3.9C451.2,956.3,450.9,955,450.8,954.6z"/>
		<path fill="#1F1D38" d="M345.7,975.7L345.7,975.7c3.1-2.1,1.3-5.1,1.3-5.1s-1-1.6-1.6-2.9c-0.6-1.3,0.3-4.2,0.7-5.8
			c0.4-1.6-0.1-2.9-1-2.7c-0.9,0.1-3.2-0.1-4.7-2.1c-1.5-2-0.6-4.4-0.4-4.7c0.2-0.3,0.1-0.4,0.1-0.4c-0.7-1.1-2.2-0.1-2.2-0.1
			l-5.3,3.4l-0.3,0.2l-0.8,0.5c-0.3,0.2-0.3,0.5-0.2,0.8l12.2,19.2C344.3,976.7,345.4,975.9,345.7,975.7z"/>
		<g>
			<path fill="#00B469" d="M430.5,878.8c-5.9,3.8-11.4,4.7-15.9,2.5c-6.1-2.9-10.2-11-10.4-20.7c-0.1-2.1-1.8-3.8-3.9-3.7
				c-2.1,0.1-3.8,1.8-3.7,3.9c0.2,8,2.5,15.1,6.4,20.3c2.3,3.1,5.2,5.6,8.5,7.2c4.2,2,12.5,4,23.4-3L430.5,878.8z"/>
		</g>
		<g>
			<path fill="#00B469" d="M383.3,851c-12.7-1.2-23.8,3.2-29.1,11.4c-2.4,3.8-5.3,11.6-0.1,22.9l6.9-3.4c-2.7-6-2.9-11.3-0.3-15.4
				c3.6-5.7,12.2-8.8,21.8-7.9c2.1,0.2,4-1.4,4.2-3.5C387,853.1,385.4,851.2,383.3,851z"/>
		</g>
		<g>
			<path fill="#00B469" d="M422.4,914.9c-13.1-11.9-31-10-31.8-9.9c-2.4,0.3-4.1,2.5-3.8,4.9c0.3,2.4,2.5,4.1,4.9,3.9
				c0.1,0,14.8-1.6,24.9,7.7c6.1,5.7,9.4,14.3,9.8,25.7l8.8-1.1C434.5,932.5,430.3,922.1,422.4,914.9z"/>
		</g>
		<path fill="#00B469" d="M379.3,907.9c-0.7-2.3-3.2-3.6-5.5-2.8c-2.3,0.7-3.6,3.2-2.8,5.5c0,0.1,4.4,14.1-2.7,25.8
			c-4.2,7-11.8,11.8-22.5,14.4l3.5,8.2c12.3-3.3,21.2-9.3,26.5-18C384.9,925.8,379.5,908.6,379.3,907.9z"/>
		<circle fill="#A57C52" cx="375.4" cy="822.4" r="2.7"/>
		<circle fill="#A57C52" cx="386.3" cy="821.1" r="2.7"/>
		<circle fill="#A57C52" cx="395.2" cy="813.4" r="2.7"/>
		<circle fill="#A57C52" cx="386.9" cy="810.7" r="2.7"/>
		<circle fill="#A57C52" cx="382.1" cy="812.6" r="3.7"/>
		<circle fill="#A57C52" cx="384.3" cy="830.6" r="2.7"/>
		<circle fill="#A57C52" cx="382.7" cy="825.3" r="4.2"/>
	</g>
	<g>
		<path fill="#F6921E" d="M482.4,624.8c0.2-0.1,0.5-0.2,0.7-0.2c-0.1,1,0.1,2.2,0.6,3.3c0.5,1.2,1.3,2.1,2.1,2.7
			c-0.2,0.1-0.4,0.3-0.6,0.4c-1.7,0.8-3.7,0-4.4-1.7C480,627.5,480.7,625.5,482.4,624.8z"/>
		
			<pattern  id="SVGID_11_" xlink:href="#New_Pattern_Swatch_53" patternTransform="matrix(-0.1816 -0.3484 -0.3484 0.1816 -12354.6787 -8313.3184)">
		</pattern>
		<path fill="url(#SVGID_11_)" d="M458.5,668.8c3.1,0,6-0.8,8.5-2.5c6.2-4.1,9.2-12.7,8.1-22.4c-0.2-1.4-1.4-2.4-2.8-2.2
			c-1.4,0.2-2.4,1.4-2.2,2.8c0.9,7.7-1.4,14.5-5.9,17.6c-3.9,2.6-9.1,2.2-15.1-1.2c-1.2-0.7-2.8-0.2-3.4,1s-0.2,2.8,1,3.4
			C450.8,667.7,454.9,668.8,458.5,668.8z"/>
		<g>
			<path fill="#FCB28D" d="M438.5,662.1L438.5,662.1c0.1-1.3,1.2-2.3,2.5-2.3l6.2,0.3c1.4,0.1,2.4,1.4,2.2,2.8l-0.1,0.7
				c-0.2,1.3-1.5,2.2-2.7,1.9l-6.1-1.1C439.3,664.4,438.5,663.3,438.5,662.1z"/>
		</g>
		<g>
			<path fill="#00B469" d="M470,647c-1.5-5.1,1.4-10.4,6.5-11.9c5.1-1.5,10.4,1.4,11.9,6.5l9.2,31.6l-18.5,5.4L470,647z"/>
			<path fill="#00B469" d="M497.6,673.2l1.4,4.9c1.5,5.1-1.4,10.4-6.5,11.9c-5.1,1.5-10.4-1.4-11.9-6.5l-1.4-4.9L497.6,673.2z"/>
		</g>
		<path fill="#F6921E" d="M470.1,609.7c-1.7,0.8-3,2.2-3.8,4c-0.2-0.6-0.2-1.3,0-2.1c0.4-1.7,1.6-2.9,2.8-2.6
			C469.5,609.1,469.9,609.4,470.1,609.7z"/>
		
			<linearGradient id="SVGID_12_" gradientUnits="userSpaceOnUse" x1="993.3096" y1="-282.98" x2="1000.1628" y2="-276.1268" gradientTransform="matrix(-0.8932 0.4496 0.4496 0.8932 1491.9542 434.3952)">
			<stop  offset="0" style="stop-color:#D8654E"/>
			<stop  offset="0.2392" style="stop-color:#DE7259"/>
			<stop  offset="0.6831" style="stop-color:#EF9575"/>
			<stop  offset="1" style="stop-color:#FCB28D"/>
		</linearGradient>
		<path fill="url(#SVGID_12_)" d="M472.6,630.3c-0.5-1.1,0.1-2.3,1.2-2.8c1.1-0.5,2.3,0.1,2.8,1.2l2.7,6.6c0.5,1.1-0.1,2.3-1.2,2.8
			c-1.1,0.5-2.3-0.1-2.8-1.2L472.6,630.3z"/>
		<g>
			<path fill="#FCB28D" d="M471.4,634.5l-1.8-0.4c-4.3-1-7-5.3-6-9.7l2.5-10.7c0.9-3.7,4.5-6,8.2-5.1l5,1.2c3.7,0.9,6,4.5,5.1,8.2
				l-2.3,9.8C481,632.6,476.2,635.6,471.4,634.5z"/>
		</g>
		<g>
			<path d="M467,619.1L467,619.1c-0.3-0.1-0.5-0.4-0.4-0.6l0.3-1.2c0.1-0.3,0.4-0.5,0.6-0.4c0.3,0.1,0.5,0.4,0.4,0.6l-0.3,1.2
				C467.5,619,467.3,619.2,467,619.1z"/>
		</g>
		<g>
			<path d="M474.4,620.8L474.4,620.8c-0.3-0.1-0.5-0.4-0.4-0.6l0.3-1.2c0.1-0.3,0.4-0.5,0.6-0.4c0.3,0.1,0.5,0.4,0.4,0.6l-0.3,1.2
				C475,620.7,474.7,620.9,474.4,620.8z"/>
		</g>
		<g>
			
				<linearGradient id="SVGID_13_" gradientUnits="userSpaceOnUse" x1="-1597.7709" y1="539.8625" x2="-1597.1477" y2="529.7155" gradientTransform="matrix(0.9961 8.800000e-002 -8.800000e-002 0.9961 2107.5825 227.7757)">
				<stop  offset="0" style="stop-color:#D8654E"/>
				<stop  offset="0.167" style="stop-color:#DB6C54"/>
				<stop  offset="0.4123" style="stop-color:#E58064"/>
				<stop  offset="0.7046" style="stop-color:#F4A07E"/>
				<stop  offset="0.8444" style="stop-color:#FCB28D"/>
			</linearGradient>
			<path fill="url(#SVGID_13_)" d="M468.5,624.5C468.5,624.5,468.4,624.5,468.5,624.5c-1.5-0.6-1.4-2.1-1.2-2.8
				c0-0.1,0.2-0.2,0.3-0.2l1.8,0.2l0.4-0.6c0,0,1.3-2.4,1-5.6c0-0.2,0.1-0.3,0.3-0.4c0.2,0,0.3,0.1,0.4,0.3c0.4,3.4-1,5.9-1.1,6
				l-0.5,0.8c-0.1,0.1-0.2,0.2-0.3,0.1l-1.7-0.2c-0.1,0.5-0.1,1.4,0.9,1.8c0.2,0.1,0.2,0.3,0.2,0.4
				C468.8,624.5,468.6,624.6,468.5,624.5z"/>
		</g>
		<path fill="#F6921E" d="M485.8,611.9c-0.5-0.5-1-0.7-1.5-0.7l0-0.1c0.4-1.9-0.7-3.8-2.6-4.2l-7.8-1.8l-2.9-0.7
			c-1.9-0.4-3.8,0.7-4.2,2.6l0,0.2c-0.1,0.6-0.1,1.1,0,1.7c0.3,1.2,1.3,2.2,2.6,2.5l0.6,0.1l9.6,2.2c1.1,0.3,1.8,1.4,1.5,2.5l-1.4,6
			c-0.3,1.3,0.4,2.6,1.6,3c1.3,0.4,2.7-0.4,3-1.7l2.1-9C486.7,613.6,486.5,612.6,485.8,611.9z"/>
		<g>
			<circle fill="#FCB28D" cx="483.7" cy="625.5" r="2.4"/>
			
				<linearGradient id="SVGID_14_" gradientUnits="userSpaceOnUse" x1="-1535.9038" y1="914.509" x2="-1538.8706" y2="915.221" gradientTransform="matrix(0.974 0.2266 -0.2266 0.974 2188.2217 82.7915)">
				<stop  offset="0" style="stop-color:#D8654E"/>
				<stop  offset="0.1833" style="stop-color:#E0765C"/>
				<stop  offset="0.5438" style="stop-color:#F4A17F"/>
				<stop  offset="0.6696" style="stop-color:#FCB28D"/>
			</linearGradient>
			<circle fill="url(#SVGID_14_)" cx="483.7" cy="625.5" r="1.3"/>
		</g>
		<path fill="#845D42" d="M476.5,618.4c0.2,0,0.3-0.1,0.3-0.2c0.1-0.5,0.1-1-0.1-1.4c-0.2-0.4-0.6-0.7-1.1-0.9
			c-0.9-0.3-2,0.2-2.3,1.2c-0.1,0.2,0,0.4,0.2,0.4c0.2,0.1,0.4,0,0.4-0.2c0.2-0.6,0.8-0.9,1.4-0.7c0.6,0.2,0.9,0.8,0.7,1.4
			c-0.1,0.2,0,0.4,0.2,0.4C476.5,618.4,476.5,618.4,476.5,618.4z"/>
		<path fill="#845D42" d="M469.2,616.7c0.2,0,0.3-0.1,0.3-0.2c0.1-0.5,0.1-1-0.1-1.4c-0.2-0.4-0.6-0.7-1.1-0.9
			c-0.5-0.1-1-0.1-1.4,0.1c-0.4,0.2-0.7,0.6-0.9,1.1c-0.1,0.2,0,0.4,0.2,0.4c0.2,0.1,0.4,0,0.4-0.2c0.2-0.6,0.8-0.9,1.4-0.7
			c0.3,0.1,0.5,0.3,0.7,0.5c0.1,0.3,0.2,0.6,0.1,0.8c-0.1,0.2,0,0.4,0.2,0.4C469.1,616.7,469.1,616.7,469.2,616.7z"/>
		
			<pattern  id="SVGID_15_" xlink:href="#New_Pattern_Swatch_53" patternTransform="matrix(-0.2559 0.298 0.298 0.2559 -8744.7676 -2229.6865)">
		</pattern>
		<path fill="url(#SVGID_15_)" d="M504.7,666.5c0.9,0,1.8-0.5,2.3-1.4c4-7.9,4-15.1,0.1-20.4c-4.4-6-13.1-8.7-22.7-7.1
			c-1.4,0.2-2.3,1.5-2.1,2.9c0.2,1.4,1.5,2.3,2.9,2.1c7.6-1.3,14.6,0.7,17.8,5.1c2.8,3.7,2.6,9-0.5,15.2c-0.6,1.3-0.1,2.8,1.1,3.4
			C503.9,666.4,504.3,666.5,504.7,666.5z"/>
		<g>
			<path fill="#FCB28D" d="M504.1,673.3L504.1,673.3c-1.3,0-2.4-1.1-2.4-2.4l0.1-6.2c0-1.4,1.3-2.5,2.7-2.3l0.7,0.1
				c1.3,0.2,2.2,1.4,2,2.7l-0.8,6.1C506.3,672.5,505.3,673.3,504.1,673.3z"/>
		</g>
		<path fill="#FCB28D" d="M439.5,699.7c1,0,2-0.6,2.5-1.6c5-9.7,11.2-15.5,18.5-17.3c10.6-2.6,20.1,4.2,20.2,4.2
			c1.3,0.9,3.1,0.6,4-0.7c0.9-1.3,0.6-3.1-0.7-4c-0.5-0.3-11.7-8.3-24.9-5.1c-9,2.2-16.5,9-22.3,20.2c-0.7,1.4-0.2,3.1,1.2,3.8
			C438.6,699.6,439,699.7,439.5,699.7z"/>
		<path fill="#FCB28D" d="M486.1,733.7c0.6,0,1.2-0.2,1.7-0.5c1.3-0.9,1.5-2.7,0.6-4c-6.4-8.8-8.8-17-7.1-24.3
			c2.5-10.6,12.8-16.1,12.9-16.2c1.4-0.7,1.9-2.4,1.2-3.8c-0.7-1.4-2.4-1.9-3.8-1.2c-0.5,0.3-12.7,6.8-15.8,19.9
			c-2.1,9,0.6,18.8,8.1,29C484.3,733.3,485.2,733.7,486.1,733.7z"/>
		<path fill="#1F1D38" d="M426.1,689L426.1,689c2.4-1.7,4.1,0.4,4.1,0.4s0.9,1.2,1.7,2c0.8,0.8,3.1,0.9,4.4,1.1
			c1.3,0.2,2.1,0.9,1.7,1.5c-0.4,0.6-0.8,2.4,0.3,4c1,1.6,3,1.6,3.3,1.6c0.3-0.1,0.3,0.1,0.3,0.1c0.6,0.8-0.5,1.6-0.5,1.6l-3.9,2.9
			l-0.2,0.2l-0.6,0.5c-0.2,0.1-0.5,0.1-0.6-0.1l-10.6-14.2C425,689.7,425.8,689.1,426.1,689z"/>
		<path fill="#1F1D38" d="M477.5,743.3L477.5,743.3c-1.6-2.5,0.6-4.1,0.6-4.1s1.2-0.8,2-1.6c0.8-0.7,1.1-3.1,1.3-4.4
			c0.2-1.3,0.9-2,1.6-1.6c0.6,0.4,2.4,0.9,4-0.1c1.7-1,1.8-3,1.7-3.2c-0.1-0.3,0.1-0.3,0.1-0.3c0.9-0.6,1.6,0.6,1.6,0.6l2.8,4
			l0.2,0.2l0.4,0.6c0.1,0.2,0.1,0.5-0.1,0.6l-14.6,10C478.2,744.4,477.6,743.5,477.5,743.3z"/>
		<g>
			<path fill="#00B469" d="M451.5,661.6c5,2.3,9.3,2.3,12.5,0.1c4.3-2.9,6.6-9.6,5.7-17.1c-0.2-1.6,1-3.1,2.6-3.3
				c1.6-0.2,3.1,1,3.3,2.6c0.8,6.2-0.2,11.9-2.6,16.4c-1.4,2.7-3.3,4.9-5.7,6.5c-3,2-9.2,4.5-18.3,0.3L451.5,661.6z"/>
		</g>
		<g>
			<path fill="#00B469" d="M484.2,637.1c9.8-1.6,18.7,1.2,23.2,7.3c2.1,2.8,4.8,8.7,1.4,17.7l-5.5-2.2c1.8-4.8,1.6-8.9-0.6-11.9
				c-3.1-4.2-9.9-6.2-17.4-4.9c-1.6,0.3-3.2-0.8-3.4-2.5C481.5,638.9,482.6,637.3,484.2,637.1z"/>
		</g>
		<g>
			<path fill="#00B469" d="M459.1,674.8c13.4-3.2,24.9,4.9,25.3,5.2c1.5,1.1,1.9,3.2,0.8,4.8c-1.1,1.5-3.2,1.9-4.8,0.8
				c-0.1-0.1-9.5-6.7-19.8-4.1c-6.3,1.5-11.8,6.2-16.3,13.8l-5.6-4C444.2,682.2,451.1,676.7,459.1,674.8z"/>
		</g>
		<path fill="#00B469" d="M491.2,683.1c1.7-0.9,3.7-0.2,4.6,1.4c0.9,1.7,0.2,3.7-1.4,4.6c-0.1,0.1-10.1,5.4-12.6,15.8
			c-1.4,6.2,0.1,13,4.6,20.3l-6.4,2.6c-5-8.5-6.7-16.7-4.9-24.4C478.3,690,490.7,683.3,491.2,683.1z"/>
		<path fill="#F6921E" d="M469.8,601.4c0.4-0.1,0.7-0.2,1.1-0.2c-0.4,1.5-0.3,3.3,0.2,5.1c0.5,1.8,1.5,3.4,2.6,4.4
			c-0.3,0.2-0.7,0.3-1,0.4c-2.7,0.8-5.6-0.8-6.3-3.5C465.5,605.1,467.1,602.2,469.8,601.4z"/>
		<path fill="#F6921E" d="M473.8,601.7c0.2,0,0.5,0,0.7,0.1c-0.5,0.9-0.8,2-0.8,3.3c0,1.3,0.3,2.4,0.8,3.3c-0.2,0.1-0.5,0.1-0.7,0.1
			c-1.9,0-3.4-1.5-3.4-3.4S471.9,601.7,473.8,601.7z"/>
		<path fill="#D98566" d="M469,629.2c1,0,1.8-0.3,1.8-0.3c0.2-0.1,0.3-0.3,0.3-0.5c-0.1-0.2-0.3-0.3-0.5-0.3c0,0-2.4,0.8-3.5-0.6
			c-0.1-0.2-0.4-0.2-0.6-0.1c-0.2,0.1-0.2,0.4-0.1,0.6C467.1,628.9,468.1,629.2,469,629.2z"/>
	</g>
	<g>
		
			<pattern  id="SVGID_16_" xlink:href="#New_Pattern_Swatch_53" patternTransform="matrix(0.1471 -0.2822 0.2822 0.1471 -5336.8643 -7990.106)">
		</pattern>
		<path fill="url(#SVGID_16_)" d="M634.8,490.7c-4,0-8.4-1.5-12.5-4.3c-0.9-0.6-1.2-1.9-0.5-2.9c0.7-0.9,1.9-1.2,2.9-0.5
			c5.1,3.6,10.9,4.6,14.8,2.5c3.3-1.8,5-5.7,4.9-11.3c0-1.1,0.9-2.1,2-2.1c1.1,0,2.1,0.9,2.1,2c0.2,7.1-2.4,12.5-7.1,15
			C639.5,490.2,637.2,490.7,634.8,490.7z"/>
		<g>
			<path fill="#FCB28D" d="M649.3,467.1L649.3,467.1c-1-0.4-2.1,0-2.6,0.9l-2.1,4.6c-0.5,1,0.1,2.3,1.2,2.6l0.6,0.2
				c1,0.3,2.1-0.2,2.4-1.2l1.5-4.7C650.6,468.5,650.2,467.5,649.3,467.1z"/>
		</g>
		<g>
			<path fill="#00B469" d="M625.3,488.4c1.6-4-0.4-8.5-4.4-10.1c-4-1.6-8.5,0.4-10.1,4.4l-9.8,24.8l14.5,5.7L625.3,488.4z"/>
			<path fill="#00B469" d="M601.1,507.4l-1.5,3.8c-1.6,4,0.4,8.5,4.4,10.1c4,1.6,8.5-0.4,10.1-4.4l1.5-3.8L601.1,507.4z"/>
		</g>
		<path fill="#FCB28D" d="M651.4,512.9l4.4-9.9c0.3-0.6,0-1.3-0.6-1.6l0,0c-0.5-0.2-1.2-0.1-1.5,0.4l-6.9,9.6
			c-0.5,0.6-0.2,1.5,0.5,1.8l1.5,0.7C649.8,514.3,651,513.9,651.4,512.9z"/>
		<path fill="#534741" d="M623.3,457.7c1.5,0.3,2.8,1.1,3.7,2.4c0-0.5-0.1-1.1-0.4-1.6c-0.6-1.3-1.8-1.9-2.7-1.5
			C623.7,457.1,623.4,457.4,623.3,457.7z"/>
		
			<linearGradient id="SVGID_17_" gradientUnits="userSpaceOnUse" x1="123.5568" y1="14.3912" x2="129.1078" y2="19.9423" gradientTransform="matrix(0.8478 0.5304 -0.5304 0.8478 523.5123 394.9362)">
			<stop  offset="0" style="stop-color:#D8654E"/>
			<stop  offset="0.2392" style="stop-color:#DE7259"/>
			<stop  offset="0.6831" style="stop-color:#EF9575"/>
			<stop  offset="1" style="stop-color:#FCB28D"/>
		</linearGradient>
		<path fill="url(#SVGID_17_)" d="M624.4,474.7c0.4-0.8,0.1-1.9-0.7-2.3c-0.8-0.4-1.9-0.1-2.3,0.7l-2.7,5.1
			c-0.4,0.8-0.1,1.9,0.7,2.3c0.8,0.4,1.9,0.1,2.3-0.7L624.4,474.7z"/>
		<g>
			<path fill="#FCB28D" d="M627.1,477.4l1.3-0.7c3.2-1.6,4.5-5.6,2.9-8.8l-4-7.9c-1.4-2.7-4.7-3.8-7.5-2.4l-3.7,1.9
				c-2.7,1.4-3.8,4.7-2.4,7.5l3.7,7.3C619.2,477.8,623.5,479.3,627.1,477.4z"/>
		</g>
		<g>
			<path d="M627.6,464.5L627.6,464.5c0.2-0.1,0.3-0.4,0.2-0.6l-0.5-0.9c-0.1-0.2-0.4-0.3-0.6-0.2c-0.2,0.1-0.3,0.4-0.2,0.6l0.5,0.9
				C627.1,464.5,627.4,464.6,627.6,464.5z"/>
		</g>
		<g>
			<path d="M622.1,467.3L622.1,467.3c0.2-0.1,0.3-0.4,0.2-0.6l-0.5-0.9c-0.1-0.2-0.4-0.3-0.6-0.2c-0.2,0.1-0.3,0.4-0.2,0.6l0.5,0.9
				C621.6,467.3,621.9,467.4,622.1,467.3z"/>
		</g>
		<g>
			
				<linearGradient id="SVGID_18_" gradientUnits="userSpaceOnUse" x1="-780.3218" y1="185.9991" x2="-779.8171" y2="177.7794" gradientTransform="matrix(-0.946 0.3241 0.3241 0.946 -170.9533 546.3083)">
				<stop  offset="0" style="stop-color:#D8654E"/>
				<stop  offset="0.167" style="stop-color:#DB6C54"/>
				<stop  offset="0.4123" style="stop-color:#E58064"/>
				<stop  offset="0.7046" style="stop-color:#F4A07E"/>
				<stop  offset="0.8444" style="stop-color:#FCB28D"/>
			</linearGradient>
			<path fill="url(#SVGID_18_)" d="M627.5,469C627.5,469,627.5,469,627.5,469c1-0.8,0.7-2,0.4-2.5c-0.1-0.1-0.2-0.2-0.3-0.1
				l-1.4,0.5l-0.4-0.4c0,0-1.5-1.6-1.9-4.2c0-0.1-0.1-0.2-0.3-0.2c-0.1,0-0.2,0.1-0.2,0.3c0.4,2.8,2,4.4,2,4.5l0.6,0.5
				c0.1,0.1,0.2,0.1,0.3,0.1l1.3-0.4c0.1,0.3,0.3,1.1-0.3,1.6c-0.1,0.1-0.1,0.2-0.1,0.4C627.2,469.1,627.4,469.1,627.5,469z"/>
		</g>
		<path fill="#534741" d="M611.4,462.5c0.3-0.5,0.7-0.7,1-0.8l-0.1-0.1c-0.7-1.4-0.2-3.1,1.2-3.8l5.8-2.9l2.1-1.1
			c1.4-0.7,3.1-0.2,3.8,1.2l0.1,0.1c0.2,0.4,0.3,0.9,0.3,1.3c0,1-0.6,2-1.5,2.5l-0.5,0.2l-7.1,3.6c-0.8,0.4-1.1,1.4-0.7,2.2l2.3,4.5
			c0.5,0.9,0.2,2.1-0.7,2.6c-1,0.6-2.2,0.2-2.7-0.8l-3.4-6.7C611,463.9,611,463.1,611.4,462.5z"/>
		<g>
			<circle fill="#FCB28D" cx="615.7" cy="472.8" r="1.9"/>
			
				<linearGradient id="SVGID_19_" gradientUnits="userSpaceOnUse" x1="-778.6577" y1="450.1806" x2="-781.061" y2="450.7574" gradientTransform="matrix(-0.8913 0.4534 0.4534 0.8913 -283.4753 424.7979)">
				<stop  offset="0" style="stop-color:#D8654E"/>
				<stop  offset="0.1833" style="stop-color:#E0765C"/>
				<stop  offset="0.5438" style="stop-color:#F4A17F"/>
				<stop  offset="0.6696" style="stop-color:#FCB28D"/>
			</linearGradient>
			<circle fill="url(#SVGID_19_)" cx="615.7" cy="472.8" r="1"/>
		</g>
		<path fill="#845D42" d="M619.9,465.8c-0.1,0-0.2,0-0.2-0.1c-0.2-0.3-0.3-0.7-0.2-1.1c0.1-0.4,0.3-0.7,0.7-0.9
			c0.3-0.2,0.7-0.3,1.1-0.2c0.4,0.1,0.7,0.3,0.9,0.7c0.1,0.1,0,0.3-0.1,0.4c-0.1,0.1-0.3,0-0.4-0.1c-0.1-0.2-0.3-0.3-0.6-0.4
			c-0.2-0.1-0.5,0-0.7,0.1c-0.4,0.3-0.6,0.8-0.3,1.2c0.1,0.1,0,0.3-0.1,0.4C620,465.8,619.9,465.8,619.9,465.8z"/>
		<path fill="#845D42" d="M625.3,463c-0.1,0-0.2,0-0.2-0.1c-0.2-0.3-0.3-0.7-0.2-1.1c0.1-0.4,0.3-0.7,0.7-0.9
			c0.3-0.2,0.7-0.3,1.1-0.2c0.4,0.1,0.7,0.3,0.9,0.7c0.1,0.1,0,0.3-0.1,0.4c-0.1,0.1-0.3,0-0.4-0.1c-0.1-0.2-0.3-0.4-0.6-0.4
			c-0.2-0.1-0.5,0-0.7,0.1c-0.4,0.3-0.6,0.8-0.3,1.2c0.1,0.1,0,0.3-0.1,0.4C625.5,463,625.4,463,625.3,463z"/>
		
			<pattern  id="SVGID_20_" xlink:href="#New_Pattern_Swatch_53" patternTransform="matrix(0.2073 0.2414 -0.2414 0.2073 -8300.085 -3062.7051)">
		</pattern>
		<path fill="url(#SVGID_20_)" d="M591.8,495.3c-1.1,0-2-0.8-2-1.9c-0.6-7.1,1.7-12.6,6.2-15.4c5.1-3.1,12.5-2.5,19.2,1.7
			c1,0.6,1.3,1.9,0.7,2.8c-0.6,1-1.9,1.3-2.8,0.7c-5.3-3.3-11.2-3.9-14.9-1.6c-3.2,2-4.7,5.9-4.3,11.5c0.1,1.1-0.8,2.1-1.9,2.2
			C591.9,495.3,591.9,495.3,591.8,495.3z"/>
		<g>
			<path fill="#FCB28D" d="M589.4,500.5L589.4,500.5c1,0.4,2.1-0.1,2.5-1.1l1.9-4.7c0.4-1.1-0.2-2.3-1.3-2.5l-0.6-0.2
				c-1-0.3-2.1,0.3-2.3,1.4l-1.3,4.8C588,499.1,588.5,500.1,589.4,500.5z"/>
		</g>
		<path fill="#FCB28D" d="M611.3,518.5c-0.4,0-0.7-0.1-1.1-0.3c-1.1-0.6-1.6-2-1-3.1c0.2-0.4,5.4-10.3,16-12.9
			c7.3-1.8,15.2,0.4,23.5,6.4c1,0.7,1.3,2.2,0.5,3.2c-0.7,1-2.2,1.3-3.2,0.5c-7.2-5.1-13.8-7-19.7-5.6c-8.6,2-13,10.4-13.1,10.5
			C612.9,518,612.1,518.5,611.3,518.5z"/>
		<path fill="#FCB28D" d="M587,551.2c-0.9,0-1.8-0.6-2.2-1.5c-0.5-1.2,0.1-2.5,1.3-3c8.2-3.2,13.5-7.7,15.5-13.4
			c3-8.3-1.6-16.6-1.6-16.6c-0.6-1.1-0.2-2.5,0.9-3.1c1.1-0.6,2.5-0.2,3.1,0.9c0.2,0.4,5.7,10.2,2,20.5c-2.5,7.1-8.7,12.5-18.2,16.2
			C587.6,551.2,587.3,551.2,587,551.2z"/>
		<path fill="#1F1D38" d="M655.9,500.9L655.9,500.9c-2.2-0.9-3.1,1.1-3.1,1.1s-0.5,1.1-1,1.8c-0.5,0.7-2.3,1.3-3.3,1.7
			c-1,0.4-1.5,1-1.1,1.5s1,1.8,0.5,3.2c-0.5,1.5-2.1,1.8-2.3,1.8c-0.2,0-0.2,0.1-0.2,0.1c-0.3,0.8,0.7,1.2,0.7,1.2l3.6,1.6l0.2,0.1
			l0.6,0.3c0.2,0.1,0.4,0,0.5-0.2l5.9-13.1C656.9,501.3,656.1,501,655.9,500.9z"/>
		<path fill="#1F1D38" d="M592.5,560.3L592.5,560.3c1.6-1.7,0.2-3.3,0.2-3.3s-0.8-0.9-1.4-1.6c-0.5-0.7-0.4-2.6-0.3-3.7
			c0-1.1-0.4-1.8-1-1.6c-0.6,0.2-2,0.3-3.2-0.7c-1.2-1-0.9-2.6-0.8-2.8c0.1-0.2,0-0.3,0-0.3c-0.6-0.6-1.4,0.2-1.4,0.2l-2.8,2.8
			l-0.2,0.2l-0.5,0.4c-0.1,0.1-0.1,0.4,0,0.5l10,10.3C591.7,561.1,592.3,560.5,592.5,560.3z"/>
		<g>
			<path fill="#00B469" d="M644,476.2c-0.3,4.4-1.9,7.5-4.7,9c-3.7,2-9.4,1-14.4-2.5c-1.1-0.8-2.6-0.5-3.4,0.6
				c-0.8,1.1-0.5,2.6,0.6,3.4c4.1,2.9,8.6,4.4,12.7,4.4c2.4,0,4.8-0.5,6.8-1.6c2.6-1.4,6.7-4.8,7.2-13L644,476.2z"/>
		</g>
		<g>
			<path fill="#00B469" d="M615.4,479.4c-6.8-4.2-14.3-4.9-19.6-1.7c-2.4,1.5-6.3,5.1-6.5,12.9l4.8,0c0.1-4.2,1.5-7.2,4.1-8.8
				c3.6-2.2,9.3-1.6,14.5,1.6c1.1,0.7,2.6,0.4,3.3-0.8C616.9,481.6,616.5,480.1,615.4,479.4z"/>
		</g>
		<g>
			<path fill="#00B469" d="M625.2,501.8c-10.8,2.6-16.1,12.7-16.3,13.1c-0.7,1.4-0.2,3,1.2,3.7c1.4,0.7,3,0.2,3.7-1.2
				c0-0.1,4.4-8.3,12.8-10.3c5.1-1.2,10.8,0.1,16.9,3.9l2.5-5C638.6,501.7,631.7,500.2,625.2,501.8z"/>
		</g>
		<path fill="#00B469" d="M604.5,514.2c-0.8-1.3-2.4-1.8-3.8-1c-1.3,0.8-1.8,2.4-1,3.8c0,0.1,4.5,8.1,1.6,16.3
			c-1.7,4.8-5.8,8.8-12.1,11.8l3.2,4.6c7.2-3.6,11.9-8.5,14.1-14.5C610.3,524.5,604.7,514.6,604.5,514.2z"/>
		<ellipse fill="#E66F57" cx="627.9" cy="472.2" rx="0.9" ry="1.5"/>
		<path fill="#534741" d="M617.7,467.4L617.7,467.4c-0.4,0.2-0.9,0-1.1-0.4l-1.5-2.9c-0.2-0.4,0-0.9,0.4-1.1l0,0
			c0.4-0.2,0.9,0,1.1,0.4l1.5,2.9C618.2,466.7,618.1,467.2,617.7,467.4z"/>
		<path fill="#534741" d="M618,464.9L618,464.9c-0.4,0.2-0.9,0-1.1-0.4l-1.5-2.9c-0.2-0.4,0-0.9,0.4-1.1l0,0c0.4-0.2,0.9,0,1.1,0.4
			l1.5,2.9C618.5,464.2,618.4,464.7,618,464.9z"/>
		<path fill="#534741" d="M613.8,470.1L613.8,470.1c-0.4,0.2-0.9,0-1.1-0.4l-1.5-2.9c-0.2-0.4,0-0.9,0.4-1.1h0
			c0.4-0.2,0.9,0,1.1,0.4l1.5,2.9C614.4,469.3,614.2,469.8,613.8,470.1z"/>
	</g>
</g>
<g id="Флаг_битроникс">
	<g>
		
			<line fill="none" stroke="#1A3954" stroke-width="1.6596" stroke-linecap="round" stroke-linejoin="round" stroke-miterlimit="10" x1="1273.3" y1="885.5" x2="1273.3" y2="760"/>
		<polygon fill="#2B286D" points="1469,806.2 1270.4,806.2 1270.4,762.2 1469,762.2 1449.9,784.2 		"/>
	</g>
	<g>
		<g>
			<path fill="#FFFFFF" d="M1419.2,777.4l-6.4,16.2h2.7l2.1-5.5h5.5l2,5.5h2.7l-6.2-16.2H1419.2z M1418.3,786.1l2-5.4l1.9,5.4
				H1418.3z"/>
			<g>
				<g>
					<path fill="#FFFFFF" d="M1334.9,777.4v5.4c-0.6,0-0.8,0-1.1,0c-1.5,0-2.4,1.3-2.3,3.3v7.6h-5.3v-8.7c0-2.3,0.6-4.1,1.9-5.5
						c1.3-1.4,2.9-2.1,5-2.1C1333.5,777.4,1333.1,777.4,1334.9,777.4z"/>
				</g>
			</g>
			<g>
				<g>
					<path fill="#FFFFFF" d="M1344.1,777.4c2.3,0,4.2,0.8,5.8,2.4c1.6,1.6,2.4,3.5,2.4,5.7c0,2.3-0.8,4.2-2.5,5.8
						c-1.6,1.6-3.6,2.4-5.9,2.4c-2.3,0-4.3-0.8-5.9-2.4c-1.6-1.6-2.5-3.5-2.5-5.8c0-2.3,0.8-4.2,2.5-5.8
						C1339.7,778.1,1341.7,777.4,1344.1,777.4z M1344,782.5c-0.8,0-1.5,0.3-2.1,0.9c-0.6,0.6-0.9,1.3-0.9,2.2c0,0.8,0.3,1.6,0.9,2.2
						c0.6,0.6,1.3,0.9,2.1,0.9c0.8,0,1.5-0.3,2.1-0.9c0.6-0.6,0.9-1.3,0.9-2.2c0-0.8-0.3-1.6-0.9-2.2
						C1345.5,782.8,1344.8,782.5,1344,782.5z"/>
				</g>
			</g>
			<g>
				<g>
					<path fill="#FFFFFF" d="M1367.8,793.6h-5.4l0-8.8c0-0.9-0.6-2.1-1.8-2.1c-1.4,0-2,1.2-2,2.1l0,8.8h-5.4v-8.8
						c0-2.1,0.7-3.8,2.1-5.2c1.4-1.4,3.1-2.1,5.2-2.1c2.3,0,4.2,0.8,5.6,2.5c1.1,1.3,1.6,3.1,1.6,5.4V793.6z"/>
				</g>
			</g>
			<g>
				<rect x="1369.4" y="778.1" fill="#FFFFFF" width="5.4" height="15.5"/>
			</g>
			<path fill="#FFFFFF" d="M1407.3,791.3h-2h-0.3c-0.5,0-0.9-0.2-1.2-0.5c-0.3-0.3-0.5-0.7-0.5-1.2v-0.4v-1.9v-10h-2.5v13.1
				c0,0.9,0.3,1.7,0.9,2.3c0.6,0.6,1.4,0.9,2.4,0.9h7.4v-2.3H1407.3z"/>
			<path fill="#FFFFFF" d="M1439.4,784.7c0.7-0.8,1.1-1.8,1.1-2.9c0-2.4-2-4.4-4.4-4.4c0,0,0,0-0.1,0l0,0h-6.8v16.2h6.8
				c0,0,0.2,0,0.3,0c2.8,0,5-2.3,5-5C1441.3,787,1440.6,785.6,1439.4,784.7z M1431.8,779.8h4.1c0,0,0.1,0,0.1,0
				c1.1,0,2.1,0.9,2.1,2.1c0,1.1-0.9,2.1-2.1,2.1c-0.1,0-0.1,0-0.2,0h-4.1V779.8z M1436.3,791.3
				C1436.3,791.3,1436.2,791.3,1436.3,791.3h-4.5v-5.4h4.4c0,0,0,0,0,0c1.5,0,2.7,1.2,2.7,2.7C1439,790.1,1437.8,791.3,1436.3,791.3
				z"/>
			<g>
				<path fill="#FFFFFF" d="M1385.7,782.7v-5.3h-1.3c-2.3,0-4.2,0.8-5.8,2.3c-1.6,1.6-2.4,3.5-2.4,5.7c0,2.4,0.8,4.3,2.4,6
					c1.4,1.4,2.8,2,4.7,2.1c0.3,0,0.6,0,0.9,0c0.4,0,1.1,0,1.6,0v-0.1v-5.2v-0.2l-1,0c-0.1,0-0.2,0-0.2,0c0,0-0.1,0-0.1,0
					c-0.3,0-0.7-0.1-0.9-0.2c-1.1-0.4-1.8-1.4-1.8-2.6c0-1.5,1.2-2.7,2.8-2.7c0.1,0,0.3,0,0.4,0c0.1,0,0.2,0,0.2,0
					C1385.7,782.7,1384.9,782.7,1385.7,782.7z"/>
			</g>
			<g>
				<path fill="#FFFFFF" d="M1397,777.4c-2.1,0-3.5,1-4.7,2.1c-0.7,0.6-1.1,1.6-1.3,2.2c-0.2,0.7-0.4,1.8-0.5,3.4
					c-0.1,1-0.4,2-0.8,2.4c-0.3,0.3-0.9,0.5-1.7,0.6h-0.2h-0.7v5.4l0.9,0l1.2,0l0,0h0.5c1.1,0,1.8-0.1,2.6-0.6
					c2.1-1.3,3.3-2.9,3.6-6c0.1-0.9,0.2-2.2,0.4-2.6c0.6-1.3,1.6-1.7,2.4-1.7v-5.3H1397z"/>
			</g>
			<g>
				<polygon fill="#FFFFFF" points="1316.8,772 1314.3,772 1311.3,772 1311.3,777.4 1314.6,777.4 1316.8,777.4 1316.8,793.7 
					1322.2,793.7 1322.2,777.4 1327.6,777.4 1327.6,772 				"/>
			</g>
			<g>
				<rect x="1304.8" y="778.1" fill="#FFFFFF" width="5.4" height="15.5"/>
			</g>
			<g>
				<g>
					<path fill="#FFFFFF" d="M1302.5,784.2c-0.6-0.9-1.6-1.4-2.8-1.7c1-0.4,1.7-1,2.2-1.8c0.5-0.8,0.7-1.7,0.7-2.7
						c0-2-0.7-3.4-2.2-4.4c-1.5-1-3.6-1.5-6.2-1.5h-7v21.5h8.2c2.6,0,4.6-0.5,6-1.6c1.4-1.1,2.1-2.7,2.1-4.8
						C1303.4,786.1,1303.1,785.1,1302.5,784.2z M1297.2,789.1c-0.5,0.4-1.3,0.6-2.4,0.6h-2.3v-5.4h2.4h0.2c1.1,0,1.8,0.3,2.3,0.8
						c0.5,0.5,0.7,1.2,0.7,2.1C1298,788.1,1297.7,788.7,1297.2,789.1z M1296.3,780.4c-0.6,0.4-1.5,0.6-2.7,0.6h-1.1V776h1.2
						c1.2,0,2.1,0.2,2.6,0.6c0.6,0.4,0.9,1.1,0.9,2C1297.2,779.4,1296.9,780,1296.3,780.4z"/>
				</g>
			</g>
			<g>
				<circle fill="#FFFFFF" cx="1372.1" cy="774.2" r="2.7"/>
			</g>
			<g>
				<circle fill="#FFFFFF" cx="1307.5" cy="774.2" r="2.7"/>
			</g>
		</g>
	</g>
</g>
</svg>
