<?xml version="1.0" encoding="utf-8"?>
<!-- Generator: Adobe Illustrator 17.1.0, SVG Export Plug-In . SVG Version: 6.00 Build 0)  -->
<!DOCTYPE svg PUBLIC "-//W3C//DTD SVG 1.1//EN" "http://www.w3.org/Graphics/SVG/1.1/DTD/svg11.dtd">
<svg version="1.1" id="Layer_1" xmlns="http://www.w3.org/2000/svg" xmlns:xlink="http://www.w3.org/1999/xlink" x="0px" y="0px"
	 width="1920px" height="941.2px" viewBox="0 0 1920 941.2" enable-background="new 0 0 1920 941.2" xml:space="preserve">
<pattern  x="539.5" y="-116.3" width="29" height="29" patternUnits="userSpaceOnUse" id="New_Pattern_Swatch_53" viewBox="0 -29 29 29" overflow="visible">
	<g>
		<polygon fill="none" points="0,0 29,0 29,-29 0,-29 		"/>
		<polygon fill="#FCB28D" points="29,0 0,0 0,-29 29,-29 		"/>
	</g>
</pattern>
<path id="XMLID_87_" fill="#7A513F" d="M1314.6,849.1c0-0.2-0.1-0.4-0.1-0.7c0.2,0.1,0.3,0.3,0.5,0.4L1314.6,849.1z"/>
<g id="Гора">
	<path id="XMLID_90_" fill="#5A5CA8" d="M24.6,598.9c0,0,285.1-34.4,568.5-196.9h51l17-23.8l241.3-119.4L1920,685.7l-96.4,204.2
		H193.7L24.6,598.9z"/>
	<polygon id="XMLID_88_" fill="#9AA2D8" points="644,402 580.6,464.2 620.2,402 	"/>
	<polygon fill="#9AA2D8" points="902.4,258.8 950.8,344.5 893.2,344.5 1015.4,594.7 835.5,724 1174.3,573.6 1598.7,549.7 	"/>
</g>
<path fill="#FFFFFF" d="M1247,529.7H826c-6.6,0-12-5.4-12-12v-41c0-6.6,5.4-12,12-12h421c6.6,0,12,5.4,12,12v41
	C1259,524.3,1253.6,529.7,1247,529.7z"/>
<path fill="#FA4614" d="M1041,443.7H818c-6.6,0-12-5.4-12-12v-75c0-6.6,5.4-12,12-12h223c6.6,0,12,5.4,12,12v75
	C1053,438.3,1047.6,443.7,1041,443.7z"/>
<path id="Лес" fill="#2B286D" d="M1806.4,678.2C1806.4,678.1,1806.4,678.1,1806.4,678.2c0-2.5-1.3-4.6-2.7-6.6
	c-1.6-2.1-2.6-4.4-4-6.6c-1.5-2.5-3.2-4.7-3.6-7.8c3.1-3.1,6.2,8.6,10.7,3.5c0.8-0.9,0.7-2.4,0-3.3c-4.5-5.7-7.2-12.4-8.8-19.4
	c-0.7-3-1.1-6.1-1.5-9.1c-0.2-1.2,0-7.8-2.8-6c-0.8,0.5-1.1,1.6-1.3,2.6c-1.1,5.1-2.2,10.2-3.5,15.3c-1,4-1.5,9.5-4.1,12.9
	c-1.4,1.8-3.1,3.3-2.9,5.8c0,0.2,0,0.4,0.1,0.6c0.2,0.3,0.5,0.4,0.8,0.5c2.9,1,4.9-1.2,6.8-3.2c0.2-0.3,0.5-0.5,0.8-0.7
	c0.3-0.1,0.7-0.1,1,0.1c0.6,0.7,0.1,2.7,0,3.4c-0.4,2.6-1.6,5-3.1,7.1c-2.5,3.4-5.7,6.2-7.6,10c-0.1,0.3-0.3,0.5-0.4,0.8h-14.6
	L1504,778.5c-1.7-3.6-4.7-6.4-7.1-9.5c-1.4-1.8-2.7-3.8-3.2-6.1c-0.1-0.6-0.8-2.7-0.5-3.2c0.8-1.2,2,0.3,2.4,1
	c0.6,1.1,1.3,2.2,2.1,3.2c0.6,0.8,1.2,1.6,2,2.1c0.8,0.5,1.9,0.8,2.8,0.4c1.2-0.5,1.7-2,1.8-3.3c0.1-2.1-0.7-4.1-1.9-5.8
	c-1.1-1.7-2.6-3.2-3.9-4.7c-1-1.1-2-2.3-2.9-3.4c-1-1.3-5.1-9.1-2-10.2c0.7-0.3,1.6,0.1,2.2,0.7c0.6,0.5,1,1.2,1.5,1.8
	c1.2,1.4,3.1,2.2,4.9,2.1c0.5,0,0.9-0.1,1.3-0.4c0.6-0.4,0.8-1.3,0.8-2c0-2.4-1.3-4.6-2.7-6.5c-1.6-2.1-2.6-4.4-4-6.6
	c-1.5-2.5-3.2-4.7-3.6-7.8c3.1-3.1,6.2,8.6,10.7,3.5c0.8-0.9,0.7-2.4,0-3.3c-4.5-5.7-7.2-12.4-8.8-19.4c-0.7-3-1.1-6.1-1.5-9.1
	c-0.2-1.2,0-7.8-2.8-6c-0.8,0.5-1.1,1.6-1.3,2.6c-1.1,5.1-2.2,10.2-3.5,15.3c-1,4-1.5,9.5-4.1,12.9c-1.4,1.8-3.1,3.3-2.9,5.8
	c0,0.2,0,0.4,0.1,0.6c0.2,0.3,0.5,0.4,0.8,0.5c2.9,1,4.9-1.2,6.8-3.2c0.2-0.3,0.5-0.5,0.8-0.7c0.3-0.1,0.7-0.1,1,0.1
	c0.6,0.7,0.1,2.7,0,3.4c-0.4,2.6-1.6,5-3.1,7.1c-2.5,3.4-5.7,6.2-7.6,10c-0.4,0.8-0.7,1.6-0.7,2.5c0.1,1.6,1.7,2.6,3.2,2.7
	c2,0.1,3.1-1.4,3.8-3.2c0.4-1.1,0.9-2.4,2-3c0.3-0.1,0.7-0.2,0.8,0c0.1,0.1,0.1,0.2,0.1,0.4c0.2,2.5-0.3,4.9-1.3,7.2
	c-1,2.3-2.7,3.7-4.5,5.5c-1,0.9-1.9,1.9-2.6,3.1c-0.5,0.9-0.8,1.8-0.7,2.8c0.1,1,0.7,1.9,1.6,2.3c1.2,0.5,2.7-0.2,3.6-1.2
	c0.5-0.5,3.1-4.8,4.1-3.1c0.3,0.6-0.4,2.9-0.5,3.6c-0.5,2.6-1.3,5.1-2.3,7.5l-5.3-5.4h-44.9l0,0.4l-173.3,0.6l0-0.4h-0.1l-45.1,45.9
	c-0.3,0.3-0.7,0.2-0.9,0c-0.7-0.9-1.5-1.7-2.2-2.4c-3-3.1-5.2-7.1-6.3-11.3c1.4,1.8,3,3.4,4.8,4.7c1.3,1,2.7,0.8,3.2-0.9
	c0.2-0.7,0.2-1.5,0.1-2.3c-0.2-1.6-0.4-3.3-1.1-4.8c-1.1-2.6-3.3-4.5-5.1-6.7c-1.8-2.2-3.3-4.9-2.7-7.7c0.1-0.4,0.3-0.9,0.7-1.1
	c0.6-0.3,1.4,0.2,1.7,0.8c0.8,1.3,0.8,2.3,2.5,1.8c1.2-0.4,2-1.8,2-3c0-1-0.6-1.9-1.1-2.8c-2.6-4.6-7.7-8.7-6.9-14.6
	c0.1-0.4,0.2-0.9,0.5-1.1c0.8-0.7,1.9,0.2,2.5,1.1c0.6,0.9,1.4,1.9,2.4,1.5c0.9-0.4,0.9-1.7,0.7-2.7c-1.1-4.4-3.9-8.2-5.7-12.4
	c-0.5-1.1-0.9-2.2-0.8-3.4c0-0.2,0.1-0.4,0.2-0.6c0.3-0.4,1-0.4,1.4,0c0.9,0.8,1,2.5,2.5,2.7c1.1,0.1,2.1-0.7,2.3-1.7
	c0.5-2-0.7-3.6-1.7-5.2c-5.6-9.1-5.6-21.1-9-31.1c-0.1-0.4-0.3-0.8-0.6-1c-0.6-0.5-1.6,0-2,0.8c-0.3,0.7-0.2,1.6-0.1,2.4
	c0.8,6.9-0.5,13.8-1.7,20.6c-0.5,2.6-1,5.2-1.8,7.7c-1.3,3.7-3.4,7-4.7,10.7c-0.4,1.1,0,2.3,1,2.9c2.2,1.2,3.7-2.5,5.9-2.4
	c3.5,0.1,0.7,4.9,0.1,6.2c-1.5,3.1-4,6.1-4.1,9.7c0,0.5,0,1,0.3,1.5c1.8,2.9,4.4-1.8,5.2-2.9c0.4-0.5,1.1-0.9,1.7-0.6
	c0.5,0.3,0.5,1.1,0.5,1.7c-0.7,7.3-8.1,11.7-10.1,18.7c-0.2,0.9-0.4,1.8,0,2.6c0.9,1.9,3.8,1.4,5.2-0.1c1-1,1.7-2.4,2.7-3.4
	c1.1-1,3-1.6,2.5,0.8c-0.2,0.8-0.7,1.5-1.3,2.1c-1.6,1.8-3.2,3.6-4.9,5.2c-0.9,0.8-1.8,1.7-2.5,2.7c-0.9,1.2-1.4,2.7-1.8,4.1
	c-0.4,1.3-0.8,2.9,0.3,3.8c0.6,0.5,1.6,0.6,2.3,0.2c0.8-0.3,1.3-1,1.9-1.6c0.9-1.1,1.7-2.2,2.3-3.4c0.4-0.3,1,0,1.2,0.5
	c0.2,0.4,0.2,1,0.1,1.5c-0.6,4-2.5,5.9-5.3,8.4c-3,2.8-6.6,5.7-7,9.8c0,0.5,0,1,0.1,1.4c0.1,0.4-0.2,0.8-0.6,0.8H971.1
	c0-0.2,0-0.3,0-0.5c0-2.4-1.3-4.6-2.7-6.5c-1.6-2.1-2.6-4.4-4-6.6c-1.5-2.4-3.1-4.5-3.5-7.4c0-0.2,0-0.5,0.2-0.6
	c2.7-1.9,5.5,6.8,9.2,4.8c1.7-0.9,2-3.2,0.8-4.7c-4.3-5.6-6.9-12.2-8.5-19c-0.7-3-1.1-6.1-1.5-9.1c-0.2-1.2,0-7.8-2.8-6
	c-0.8,0.6-1.1,1.6-1.3,2.6c-1.1,5.1-2.2,10.2-3.5,15.3c-1,4-1.5,9.5-4.1,12.9c-1.4,1.8-3.1,3.3-2.9,5.8c0,0.2,0,0.4,0.1,0.6
	c0.2,0.3,0.5,0.4,0.8,0.5c2.9,1,4.9-1.2,6.8-3.2c0.2-0.3,0.5-0.5,0.8-0.7c0.3-0.1,0.7-0.1,1,0.1c0.6,0.7,0.1,2.7,0,3.4
	c-0.4,2.6-1.6,5-3.1,7.1c-2.5,3.4-5.7,6.2-7.6,10c-0.4,0.8-0.7,1.6-0.7,2.5c0.1,1.6,1.7,2.6,3.2,2.7c2,0.1,3.1-1.4,3.8-3.2
	c0.4-1.1,0.9-2.4,2-3c0.3-0.1,0.7-0.2,0.8,0c0.1,0.1,0.1,0.2,0.1,0.4c0.1,2-0.2,4-0.8,5.9c-0.1,0.2-0.2,0.3-0.4,0.4l-17.5,6.4
	c0,0,0,0,0-0.1c-1.1-4.9-5.1-8.5-8.1-12.3c-1.4-1.8-2.7-3.8-3.2-6.1c-0.1-0.6-0.8-2.7-0.5-3.2c0.8-1.2,2,0.3,2.4,1
	c0.6,1.1,1.3,2.2,2.1,3.2c0.6,0.8,1.2,1.6,2,2.1c0.8,0.5,1.9,0.8,2.8,0.4c1.2-0.5,1.7-2,1.8-3.3c0.1-2.1-0.7-4.1-1.9-5.8
	s-2.6-3.2-3.9-4.7c-1-1.1-2-2.3-2.9-3.4c-1-1.3-5.1-9.1-2-10.2c0.7-0.3,1.6,0.1,2.2,0.7c0.6,0.5,1,1.2,1.5,1.8
	c1.2,1.4,3.1,2.2,4.9,2.1c0.5,0,0.9-0.1,1.3-0.4c0.6-0.4,0.8-1.3,0.8-2c0-2.4-1.3-4.6-2.7-6.5c-1.6-2.1-2.6-4.4-4-6.6
	c-1.5-2.4-3.1-4.5-3.5-7.4c0-0.2,0-0.5,0.2-0.6c2.7-1.9,5.5,6.8,9.2,4.8c1.7-0.9,2-3.2,0.8-4.7c-4.3-5.6-6.9-12.2-8.5-19
	c-0.7-3-1.1-6.1-1.5-9.1c-0.2-1.2,0-7.8-2.8-6c-0.8,0.6-1.1,1.6-1.3,2.6c-1.1,5.1-2.2,10.2-3.5,15.3c-1,4-1.5,9.5-4.1,12.9
	c-1.4,1.8-3.1,3.3-2.9,5.8c0,0.2,0,0.4,0.1,0.6c0.2,0.3,0.5,0.4,0.8,0.5c2.9,1,4.9-1.2,6.8-3.2c0.2-0.3,0.5-0.5,0.8-0.7
	c0.3-0.1,0.7-0.1,1,0.1c0.6,0.7,0.1,2.7,0,3.4c-0.4,2.6-1.6,5-3.1,7.1c-2.5,3.4-5.7,6.2-7.6,10c-0.4,0.8-0.7,1.6-0.7,2.5
	c0.1,1.6,1.7,2.6,3.2,2.7c2,0.1,3.1-1.4,3.8-3.2c0.4-1.1,0.9-2.4,2-3c0.3-0.1,0.7-0.2,0.8,0c0.1,0.1,0.1,0.2,0.1,0.4
	c0.2,2.5-0.3,4.9-1.3,7.2c-1,2.3-2.7,3.7-4.5,5.5c-1,0.9-1.9,1.9-2.6,3.1c-0.5,0.9-0.8,1.8-0.7,2.8c0.1,1,0.7,1.9,1.6,2.3
	c1.2,0.5,2.7-0.2,3.6-1.2c0.5-0.5,3.1-4.8,4.1-3.1c0.3,0.6-0.4,2.9-0.5,3.6c-0.5,2.3-1.1,4.6-2,6.7c-1.8,4.4-4.4,8.5-7.7,11.9
	c-1.4,1.5-3.1,3.1-3,5.2c0.1,2.7,3.5,4,5.8,3.3c3.2-0.9,3.1-4.3,5.4-6c0.2-0.1,0.4-0.2,0.6-0.2c0.5,0.1,0.5,0.7,0.4,1.2
	c-0.3,2.1-0.9,4.1-1.6,6c-0.1,0.2-0.2,0.3-0.4,0.4l-28.1,10.2c-0.2,0.1-0.5,0-0.7-0.2c-0.6-0.6-1.1-1.3-1.7-2c-1-1.3-5.1-9.1-2-10.2
	c0.7-0.3,1.6,0.1,2.2,0.7c0.6,0.5,1,1.2,1.5,1.8c1.2,1.4,3.1,2.2,4.9,2.1c0.5,0,0.9-0.1,1.3-0.4c0.6-0.4,0.8-1.3,0.8-2
	c0-2.4-1.3-4.6-2.7-6.5c-1.6-2.1-2.6-4.4-4-6.6c-1.5-2.4-3.1-4.5-3.5-7.4c0-0.2,0-0.5,0.2-0.6c2.7-1.9,5.5,6.8,9.2,4.8
	c1.7-0.9,2-3.2,0.8-4.7c-4.3-5.6-6.9-12.2-8.5-19c-0.7-3-1.1-6.1-1.5-9.1c-0.2-1.2,0-7.8-2.8-6c-0.8,0.5-1.1,1.6-1.3,2.6
	c-1.1,5.1-2.2,10.2-3.5,15.3c-1,4-1.5,9.5-4.1,12.9c-1.4,1.8-3.1,3.3-2.9,5.8c0,0.2,0,0.4,0.1,0.6c0.2,0.3,0.5,0.4,0.8,0.5
	c2.9,1,4.9-1.2,6.8-3.2c0.2-0.3,0.5-0.5,0.8-0.7c0.3-0.1,0.7-0.1,1,0.1c0.6,0.7,0.1,2.7,0,3.4c-0.4,2.6-1.6,5-3.1,7.1
	c-2.5,3.4-5.7,6.2-7.6,10c-0.4,0.8-0.7,1.6-0.7,2.5c0.1,1.6,1.7,2.6,3.2,2.7c2,0.1,3.1-1.4,3.8-3.2c0.4-1.1,0.9-2.4,2-3
	c0.3-0.1,0.7-0.2,0.8,0c0.1,0.1,0.1,0.2,0.1,0.4c0.2,2.5-0.3,4.9-1.3,7.2c-1,2.3-2.7,3.7-4.5,5.5c-1,0.9-1.9,1.9-2.6,3.1
	c-0.4,0.7-0.7,1.5-0.7,2.3c0,0.3-0.2,0.5-0.4,0.6l-16.4,6c-0.1,0-0.1,0-0.2,0h-13.6l-53,1.8c-0.1,0-0.2,0-0.2,0L435.7,701.6
	c-3-3.7-6.8-7.8-6-12.6c3.3,0.3,4.1,6.2,7.5,5.8c1.7-0.2,2.9-1.9,2.8-3.7c-0.4-6-5.1-9.9-8.4-14.2c-1.4-1.8-2.7-3.8-3.2-6.1
	c-0.1-0.6-0.8-2.7-0.5-3.2c0.8-1.2,2,0.3,2.4,1c0.6,1.1,1.3,2.2,2.1,3.2c0.6,0.8,1.2,1.6,2,2.1c0.8,0.5,1.9,0.8,2.8,0.4
	c1.2-0.5,1.7-2,1.8-3.3c0.1-2.1-0.7-4.1-1.9-5.8c-1.1-1.7-2.6-3.2-3.9-4.7c-1-1.1-2-2.3-2.9-3.4c-1-1.3-5.1-9.1-2-10.2
	c0.7-0.3,1.6,0.1,2.2,0.7c0.6,0.5,1,1.2,1.5,1.8c1.2,1.4,3.1,2.2,4.9,2.1c0.5,0,0.9-0.1,1.3-0.4c0.6-0.4,0.8-1.3,0.8-2
	c0-2.4-1.3-4.6-2.7-6.5c-1.6-2.1-2.6-4.4-4-6.6c-1.5-2.5-3.2-4.7-3.6-7.8c2.8-2.8,5.7,6.6,9.5,4.5c1.7-0.9,2-3.2,0.8-4.7
	c-4.3-5.6-6.9-12.2-8.5-19c-0.7-3-1.1-6.1-1.5-9.1c-0.2-1.2,0-7.8-2.8-6c-0.8,0.5-1.1,1.6-1.3,2.6c-1.1,5.1-2.2,10.2-3.5,15.3
	c-1,4-1.5,9.5-4.1,12.9c-1.4,1.8-3.1,3.3-2.9,5.8c0,0.2,0,0.4,0.1,0.6c0.2,0.3,0.5,0.4,0.8,0.5c2.9,1,4.9-1.2,6.8-3.2
	c0.2-0.3,0.5-0.5,0.8-0.7c0.3-0.1,0.7-0.1,1,0.1c0.6,0.7,0.1,2.7,0,3.4c-0.4,2.6-1.6,5-3.1,7.1c-2.5,3.4-5.7,6.2-7.6,10
	c-0.4,0.8-0.7,1.6-0.7,2.5c0.1,1.6,1.7,2.6,3.2,2.7c2,0.1,3.1-1.4,3.8-3.2c0.4-1.1,0.9-2.4,2-3c0.3-0.1,0.7-0.2,0.8,0
	c0.1,0.1,0.1,0.2,0.1,0.4c0.2,2.5-0.3,4.9-1.3,7.2c-1,2.3-2.7,3.7-4.5,5.5c-1,0.9-1.9,1.9-2.6,3.1c-0.5,0.9-0.8,1.8-0.7,2.8
	c0.1,1,0.7,1.9,1.6,2.3c1.2,0.5,2.7-0.2,3.6-1.2c0.5-0.5,3.1-4.8,4.1-3.1c0.3,0.6-0.4,2.9-0.5,3.6c-0.5,2.3-1.1,4.6-2,6.7
	c-1.8,4.4-4.4,8.5-7.7,11.9c-0.8,0.8-1.7,1.7-2.3,2.8l-22.2-10.4c-0.3-1.2-0.1-2.1,1.2-2.1c0.4,0,0.7,0.2,1,0.5
	c0.7,0.7,1.2,1.6,1.8,2.3c0.7,0.7,1.7,1.2,2.6,0.8c1.2-0.6,1.2-2.4,0.7-3.7c-0.9-2.8-2.4-5.3-4.2-7.6c-1.7-2-4.5-4.2-3.6-7.2
	c0.1-0.4,0.3-0.8,0.6-1c0.5-0.4,1.3-0.3,1.9,0c0.6,0.3,1,0.9,1.4,1.4c0.6,0.8,3.2,5.1,4.4,2.7c0.2-0.3,0.2-0.7,0.1-1.1
	c-0.2-3.4-1.3-6.8-3.2-9.6c-1.7-2.6-4.1-4.8-5.3-7.7c-0.7-1.7-0.8-4.8,1.6-4.9c2,0,3.4,2.4,4.9,3.3c1.2,0.7,3.2,0.6,3.6-0.8
	c0.2-0.5,0-1.1-0.1-1.7c-0.9-3.1-2.6-6.2-4.9-8.5c-2.2-2.2-4-3.5-5.3-6.6c-0.5-1.2-0.7-2.8,0.3-3.5c0.8-0.5,1.9-0.2,2.6,0.5
	c0.7,0.6,1.2,1.5,1.9,2.2c0.7,0.7,1.8,1,2.6,0.5c0.6-0.4,0.9-1.3,0.7-2.1c-0.1-0.8-0.5-1.4-0.9-2.1c-1.3-2.2-2.8-4.2-4.1-6.4
	c-1-1.7-2.8-3.8-3-5.7c-0.1-0.7,0-1.5,0.7-1.8c0.4-0.2,1,0,1.4,0.3c0.4,0.3,0.7,0.7,1,1c0.7,0.7,1.6,1.2,2.6,1.3
	c0.6,0.1,1.4,0,1.8-0.5c0.4-0.4,0.4-1,0.4-1.6c-0.2-2.3-2-4-3.6-5.6c-1-1-6.2-7.4-3.8-8.8c1.8-1,4.3,4.9,6.2,2.5
	c0.5-0.7,0.5-1.7,0.2-2.5c-0.3-0.9-0.9-1.7-1.6-2.3c-0.9-0.7-2-1.2-3-1.8c-1.3-0.8-4.4-5.1-2.1-6.2c1.8-0.8,3,1.8,4.3,2.5
	c0.4,0.2,1.1,0.3,1.4-0.1c0,0,0,0,0.1-0.1c0.1-0.2,0.1-0.4,0.1-0.6c0.2-2.8-1.2-5.5-2.8-7.8c-1.5-2.4-3.2-4.8-3.7-7.5
	c-0.1-0.5-0.1-1,0.1-1.4c0.2-0.4,0.7-0.8,1.1-0.7c0.7,0.2,0.3,1.6,1,2.1c0.6,0.5,1.7,0.4,2.3,0c1-0.7,1.3-2.2,0.9-3.4
	c-0.3-1.2-1.1-2.2-1.8-3.2c-2.2-3.2-3.8-7-4.5-10.9c-0.7-3.8-0.2-7.4-0.2-11.2c0-1,0.2-6.1-1.5-6c-1.6,0.1-1.7,4.5-1.7,5.6
	c-0.5,8.5-1.2,17.7-6.6,24.3c-0.7,0.9-1.5,1.7-1.6,2.8c-0.1,1.1,0.4,2.2,1.4,2.7c0.9,0.5,2.2,0.3,2.9-0.5c0.5-0.5,1.1-1.8,2-1
	c0.4,0.4,0.4,0.9,0.5,1.4c0.3,4.8-2.9,9.3-5.3,13c-1.2,1.8-2.3,3.8-2.9,6c-0.3,1.1-0.6,2.2-0.3,3.3c0.3,1.1,1.1,2.1,2.2,2.1
	c1.8,0.1,2.1-1.6,3.4-2.3c0.7-0.4,1.6-0.3,2.1,0.2c0.3,0.4,0.4,0.9,0.4,1.5c-0.1,2.6-2.4,4.5-4.3,6.3c-2.1,2.2-3.8,4.8-4.9,7.7
	c-0.3,0.8-0.6,1.7-0.5,2.6c0,0.9,0.4,1.8,1.1,2.3c1.1,0.8,2.7,0.3,3.7-0.6c1-0.9,1.6-2.3,2.2-3.5c0.4-0.7,0.9-1.4,1.7-1.6
	c3-0.7,0.9,4.6,0.2,5.4c-3.6,4.8-8.6,9.5-8.3,15.6c0.1,1,0.3,2.1,1.2,2.5c1.3,0.6,2.6-0.7,3.4-1.9c0.5-0.7,4-7.9,4.4-4.2
	c0.4,3.6-2.2,5.2-4.2,7.6c-2.5,3-4.2,6.6-5.1,10.5c-0.3,1.2,0.3,2.5,1.5,2.8c1.9,0.5,2.6-2.2,3.8-3.1c1.3-1.1,3.2-0.5,3.5,1.3
	c0.2,1.1-0.2,2.2-0.7,3.1c-2.2,4-6.8,6.4-8.3,10.6c-0.4,1.2-0.5,2.7,0.5,3.4c1.6,1.2,3.2-0.9,4.3-1.9c0.4-0.3,0.8-0.7,1.2-0.7
	c0.5,0,0.9,0.5,1.1,1c0.1,0.5,0,1.1-0.1,1.6c-1.2,3.8-4.2,5.8-6.6,8.5L146.4,597l0,0l-8.3-3.9l0-0.2l-34.8-17.2l-5.1-2.4
	c-1.1-1.3-2.2-2.5-3.1-3.8c-1.4-1.8-2.7-3.8-3.2-6.1c-0.1-0.6-0.8-2.7-0.5-3.2c0.8-1.2,2,0.3,2.4,1c0.6,1.1,1.3,2.2,2.1,3.2
	c0.6,0.8,1.2,1.6,2,2.1c0.8,0.5,1.9,0.8,2.8,0.4c1.2-0.5,1.7-2,1.8-3.3c0.1-2.1-0.7-4.1-1.9-5.8c-1.1-1.7-2.6-3.2-3.9-4.7
	c-1-1.1-2-2.3-2.9-3.4c-1-1.3-5.1-9.1-2-10.2c0.7-0.3,1.6,0.1,2.2,0.7c0.6,0.5,1,1.2,1.5,1.8c1.2,1.4,3.1,2.2,4.9,2.1
	c0.5,0,0.9-0.1,1.3-0.4c0.6-0.4,0.8-1.3,0.8-2c0-2.4-1.3-4.6-2.7-6.5c-1.6-2.1-2.6-4.4-4-6.6c-1.5-2.5-3.2-4.7-3.6-7.8
	c2.8-2.8,5.7,6.6,9.5,4.5c1.7-0.9,2-3.2,0.8-4.7c-4.3-5.6-6.9-12.2-8.5-19c-0.7-3-1.1-6.1-1.5-9.1c-0.2-1.2,0-7.8-2.8-6
	c-0.8,0.5-1.1,1.6-1.3,2.6c-1.1,5.1-2.2,10.2-3.5,15.3c-1,4-1.5,9.5-4.1,12.9c-1.4,1.8-3.1,3.3-2.9,5.8c0,0.2,0,0.4,0.1,0.6
	c0.2,0.3,0.5,0.4,0.8,0.5c2.9,1,4.9-1.2,6.8-3.2c0.2-0.3,0.5-0.5,0.8-0.7c0.3-0.1,0.7-0.1,1,0.1c0.6,0.7,0.1,2.7,0,3.4
	c-0.4,2.6-1.6,5-3.1,7.1c-2.5,3.4-5.7,6.2-7.6,10c-0.4,0.8-0.7,1.6-0.7,2.5c0.1,1.6,1.7,2.6,3.2,2.7c2,0.1,3.1-1.4,3.8-3.2
	c0.4-1.1,0.9-2.4,2-3c0.3-0.1,0.7-0.2,0.8,0c0.1,0.1,0.1,0.2,0.1,0.4c0.2,2.5-0.3,4.9-1.3,7.2c-1,2.3-2.7,3.7-4.5,5.5
	c-1,0.9-1.9,1.9-2.6,3.1c-0.5,0.9-0.8,1.8-0.7,2.8c0.1,1,0.7,1.9,1.6,2.3c1.2,0.5,2.7-0.2,3.6-1.2c0.5-0.5,3.1-4.8,4.1-3.1
	c0.3,0.6-0.4,2.9-0.5,3.6c-0.4,2-1,3.9-1.7,5.8l-18.2-8.5L0,527.4v413.3l1920,1V678L1806.4,678.2z M420.6,689.2
	c0.2-0.1,0.4-0.2,0.6-0.2c0.5,0.1,0.5,0.7,0.4,1.2c-0.2,1.4-0.6,2.9-1,4.3l-2.8-1.3C418.7,691.9,419.2,690.3,420.6,689.2z
	 M926,830.6c-0.2-0.8-0.2-1.6-0.2-2.4c0-0.4,0.5-0.7,0.8-0.5c0.8,0.3,1.5,1,2.1,1.8c0.3,0.3,0.1,0.9-0.3,1l-1.7,0.6
	C926.5,831.2,926.1,831,926,830.6z M960.5,818.8c-0.4,0.1-0.7-0.1-0.8-0.5c-0.5-1.9-0.5-3.6,0.8-4.1c0.7-0.3,1.6,0.1,2.2,0.7
	c0.6,0.5,1,1.2,1.5,1.8c0.2,0.2,0.4,0.3,0.5,0.5L960.5,818.8z M1195.6,816.8c-0.1,0.1-0.3,0.2-0.4,0.2h-4.7c0.8-0.6,1.5-1.5,2-2.3
	c1.4-2.3,3.9-4.9,6-3.8c0.2,0.1,0.3,0.4,0.3,0.6C1198.5,813.6,1197.2,815.3,1195.6,816.8z M1208,816.9h-0.5
	c-0.4-1.1-0.7-2.2-0.8-3.4c0.8,0.7,1.7,1.5,2.6,2.1L1208,816.9z M1787.5,678.2c0.4-0.8,0.8-1.5,1.5-1.8c0.3-0.1,0.7-0.2,0.8,0
	c0.1,0.1,0.1,0.2,0.1,0.4c0,0.5,0,1,0,1.4H1787.5z M1794.6,678.2c0-1.1,0.2-1.9,1.1-2.2c0.7-0.3,1.6,0.1,2.2,0.7
	c0.5,0.5,0.9,1,1.3,1.6H1794.6z"/>
<g id="Флажки_-_стадии">
	<g id="Звезды">
		<polygon fill="#FBFFAE" points="940.9,198.7 942.6,206.6 950.6,208.4 942.6,210.2 940.9,218.1 939.1,210.2 931.2,208.4 
			939.1,206.6 		"/>
		<polygon fill="#FBFFAE" points="850.9,218.1 853.8,230.7 866.4,233.6 853.8,236.4 850.9,249.1 848.1,236.4 835.4,233.6 
			848.1,230.7 		"/>
		<polygon fill="#FBFFAE" points="892.6,153.3 897.3,174.2 918.1,178.9 897.3,183.5 892.6,204.4 887.9,183.5 867.1,178.9 
			887.9,174.2 		"/>
		<polygon fill="#FBFFAE" points="950.6,177.8 951.6,182.5 956.3,183.6 951.6,184.6 950.6,189.3 949.5,184.6 944.8,183.6 
			949.5,182.5 		"/>
	</g>
	<g>
		
			<line fill="none" stroke="#1A3954" stroke-width="1.6596" stroke-linecap="round" stroke-linejoin="round" stroke-miterlimit="10" x1="902.5" y1="259.1" x2="902.5" y2="219.6"/>
		<polygon fill="#FA4614" points="927.9,236 900.7,236 900.7,220.9 927.9,220.9 920.3,228.4 		"/>
	</g>
	<g>
		
			<line fill="none" stroke="#1A3954" stroke-width="1.6596" stroke-linecap="round" stroke-linejoin="round" stroke-miterlimit="10" x1="1041.6" y1="344.8" x2="1041.6" y2="305.4"/>
		<polygon fill="#FA4614" points="1067,321.7 1039.9,321.7 1039.9,306.6 1067,306.6 1059.4,314.2 		"/>
	</g>
	<g>
		
			<line fill="none" stroke="#1A3954" stroke-width="1.6596" stroke-linecap="round" stroke-linejoin="round" stroke-miterlimit="10" x1="1249.6" y1="464.3" x2="1249.6" y2="424.8"/>
		<polygon fill="#FA4614" points="1275.1,441.2 1247.9,441.2 1247.9,426.1 1275.1,426.1 1267.4,433.6 		"/>
	</g>
</g>
<g id="Вертолет">
	<g>
		<g>
			<polygon fill="#F2F2F2" points="1032.7,57.5 986.9,57.5 948.8,84.8 919.5,114.5 1014.5,133.5 			"/>
			<path fill="#5A5CA8" d="M1026.8,61.6l-23.5,51.6c0,0-52.2,0-70.4,0c-18.2,0,32.8-40.7,49.7-47.8
				C998.6,58.6,1026.8,61.6,1026.8,61.6z M1031.7,47.7c-11.7,0.1-21.5,0.3-26.1,0.6c-30.2,1.8-71.1,27.4-99.4,71.7
				c-28.4,44.3,26.6,56.5,26.6,56.5h40.3h14.1h58.6h14.1h0.6c14.3,0,28.1-9.4,39.7-20.9c18.5-18.4,31.2-42.2,31.2-42.2l129.5-30.2
				l12.4,13.5h28.4l-10.6-40l19.5-39.8h-33.7l-21.1,31.6c0,0-84.4-0.8-155.8-1c-14,0-28.4,0-40.1,0L1031.7,47.7z"/>
			<g>
				<path fill="none" d="M963.9,49.6C947,56.8,896,97.4,914.2,97.4c2.4,0,5.3,0,8.7,0c26.3-30.5,58.1-47.7,82.7-49.2
					c0.4,0,0.9,0,1.4,0l1.1-2.3C1008,45.9,979.9,42.9,963.9,49.6z"/>
				<path fill="none" d="M938.6,97.4c21.3,0,45.9,0,45.9,0l16.4-36c-6.5,0.6-13,1.7-18.3,3.9C972.8,69.5,951.2,85.7,938.6,97.4z"/>
				<path fill="#5A5CA8" d="M922.9,97.6c4.7,0,10.1,0,15.8,0c12.5-12.3,34.1-28,44-32.2c5.3-2.2,11.8-3.4,18.3-4l6-13.2
					c-0.5,0-1,0-1.4,0.1C981,49.8,949.2,67.1,922.9,97.6z"/>
				<path fill="#2B286D" d="M1041.7,160.9h-0.6H1027h-58.6h-14.1H914c0,0-5.7-1.3-12.4-4.4c8.8,15.1,31.2,20.1,31.2,20.1h40.3h14.1
					h58.6h14.1h0.6c14.3,0,28.1-9.4,39.7-20.9c16.5-16.4,28.4-37.2,30.8-41.4c-13.8,4.5-37.1,13.4-49.6,25.8
					C1069.8,151.5,1056,160.9,1041.7,160.9z"/>
				<path fill="#E6E6E6" d="M938.6,97.4c-8.9,9.4-13.2,16.4-5.7,16.4c18.2,0,70.4,0,70.4,0l23.5-51.9c0,0-12.7-1.6-25.8-0.4
					l-16.4,35.9C984.6,97.4,959.9,97.4,938.6,97.4z"/>
				<path fill="#FEC200" d="M1131,114.2c6.6-2.1,11-3.3,11-3.3l0,0l-10.6,2.5C1131.4,113.4,1131.2,113.7,1131,114.2z"/>
			</g>
			<rect x="902.3" y="198.2" fill="#3E3E3C" width="230.5" height="16.4"/>
			<rect x="902.3" y="198.2" fill="#333333" width="230.5" height="6"/>
			<rect x="972.9" y="177.1" fill="#333333" width="14.1" height="23.5"/>
			<rect x="1045.6" y="177.1" fill="#333333" width="14.1" height="23.5"/>
			<rect x="1040.9" y="41.1" fill="#2B286D" width="25.8" height="7"/>
			<rect x="1045.2" y="34.1" fill="#5A5CA8" width="17.2" height="7"/>
			<rect x="1049.7" y="27" fill="#5A5CA8" width="8.2" height="7"/>
			<rect x="892.5" y="24.7" fill="#5A5CA8" width="322.7" height="4.7"/>
			<polygon fill="#2B286D" points="1286.7,96.4 1273.8,57.2 1296.3,15.7 1301.5,18.5 1280.2,57.8 1292.3,94.6 			"/>
		</g>
		<g>
			
				<pattern  id="SVGID_1_" xlink:href="#New_Pattern_Swatch_53" patternTransform="matrix(-0.1752 -0.3361 -0.3361 0.1752 -12131.1592 -8266.0654)">
			</pattern>
			<path fill="url(#SVGID_1_)" d="M954.8,112.6c6.6,0,13.9-2.4,20.6-7.1c1.5-1.1,1.9-3.2,0.8-4.7c-1.1-1.5-3.2-1.9-4.7-0.8
				c-8.5,5.9-18.1,7.5-24.5,4.1c-5.5-2.9-8.3-9.4-8.1-18.6c0-1.9-1.4-3.4-3.3-3.5c0,0-0.1,0-0.1,0c-1.8,0-3.3,1.5-3.4,3.3
				c-0.3,11.8,3.9,20.6,11.7,24.8C947.1,111.7,950.8,112.6,954.8,112.6z"/>
			<g>
				<path fill="#FCB28D" d="M930.9,73.6L930.9,73.6c1.6-0.7,3.5,0,4.2,1.5l3.5,7.5c0.8,1.7-0.1,3.7-1.9,4.3l-0.9,0.3
					c-1.7,0.5-3.5-0.4-4-2l-2.5-7.8C928.7,75.9,929.4,74.2,930.9,73.6z"/>
			</g>
			<path fill="#FA4614" d="M969.3,107.1c0-7.1,5.8-12.9,12.9-12.9c7.1,0,12.9,5.8,12.9,12.9v8.3h-25.7V107.1z"/>
			<path fill="#3C2415" d="M983.4,59.3c-2.4,0.4-4.7,1.7-6.3,3.7c0-0.8,0.2-1.8,0.7-2.7c1.1-2,3.2-3.1,4.6-2.3
				C982.9,58.3,983.3,58.7,983.4,59.3z"/>
			
				<linearGradient id="SVGID_2_" gradientUnits="userSpaceOnUse" x1="1105.8282" y1="-786.7275" x2="1115.0021" y2="-777.5536" gradientTransform="matrix(-0.9833 0.1821 0.1821 0.9833 2216.6433 658.0806)">
				<stop  offset="0" style="stop-color:#D8654E"/>
				<stop  offset="0.2392" style="stop-color:#DE7259"/>
				<stop  offset="0.6831" style="stop-color:#EF9575"/>
				<stop  offset="1" style="stop-color:#FCB28D"/>
			</linearGradient>
			<path fill="url(#SVGID_2_)" d="M979,86.8c-0.2-1.6,1-3,2.5-3.2c1.6-0.2,3,1,3.2,2.5l1.1,9.5c0.2,1.6-1,3-2.5,3.2
				c-1.6,0.2-3-1-3.2-2.5L979,86.8z"/>
			<g>
				<path fill="#FCB28D" d="M975.9,91.6l-2.1-1.2c-5.2-2.9-7-9.5-4.1-14.7l7.2-12.8c2.5-4.4,8.1-6,12.5-3.5l5.9,3.3
					c4.4,2.5,6,8.1,3.5,12.5l-6.6,11.8C988.9,92.8,981.6,94.9,975.9,91.6z"/>
			</g>
			<g>
				<path d="M975.9,70.2L975.9,70.2c-0.3-0.2-0.5-0.6-0.3-1l0.8-1.4c0.2-0.3,0.6-0.5,1-0.3c0.3,0.2,0.5,0.6,0.3,1l-0.8,1.4
					C976.7,70.3,976.2,70.4,975.9,70.2z"/>
			</g>
			<g>
				<path d="M984.8,75.2L984.8,75.2c-0.3-0.2-0.5-0.6-0.3-1l0.8-1.4c0.2-0.3,0.6-0.5,1-0.3c0.3,0.2,0.5,0.6,0.3,1l-0.8,1.4
					C985.6,75.3,985.1,75.4,984.8,75.2z"/>
			</g>
			<g>
				
					<linearGradient id="SVGID_3_" gradientUnits="userSpaceOnUse" x1="-2292.437" y1="264.2383" x2="-2291.603" y2="250.6542" gradientTransform="matrix(0.9318 0.3629 -0.3629 0.9318 3207.7119 663.9736)">
					<stop  offset="0" style="stop-color:#D8654E"/>
					<stop  offset="0.167" style="stop-color:#DB6C54"/>
					<stop  offset="0.4123" style="stop-color:#E58064"/>
					<stop  offset="0.7046" style="stop-color:#F4A07E"/>
					<stop  offset="0.8444" style="stop-color:#FCB28D"/>
				</linearGradient>
				<path fill="url(#SVGID_3_)" d="M975.8,77.7C975.8,77.7,975.8,77.7,975.8,77.7c-1.7-1.3-1-3.3-0.5-4.1c0.1-0.2,0.3-0.2,0.5-0.2
					l2.2,0.9l0.8-0.7c0,0,2.6-2.6,3.4-6.8c0-0.2,0.3-0.4,0.5-0.3c0.2,0,0.4,0.3,0.3,0.5c-0.8,4.5-3.5,7.2-3.6,7.3l-1,0.9
					c-0.1,0.1-0.3,0.1-0.4,0.1l-2.1-0.8c-0.3,0.6-0.6,1.8,0.4,2.6c0.2,0.1,0.2,0.4,0.1,0.6C976.2,77.8,976,77.8,975.8,77.7z"/>
			</g>
			<path fill="#3C2415" d="M1002.8,68c-0.4-0.8-1-1.2-1.7-1.4l0.1-0.2c1.3-2.3,0.5-5.1-1.8-6.4l-9.3-5.2l-3.5-1.9
				c-2.3-1.3-5.1-0.5-6.4,1.8l-0.1,0.2c-0.4,0.7-0.6,1.4-0.6,2.2c0,1.7,0.8,3.3,2.4,4.2l0.7,0.4l11.5,6.4c1.3,0.7,1.8,2.4,1,3.7
				l-4,7.2c-0.8,1.5-0.5,3.5,1,4.4c1.5,1,3.6,0.5,4.5-1.1l6.1-10.8C1003.4,70.4,1003.4,69.1,1002.8,68z"/>
			<g>
				<circle fill="#FCB28D" cx="995" cy="84.7" r="3.2"/>
				
					<linearGradient id="SVGID_4_" gradientUnits="userSpaceOnUse" x1="-2249.7329" y1="709.1805" x2="-2253.7046" y2="710.1337" gradientTransform="matrix(0.8719 0.4898 -0.4898 0.8719 3305.6116 568.7363)">
					<stop  offset="0" style="stop-color:#D8654E"/>
					<stop  offset="0.1833" style="stop-color:#E0765C"/>
					<stop  offset="0.5438" style="stop-color:#F4A17F"/>
					<stop  offset="0.6696" style="stop-color:#FCB28D"/>
				</linearGradient>
				<circle fill="url(#SVGID_4_)" cx="995" cy="84.7" r="1.7"/>
			</g>
			<path fill="#845D42" d="M988.6,72.9c0.2,0,0.3-0.1,0.4-0.2c0.4-0.5,0.5-1.2,0.4-1.8c-0.1-0.6-0.5-1.2-1-1.6
				c-1.1-0.7-2.6-0.4-3.4,0.7c-0.1,0.2-0.1,0.5,0.1,0.7c0.2,0.1,0.5,0.1,0.7-0.1c0.5-0.7,1.4-0.9,2.1-0.4c0.3,0.2,0.6,0.6,0.6,0.9
				c0.1,0.4,0,0.8-0.2,1.1c-0.1,0.2-0.1,0.5,0.1,0.7C988.4,72.8,988.5,72.9,988.6,72.9z"/>
			<path fill="#845D42" d="M979.8,67.9c0.2,0,0.3-0.1,0.4-0.2c0.4-0.5,0.5-1.2,0.4-1.8c-0.1-0.6-0.5-1.2-1-1.6
				c-1.1-0.7-2.6-0.4-3.4,0.7c-0.1,0.2-0.1,0.5,0.1,0.7c0.2,0.1,0.5,0.1,0.7-0.1c0.5-0.7,1.4-0.9,2.1-0.4c0.3,0.2,0.6,0.6,0.6,0.9
				c0.1,0.4,0,0.8-0.2,1.1c-0.1,0.2-0.1,0.5,0.1,0.7C979.6,67.9,979.7,67.9,979.8,67.9z"/>
			<path fill="#FFFFFF" d="M973.7,84c-1.7-0.9-2.3-3-1.4-4.7l6.1,3.3C977.5,84.3,975.4,84.9,973.7,84z"/>
			
				<pattern  id="SVGID_5_" xlink:href="#New_Pattern_Swatch_53" patternTransform="matrix(-0.2469 0.2875 0.2875 0.2469 -8545.3936 -2535.3555)">
			</pattern>
			<path fill="url(#SVGID_5_)" d="M1017.9,138.3c1.3,0,2.5-0.7,3.1-1.9c5.2-10.6,5.1-20.3-0.2-27.4c-6-7.9-17.7-11.4-30.5-9.1
				c-1.8,0.3-3.1,2.1-2.7,3.9c0.3,1.8,2.1,3.1,3.9,2.7c10.2-1.8,19.5,0.7,23.9,6.5c3.8,5,3.6,12-0.4,20.3c-0.8,1.7-0.1,3.7,1.6,4.5
				C1016.9,138.2,1017.4,138.3,1017.9,138.3z"/>
			<g>
				<path fill="#FCB28D" d="M1017.2,147.5L1017.2,147.5c-1.8,0-3.2-1.4-3.2-3.2l0-8.3c0-1.9,1.7-3.3,3.5-3.1l1,0.1
					c1.7,0.2,3,1.8,2.8,3.5l-1,8.2C1020.2,146.4,1018.8,147.5,1017.2,147.5z"/>
			</g>
			<g>
				<path fill="#FA4614" d="M939.6,88.5c0.4,7.3,3.1,12.4,7.7,14.9c6.2,3.3,15.5,1.7,23.8-4c1.8-1.3,4.3-0.8,5.6,1
					c1.3,1.8,0.8,4.3-1,5.6c-6.8,4.8-14.2,7.2-21,7.2c-4,0-7.9-0.9-11.2-2.7c-4.2-2.3-11.1-8-11.9-21.5L939.6,88.5z"/>
			</g>
			<g>
				<path fill="#FA4614" d="M990,99.4c13.1-2.3,25,1.2,31.1,9.3c2.8,3.8,6.5,11.6,2.1,23.7l-7.5-2.9c2.3-6.5,2-11.9-1-16
					c-4.2-5.6-13.4-8.1-23.3-6.3c-2.2,0.4-4.3-1.1-4.6-3.2C986.4,101.8,987.9,99.8,990,99.4z"/>
			</g>
		</g>
	</g>
	<g>
		<g>
			<path fill="#FFFFFF" d="M1202.8,65.2l-6.7,17.2h2.8l2.2-5.8h5.8l2.2,5.8h2.8l-6.6-17.2H1202.8z M1201.8,74.5l2.2-5.7l2.1,5.7
				H1201.8z"/>
			<g>
				<g>
					<path fill="#FFFFFF" d="M1113.7,65.2v5.7c-0.6,0-0.8,0-1.2,0c-1.6,0-2.5,1.4-2.5,3.5v8h-5.6v-9.2c0-2.4,0.7-4.4,2-5.8
						c1.3-1.4,3.1-2.2,5.3-2.2C1112.3,65.2,1111.8,65.2,1113.7,65.2z"/>
				</g>
			</g>
			<g>
				<g>
					<path fill="#FFFFFF" d="M1123.5,65.2c2.4,0,4.4,0.8,6.1,2.5c1.7,1.7,2.6,3.7,2.6,6.1c0,2.4-0.9,4.4-2.6,6.1
						c-1.7,1.7-3.8,2.5-6.3,2.5c-2.4,0-4.5-0.8-6.3-2.5c-1.7-1.7-2.6-3.7-2.6-6.1c0-2.4,0.9-4.5,2.6-6.1
						C1118.8,66,1120.9,65.2,1123.5,65.2z M1123.3,70.6c-0.9,0-1.6,0.3-2.2,0.9c-0.6,0.6-0.9,1.4-0.9,2.3c0,0.9,0.3,1.6,0.9,2.3
						c0.6,0.6,1.4,0.9,2.2,0.9c0.9,0,1.6-0.3,2.2-0.9c0.6-0.6,0.9-1.4,0.9-2.3c0-0.9-0.3-1.7-0.9-2.3
						C1124.9,70.9,1124.2,70.6,1123.3,70.6z"/>
				</g>
			</g>
			<g>
				<g>
					<path fill="#FFFFFF" d="M1148.5,82.4h-5.7l0-9.3c0-1-0.6-2.2-1.9-2.2c-1.5,0-2.1,1.2-2.1,2.2l0,9.3h-5.7V73
						c0-2.2,0.7-4,2.2-5.5c1.5-1.5,3.3-2.2,5.5-2.2c2.5,0,4.4,0.9,5.9,2.6c1.2,1.4,1.7,3.2,1.7,5.7V82.4z"/>
				</g>
			</g>
			<g>
				<rect x="1150.2" y="66" fill="#FFFFFF" width="5.7" height="16.4"/>
			</g>
			<path fill="#FFFFFF" d="M1190.3,80h-2.1h-0.3c-0.5,0-1-0.2-1.3-0.5c-0.3-0.3-0.5-0.7-0.5-1.2v-0.4v-2V65.2h-2.7v13.9
				c0,1,0.3,1.8,1,2.4c0.7,0.6,1.5,0.9,2.5,0.9h7.8V80H1190.3z"/>
			<path fill="#FFFFFF" d="M1224.1,73c0.7-0.8,1.2-1.9,1.2-3c0-2.6-2.1-4.7-4.7-4.7c0,0,0,0-0.1,0l0,0h-7.1v17.2h7.1
				c0,0,0.2,0,0.3,0c2.9,0,5.3-2.4,5.3-5.3C1226.2,75.4,1225.4,73.9,1224.1,73z M1216.1,67.7h4.4c0.1,0,0.1,0,0.2,0
				c1.2,0,2.2,1,2.2,2.2c0,1.2-1,2.2-2.2,2.2c-0.1,0-0.1,0-0.2,0h-4.4V67.7z M1220.8,80C1220.8,80,1220.8,80,1220.8,80h-4.7v-5.7
				h4.7c0,0,0,0,0,0c1.6,0,2.9,1.3,2.9,2.9C1223.7,78.7,1222.4,80,1220.8,80z"/>
			<g>
				<path fill="#FFFFFF" d="M1167.3,70.9v-5.6h-1.3c-2.4,0-4.5,0.8-6.2,2.5c-1.7,1.7-2.6,3.7-2.6,6.1c0,2.5,0.8,4.6,2.5,6.3
					c1.5,1.5,3,2.1,4.9,2.3c0.3,0,0.6,0,1,0c0.4,0,1.1,0,1.6,0v-0.1v-5.5v-0.2l-1.1,0c-0.1,0-0.2,0-0.3,0c0,0-0.1,0-0.1,0
					c-0.4,0-0.7-0.1-1-0.2c-1.1-0.4-1.9-1.5-1.9-2.7c0-1.6,1.3-2.9,2.9-2.9c0.1,0,0.3,0,0.4,0c0.1,0,0.2,0,0.2,0
					C1167.4,70.9,1166.5,70.9,1167.3,70.9z"/>
			</g>
			<g>
				<path fill="#FFFFFF" d="M1179.4,65.3c-2.2,0-3.7,1-5,2.2c-0.7,0.7-1.2,1.6-1.4,2.3c-0.2,0.7-0.4,1.9-0.5,3.6
					c-0.1,1.1-0.4,2.2-0.8,2.6c-0.4,0.4-1,0.6-1.7,0.6h-0.2h-0.8v5.7l0.9,0l1.3,0l0,0h0.5c1.1,0,1.9-0.1,2.8-0.6
					c2.2-1.3,3.5-3.1,3.8-6.3c0.1-1,0.2-2.3,0.4-2.7c0.6-1.4,1.7-1.8,2.6-1.8v-5.6H1179.4z"/>
			</g>
			<g>
				<polygon fill="#FFFFFF" points="1094.5,59.5 1092,59.5 1088.8,59.5 1088.8,65.2 1092.2,65.2 1094.5,65.2 1094.5,82.4 
					1100.3,82.4 1100.3,65.2 1106,65.2 1106,59.5 				"/>
			</g>
			<g>
				<rect x="1081.9" y="66" fill="#FFFFFF" width="5.7" height="16.4"/>
			</g>
			<g>
				<g>
					<path fill="#FFFFFF" d="M1079.4,72.5c-0.6-0.9-1.7-1.5-3-1.8c1.1-0.4,1.8-1.1,2.3-1.9c0.5-0.8,0.7-1.8,0.7-2.9
						c0-2.1-0.8-3.6-2.4-4.7c-1.6-1-3.8-1.6-6.6-1.6h-7.4v22.7h8.7c2.8,0,4.9-0.6,6.4-1.7c1.5-1.1,2.2-2.8,2.2-5
						C1080.4,74.4,1080.1,73.4,1079.4,72.5z M1073.9,77.6c-0.6,0.4-1.4,0.7-2.5,0.7h-2.5v-5.7h2.5h0.2c1.1,0,1.9,0.3,2.4,0.8
						c0.5,0.5,0.7,1.2,0.7,2.2C1074.7,76.5,1074.4,77.2,1073.9,77.6z M1072.9,68.4c-0.6,0.4-1.6,0.7-2.8,0.7h-1.2v-5.4h1.3
						c1.2,0,2.2,0.2,2.8,0.7c0.6,0.4,0.9,1.1,0.9,2.1C1073.8,67.4,1073.5,68,1072.9,68.4z"/>
				</g>
			</g>
			<g>
				<circle fill="#FFFFFF" cx="1153" cy="61.9" r="2.9"/>
			</g>
			<g>
				<circle fill="#FFFFFF" cx="1084.7" cy="61.9" r="2.9"/>
			</g>
		</g>
	</g>
</g>
<g id="Путь">
	
		<path fill="none" stroke="#FA4614" stroke-width="4" stroke-linecap="round" stroke-linejoin="round" stroke-miterlimit="10" stroke-dasharray="12" d="
		M1104,902.5c0,0,347.2-238.9,286.7-375.3c-27.3-61.5-116.7-70.3-116.7-70.3s123.7-191.1-219.3-115.3
		c157.4-67.5-70.3-104-140.5-85.7"/>
	
		<path fill="none" stroke="#660E00" stroke-width="4" stroke-linecap="round" stroke-linejoin="round" stroke-miterlimit="10" stroke-dasharray="12" d="
		M709,902.5c0,0-567.8-66.1-494.7-123.7c73.1-57.6,559.4-40.8,559.4-40.8S361.9,528.8,193.2,563.9"/>
	
		<path fill="none" stroke="#660E00" stroke-width="4" stroke-linecap="round" stroke-linejoin="round" stroke-miterlimit="10" stroke-dasharray="12" d="
		M306,529.9c0,0,178.1-39.3,203.4-18.2l9.8-32.3h57.6l2.8-25.3l7-35.1c0,0,45,18.3,22.5,50.6c-22.5,32.3-43.6,163-1.4,153.2
		c42.2-9.8,56.2-217.9,81.5-220.7s47.8,0,47.8,0s-23.9-45,0-40.8c23.9,4.2,33.7,5.6,33.7,5.6l12.6-40.8H813l53.4-44.1l20.4-15.6"/>
</g>
<g>
	<text transform="matrix(1 0 0 1 836.6223 372.2487)"><tspan x="0" y="0" fill="#FFFFFF" font-family="'FuturaPT-Heavy'" font-size="24">ЛА</tspan><tspan x="33.6" y="0" fill="#FFFFFF" font-family="'FuturaPT-Heavy'" font-size="24">Б</tspan><tspan x="47.2" y="0" fill="#FFFFFF" font-family="'FuturaPT-Heavy'" font-size="24">О</tspan><tspan x="64.6" y="0" fill="#FFFFFF" font-family="'FuturaPT-Heavy'" font-size="24" letter-spacing="-3">Р</tspan><tspan x="74.8" y="0" fill="#FFFFFF" font-family="'FuturaPT-Heavy'" font-size="24" letter-spacing="-2">А</tspan><tspan x="90.1" y="0" fill="#FFFFFF" font-family="'FuturaPT-Heavy'" font-size="24">Т</tspan><tspan x="104.4" y="0" fill="#FFFFFF" font-family="'FuturaPT-Heavy'" font-size="24">ОРНАЯ</tspan><tspan x="9.1" y="28.8" fill="#FFFFFF" font-family="'FuturaPT-Heavy'" font-size="24">И П</tspan><tspan x="49.7" y="28.8" fill="#FFFFFF" font-family="'FuturaPT-Heavy'" font-size="24">Р</tspan><tspan x="63.4" y="28.8" fill="#FFFFFF" font-family="'FuturaPT-Heavy'" font-size="24">ОЕКТНАЯ</tspan><tspan x="0.1" y="57.6" fill="#FFFFFF" font-family="'FuturaPT-Heavy'" font-size="24">ДЕЯТ</tspan><tspan x="61.8" y="57.6" fill="#FFFFFF" font-family="'FuturaPT-Heavy'" font-size="24">Е</tspan><tspan x="76.2" y="57.6" fill="#FFFFFF" font-family="'FuturaPT-Heavy'" font-size="24">ЛЬН</tspan><tspan x="123.6" y="57.6" fill="#FFFFFF" font-family="'FuturaPT-Heavy'" font-size="24">О</tspan><tspan x="141.2" y="57.6" fill="#FFFFFF" font-family="'FuturaPT-Heavy'" font-size="24">СТЬ</tspan></text>
</g>
<g>
	<text transform="matrix(1 0 0 1 835.9331 505.0487)"><tspan x="0" y="0" fill="#2B286D" font-family="'FuturaPT-Heavy'" font-size="24">ДОП</tspan><tspan x="51" y="0" fill="#2B286D" font-family="'FuturaPT-Heavy'" font-size="24" letter-spacing="-1">О</tspan><tspan x="67.2" y="0" fill="#2B286D" font-family="'FuturaPT-Heavy'" font-size="24">ЛНИТ</tspan><tspan x="132.8" y="0" fill="#2B286D" font-family="'FuturaPT-Heavy'" font-size="24">Е</tspan><tspan x="147.1" y="0" fill="#2B286D" font-family="'FuturaPT-Heavy'" font-size="24">ЛЬНОЕ ОБ</tspan><tspan x="263.6" y="0" fill="#2B286D" font-family="'FuturaPT-Heavy'" font-size="24" letter-spacing="-3">Р</tspan><tspan x="273.9" y="0" fill="#2B286D" font-family="'FuturaPT-Heavy'" font-size="24">А</tspan><tspan x="290.6" y="0" fill="#2B286D" font-family="'FuturaPT-Heavy'" font-size="24">ЗО</tspan><tspan x="320" y="0" fill="#2B286D" font-family="'FuturaPT-Heavy'" font-size="24" letter-spacing="-1">В</tspan><tspan x="334.5" y="0" fill="#2B286D" font-family="'FuturaPT-Heavy'" font-size="24">АНИЕ</tspan></text>
</g>
<path fill="#FA4614" d="M1540,384.7h-240c-6.6,0-12-5.4-12-12v-41c0-6.6,5.4-12,12-12h240c6.6,0,12,5.4,12,12v41
	C1552,379.3,1546.6,384.7,1540,384.7z"/>
<path fill="#FA4614" d="M1470,304.7h-355c-6.6,0-12-5.4-12-12v-41c0-6.6,5.4-12,12-12h355c6.6,0,12,5.4,12,12v41
	C1482,299.3,1476.6,304.7,1470,304.7z"/>
<g>
	<text transform="matrix(1 0 0 1 1313.9458 360.0487)"><tspan x="0" y="0" fill="#FFFFFF" font-family="'FuturaPT-Heavy'" font-size="24" letter-spacing="-1">О</tspan><tspan x="16.1" y="0" fill="#FFFFFF" font-family="'FuturaPT-Heavy'" font-size="24">ЛИМПИАДА НТИ</tspan></text>
</g>
<path fill="#FA4614" d="M1588,577.7h-183c-6.6,0-12-5.4-12-12v-59c0-6.6,5.4-12,12-12h183c6.6,0,12,5.4,12,12v59
	C1600,572.3,1594.6,577.7,1588,577.7z"/>
<g>
	<text transform="matrix(1 0 0 1 1116.7251 280.0487)"><tspan x="0" y="0" fill="#FFFFFF" font-family="'FuturaPT-Heavy'" font-size="24">МЕ</tspan><tspan x="36" y="0" fill="#FFFFFF" font-family="'FuturaPT-Heavy'" font-size="24">Т</tspan><tspan x="50.3" y="0" fill="#FFFFFF" font-family="'FuturaPT-Heavy'" font-size="24" letter-spacing="-1">О</tspan><tspan x="66.5" y="0" fill="#FFFFFF" font-family="'FuturaPT-Heavy'" font-size="24">ДИЧЕСКИЕ М</tspan><tspan x="221.8" y="0" fill="#FFFFFF" font-family="'FuturaPT-Heavy'" font-size="24" letter-spacing="-2">А</tspan><tspan x="237" y="0" fill="#FFFFFF" font-family="'FuturaPT-Heavy'" font-size="24">ТЕРИАЛЫ</tspan></text>
</g>
<g>
	<text transform="matrix(1 0 0 1 1417.0229 528.6489)"><tspan x="0" y="0" fill="#FFFFFF" font-family="'TimesNewRomanPSMT'" font-size="24">ВО</tspan><tspan x="33.3" y="0" fill="#FFFFFF" font-family="'TimesNewRomanPSMT'" font-size="24">В</tspan><tspan x="48.4" y="0" fill="#FFFFFF" font-family="'TimesNewRomanPSMT'" font-size="24">ЛЕЧЕНИЕ</tspan><tspan x="15.9" y="28.8" fill="#FFFFFF" font-family="'TimesNewRomanPSMT'" font-size="24">УЧИТ</tspan><tspan x="80.5" y="28.8" fill="#FFFFFF" font-family="'TimesNewRomanPSMT'" font-size="24">Е</tspan><tspan x="94.8" y="28.8" fill="#FFFFFF" font-family="'TimesNewRomanPSMT'" font-size="24">ЛЕЙ</tspan></text>
</g>
<g id="Школьники">
	<g>
		
			<pattern  id="SVGID_6_" xlink:href="#New_Pattern_Swatch_53" patternTransform="matrix(0.2335 -0.448 0.448 0.2335 -3384.3438 -8830.4727)">
		</pattern>
		<path fill="url(#SVGID_6_)" d="M419.7,763.2c-2.9,0-5.6-0.6-8.2-1.8c-8.6-4.1-14.2-14.4-14.5-27c0-1.8,1.4-3.3,3.2-3.3
			c1.8,0,3.3,1.4,3.3,3.2c0.3,9.9,4.5,18.2,10.8,21.2c5.4,2.6,12,1.1,19-4.4c1.4-1.1,3.5-0.8,4.6,0.6c1.1,1.4,0.8,3.5-0.6,4.6
			C431.4,760.9,425.4,763.2,419.7,763.2z"/>
		<g>
			<path fill="#FCB28D" d="M447.1,750.7L447.1,750.7c-0.3-1.7-2-2.7-3.6-2.4l-7.8,1.6c-1.8,0.4-2.8,2.2-2.2,3.9l0.3,0.9
				c0.5,1.6,2.3,2.5,3.8,1.9l7.5-2.5C446.5,753.7,447.4,752.2,447.1,750.7z"/>
		</g>
		<g>
			<path fill="#00B469" d="M404.3,736.4c1.4-6.7-2.9-13.2-9.6-14.6c-6.7-1.4-13.2,2.9-14.6,9.6l-8.6,41.4l24.2,5L404.3,736.4z"/>
			<path fill="#00B469" d="M371.6,772.8l-1.3,6.4c-1.4,6.7,2.9,13.2,9.6,14.6c6.7,1.4,13.2-2.9,14.6-9.6l1.3-6.4L371.6,772.8z"/>
		</g>
		<path fill="#FCB28D" d="M431.1,832.9l17-2.9c1.1-0.2,1.8-1.2,1.6-2.3l0,0c-0.2-0.9-0.9-1.6-1.9-1.6l-18.8-0.6
			c-1.2,0-2.2,1.1-2,2.3l0.4,2.6C427.8,832,429.4,833.2,431.1,832.9z"/>
		<path fill="#A57C52" d="M392.6,687.9c2.4,0.1,4.7,1.1,6.4,2.9c-0.1-0.8-0.4-1.7-1-2.5c-1.3-1.8-3.4-2.6-4.6-1.7
			C393,686.9,392.8,687.4,392.6,687.9z"/>
		
			<linearGradient id="SVGID_7_" gradientUnits="userSpaceOnUse" x1="-2.8185" y1="140.1292" x2="5.9946" y2="148.9423" gradientTransform="matrix(0.926 0.3774 -0.3774 0.926 448.2503 584.441)">
			<stop  offset="0" style="stop-color:#D8654E"/>
			<stop  offset="0.2392" style="stop-color:#DE7259"/>
			<stop  offset="0.6831" style="stop-color:#EF9575"/>
			<stop  offset="1" style="stop-color:#FCB28D"/>
		</linearGradient>
		<path fill="url(#SVGID_7_)" d="M399.2,715.3c0.5-1.4-0.3-3-1.8-3.5c-1.4-0.5-3,0.3-3.5,1.8l-2.8,8.8c-0.5,1.4,0.3,3,1.8,3.5
			c1.4,0.5,3-0.3,3.5-1.8L399.2,715.3z"/>
		<g>
			<path fill="#FCB28D" d="M403.3,718l1.9-1.4c4.7-3.3,5.7-9.8,2.4-14.5l-8.2-11.4c-2.8-4-8.3-4.9-12.3-2l-5.3,3.8
				c-4,2.8-4.9,8.3-2,12.3l7.6,10.6C391,720.5,398.2,721.7,403.3,718z"/>
		</g>
		<g>
			<path d="M401,697.5L401,697.5c0.3-0.2,0.4-0.7,0.2-1l-0.9-1.3c-0.2-0.3-0.7-0.4-1-0.2c-0.3,0.2-0.4,0.7-0.2,1l0.9,1.3
				C400.3,697.7,400.7,697.7,401,697.5z"/>
		</g>
		<g>
			<path d="M393.1,703.2L393.1,703.2c0.3-0.2,0.4-0.7,0.2-1l-0.9-1.3c-0.2-0.3-0.7-0.4-1-0.2c-0.3,0.2-0.4,0.7-0.2,1l0.9,1.3
				C392.3,703.4,392.7,703.4,393.1,703.2z"/>
		</g>
		<g>
			
				<linearGradient id="SVGID_8_" gradientUnits="userSpaceOnUse" x1="-860.7024" y1="329.9332" x2="-859.9012" y2="316.8846" gradientTransform="matrix(-0.8862 0.4633 0.4633 0.8862 -513.5947 811.5764)">
				<stop  offset="0" style="stop-color:#D8654E"/>
				<stop  offset="0.167" style="stop-color:#DB6C54"/>
				<stop  offset="0.4123" style="stop-color:#E58064"/>
				<stop  offset="0.7046" style="stop-color:#F4A07E"/>
				<stop  offset="0.8444" style="stop-color:#FCB28D"/>
			</linearGradient>
			<path fill="url(#SVGID_8_)" d="M401.9,704.7C401.9,704.7,401.9,704.7,401.9,704.7c1.4-1.5,0.7-3.2,0-4c-0.1-0.1-0.3-0.2-0.5-0.1
				l-2,1.1l-0.8-0.6c0,0-2.8-2.2-3.9-6.2c-0.1-0.2-0.3-0.3-0.5-0.3c-0.2,0.1-0.3,0.3-0.3,0.5c1.2,4.2,4.1,6.5,4.2,6.6l1,0.7
				c0.1,0.1,0.3,0.1,0.4,0l1.9-1c0.3,0.5,0.8,1.6-0.1,2.6c-0.2,0.2-0.2,0.4,0,0.6C401.5,704.8,401.7,704.8,401.9,704.7z"/>
		</g>
		<path fill="#A57C52" d="M375.1,698.3c0.3-0.9,0.9-1.3,1.4-1.5l-0.1-0.2c-1.4-2-1-4.8,1-6.3l8.3-6l3.1-2.2c2-1.4,4.8-1,6.3,1
			l0.1,0.2c0.4,0.6,0.7,1.3,0.8,2c0.2,1.6-0.4,3.3-1.8,4.3l-0.7,0.5l-10.3,7.4c-1.2,0.8-1.5,2.5-0.6,3.7l4.6,6.5
			c1,1.3,0.8,3.3-0.5,4.3c-1.4,1.1-3.4,0.8-4.4-0.6l-6.9-9.7C374.8,700.7,374.6,699.4,375.1,698.3z"/>
		<g>
			<circle fill="#FCB28D" cx="384.3" cy="713.4" r="3.1"/>
			
				<linearGradient id="SVGID_9_" gradientUnits="userSpaceOnUse" x1="-822.8679" y1="573.4958" x2="-826.683" y2="574.4114" gradientTransform="matrix(-0.8126 0.5829 0.5829 0.8126 -620.242 727.6224)">
				<stop  offset="0" style="stop-color:#D8654E"/>
				<stop  offset="0.1833" style="stop-color:#E0765C"/>
				<stop  offset="0.5438" style="stop-color:#F4A17F"/>
				<stop  offset="0.6696" style="stop-color:#FCB28D"/>
			</linearGradient>
			<circle fill="url(#SVGID_9_)" cx="384.3" cy="713.4" r="1.6"/>
		</g>
		<path fill="#845D42" d="M389.1,701.4c-0.1,0-0.3-0.1-0.4-0.2c-0.4-0.5-0.6-1.1-0.5-1.7c0.1-0.6,0.3-1.2,0.8-1.6
			c0.5-0.4,1.1-0.6,1.7-0.5c0.6,0.1,1.2,0.3,1.6,0.8c0.2,0.2,0.1,0.5-0.1,0.6c-0.2,0.2-0.5,0.1-0.6-0.1c-0.5-0.6-1.4-0.7-2-0.2
			c-0.3,0.2-0.5,0.6-0.5,1c0,0.4,0.1,0.7,0.3,1c0.2,0.2,0.1,0.5-0.1,0.6C389.3,701.4,389.2,701.4,389.1,701.4z"/>
		<path fill="#845D42" d="M397,695.7c-0.1,0-0.3-0.1-0.4-0.2c-0.8-1-0.7-2.5,0.3-3.3c0.5-0.4,1.1-0.6,1.7-0.5
			c0.6,0.1,1.2,0.3,1.6,0.8c0.2,0.2,0.1,0.5-0.1,0.6c-0.2,0.2-0.5,0.1-0.6-0.1c-0.2-0.3-0.6-0.5-1-0.5c-0.4,0-0.7,0.1-1,0.3
			c-0.6,0.5-0.7,1.4-0.2,2c0.2,0.2,0.1,0.5-0.1,0.6C397.2,695.7,397.1,695.7,397,695.7z"/>
		<path fill="#D67751" d="M405.4,711.7c1-0.7,0.6-3-0.9-5.2l-3.7,2.6C402.3,711.2,404.4,712.4,405.4,711.7z"/>
		
			<pattern  id="SVGID_10_" xlink:href="#New_Pattern_Swatch_53" patternTransform="matrix(0.3291 0.3833 -0.3833 0.3291 -8103.9844 -1182.2322)">
		</pattern>
		<path fill="url(#SVGID_10_)" d="M359.5,764.2c-1.1,0-2.2-0.6-2.8-1.6c-5.8-9.7-6.5-19.1-1.9-26.2c5.1-8.1,16-12.3,28.5-11.1
			c1.8,0.2,3.1,1.8,2.9,3.6c-0.2,1.8-1.8,3.1-3.6,2.9c-9.9-0.9-18.7,2.3-22.4,8.1c-3.2,5.1-2.5,11.8,2,19.4c0.9,1.5,0.4,3.5-1.1,4.5
			C360.6,764,360.1,764.2,359.5,764.2z"/>
		<g>
			<path fill="#FCB28D" d="M361.1,772.9L361.1,772.9c1.7-0.1,2.9-1.6,2.8-3.3l-0.6-7.9c-0.1-1.8-1.9-3.1-3.6-2.7l-0.9,0.2
				c-1.7,0.3-2.7,2-2.4,3.6l1.6,7.7C358.2,772,359.6,773,361.1,772.9z"/>
		</g>
		<path fill="#FCB28D" d="M430.8,829.2c0,0-0.1,0-0.1,0c-2-0.1-3.6-1.8-3.5-3.8c0.4-14-2.9-24.4-10.1-31
			c-10.3-9.5-25.3-7.9-25.4-7.9c-2,0.2-3.8-1.2-4.1-3.2c-0.2-2,1.2-3.8,3.2-4.1c0.7-0.1,18.4-2,31.2,9.7c8.8,8.1,13,20.4,12.5,36.6
			C434.4,827.7,432.7,829.2,430.8,829.2z"/>
		<path fill="#FCB28D" d="M340.9,833.5c-1.8,0-3.3-1.3-3.6-3.1c-0.3-2,1-3.9,3-4.2c13.8-2.3,23.4-7.6,28.5-15.9
			c7.3-12,2.8-26.3,2.8-26.4c-0.6-1.9,0.4-4,2.4-4.6c1.9-0.6,4,0.4,4.6,2.4c0.2,0.7,5.5,17.7-3.5,32.5
			c-6.2,10.2-17.5,16.7-33.5,19.3C341.3,833.5,341.1,833.5,340.9,833.5z"/>
		<path fill="#1F1D38" d="M450.8,828.2L450.8,828.2c-0.8-3.7-4.2-3.2-4.2-3.2s-1.9,0.3-3.3,0.3c-1.4,0-3.7-1.9-5.1-2.9
			c-1.4-1-2.7-1-2.9-0.1c-0.2,0.9-1.4,2.9-3.8,3.5c-2.4,0.6-4.3-1.2-4.5-1.5c-0.2-0.3-0.4-0.2-0.4-0.2c-1.3,0.2-1,1.9-1,1.9l1.1,6.2
			l0.1,0.4l0.2,1c0.1,0.3,0.4,0.5,0.7,0.5l22.4-3.9C451.2,829.9,450.9,828.6,450.8,828.2z"/>
		<path fill="#1F1D38" d="M345.7,849.3L345.7,849.3c3.1-2.1,1.3-5.1,1.3-5.1s-1-1.6-1.6-2.9c-0.6-1.3,0.3-4.2,0.7-5.8
			c0.4-1.6-0.1-2.9-1-2.7c-0.9,0.1-3.2-0.1-4.7-2.1c-1.5-2-0.6-4.4-0.4-4.7c0.2-0.3,0.1-0.4,0.1-0.4c-0.7-1.1-2.2-0.1-2.2-0.1
			l-5.3,3.4l-0.3,0.2l-0.8,0.5c-0.3,0.2-0.3,0.5-0.2,0.8l12.2,19.2C344.3,850.3,345.4,849.5,345.7,849.3z"/>
		<g>
			<path fill="#00B469" d="M430.5,752.4c-5.9,3.8-11.4,4.7-15.9,2.5c-6.1-2.9-10.2-11-10.4-20.7c-0.1-2.1-1.8-3.8-3.9-3.7
				c-2.1,0.1-3.8,1.8-3.7,3.9c0.2,8,2.5,15.1,6.4,20.3c2.3,3.1,5.2,5.6,8.5,7.2c4.2,2,12.5,4,23.4-3L430.5,752.4z"/>
		</g>
		<g>
			<path fill="#00B469" d="M383.3,724.6c-12.7-1.2-23.8,3.2-29.1,11.4c-2.4,3.8-5.3,11.6-0.1,22.9l6.9-3.4c-2.7-6-2.9-11.3-0.3-15.4
				c3.6-5.7,12.2-8.8,21.8-7.9c2.1,0.2,4-1.4,4.2-3.5C387,726.7,385.4,724.8,383.3,724.6z"/>
		</g>
		<g>
			<path fill="#00B469" d="M422.4,788.5c-13.1-11.9-31-10-31.8-9.9c-2.4,0.3-4.1,2.5-3.8,4.9c0.3,2.4,2.5,4.1,4.9,3.9
				c0.1,0,14.8-1.6,24.9,7.7c6.1,5.7,9.4,14.3,9.8,25.7l8.8-1.1C434.5,806.1,430.3,795.7,422.4,788.5z"/>
		</g>
		<path fill="#00B469" d="M379.3,781.4c-0.7-2.3-3.2-3.6-5.5-2.8c-2.3,0.7-3.6,3.2-2.8,5.5c0,0.1,4.4,14.1-2.7,25.8
			c-4.2,7-11.8,11.8-22.5,14.4l3.5,8.2c12.3-3.3,21.2-9.3,26.5-18C384.9,799.4,379.5,782.2,379.3,781.4z"/>
		<circle fill="#A57C52" cx="375.4" cy="696" r="2.7"/>
		<circle fill="#A57C52" cx="386.3" cy="694.7" r="2.7"/>
		<circle fill="#A57C52" cx="395.2" cy="687" r="2.7"/>
		<circle fill="#A57C52" cx="386.9" cy="684.3" r="2.7"/>
		<circle fill="#A57C52" cx="382.1" cy="686.2" r="3.7"/>
		<circle fill="#A57C52" cx="384.3" cy="704.2" r="2.7"/>
		<circle fill="#A57C52" cx="382.7" cy="698.9" r="4.2"/>
	</g>
	<g>
		<path fill="#F6921E" d="M482.4,498.3c0.2-0.1,0.5-0.2,0.7-0.2c-0.1,1,0.1,2.2,0.6,3.3c0.5,1.2,1.3,2.1,2.1,2.7
			c-0.2,0.1-0.4,0.3-0.6,0.4c-1.7,0.8-3.7,0-4.4-1.7C480,501.1,480.7,499.1,482.4,498.3z"/>
		
			<pattern  id="SVGID_11_" xlink:href="#New_Pattern_Swatch_53" patternTransform="matrix(-0.1816 -0.3484 -0.3484 0.1816 -12145.5801 -8302.8545)">
		</pattern>
		<path fill="url(#SVGID_11_)" d="M458.5,542.4c3.1,0,6-0.8,8.5-2.5c6.2-4.1,9.2-12.7,8.1-22.4c-0.2-1.4-1.4-2.4-2.8-2.2
			c-1.4,0.2-2.4,1.4-2.2,2.8c0.9,7.7-1.4,14.5-5.9,17.6c-3.9,2.6-9.1,2.2-15.1-1.2c-1.2-0.7-2.8-0.2-3.4,1c-0.7,1.2-0.2,2.8,1,3.4
			C450.8,541.3,454.9,542.4,458.5,542.4z"/>
		<g>
			<path fill="#FCB28D" d="M438.5,535.7L438.5,535.7c0.1-1.3,1.2-2.3,2.5-2.3l6.2,0.3c1.4,0.1,2.4,1.4,2.2,2.8l-0.1,0.7
				c-0.2,1.3-1.5,2.2-2.7,1.9l-6.1-1.1C439.3,538,438.5,536.9,438.5,535.7z"/>
		</g>
		<g>
			<path fill="#00B469" d="M470,520.6c-1.5-5.1,1.4-10.4,6.5-11.9c5.1-1.5,10.4,1.4,11.9,6.5l9.2,31.6l-18.5,5.4L470,520.6z"/>
			<path fill="#00B469" d="M497.6,546.7l1.4,4.9c1.5,5.1-1.4,10.4-6.5,11.9c-5.1,1.5-10.4-1.4-11.9-6.5l-1.4-4.9L497.6,546.7z"/>
		</g>
		<path fill="#F6921E" d="M470.1,483.3c-1.7,0.8-3,2.2-3.8,4c-0.2-0.6-0.2-1.3,0-2.1c0.4-1.7,1.6-2.9,2.8-2.6
			C469.5,482.7,469.9,482.9,470.1,483.3z"/>
		
			<linearGradient id="SVGID_12_" gradientUnits="userSpaceOnUse" x1="591.7907" y1="-314.0392" x2="598.6439" y2="-307.1861" gradientTransform="matrix(-0.8932 0.4496 0.4496 0.8932 1147.2817 516.2466)">
			<stop  offset="0" style="stop-color:#D8654E"/>
			<stop  offset="0.2392" style="stop-color:#DE7259"/>
			<stop  offset="0.6831" style="stop-color:#EF9575"/>
			<stop  offset="1" style="stop-color:#FCB28D"/>
		</linearGradient>
		<path fill="url(#SVGID_12_)" d="M472.6,503.9c-0.5-1.1,0.1-2.3,1.2-2.8c1.1-0.5,2.3,0.1,2.8,1.2l2.7,6.6c0.5,1.1-0.1,2.3-1.2,2.8
			c-1.1,0.5-2.3-0.1-2.8-1.2L472.6,503.9z"/>
		<g>
			<path fill="#FCB28D" d="M471.4,508.1l-1.8-0.4c-4.3-1-7-5.3-6-9.7l2.5-10.7c0.9-3.7,4.5-6,8.2-5.1l5,1.2c3.7,0.9,6,4.5,5.1,8.2
				l-2.3,9.8C481,506.2,476.2,509.2,471.4,508.1z"/>
		</g>
		<g>
			<path d="M467,492.7L467,492.7c-0.3-0.1-0.5-0.4-0.4-0.6l0.3-1.2c0.1-0.3,0.4-0.5,0.6-0.4c0.3,0.1,0.5,0.4,0.4,0.6l-0.3,1.2
				C467.5,492.6,467.3,492.8,467,492.7z"/>
		</g>
		<g>
			<path d="M474.4,494.4L474.4,494.4c-0.3-0.1-0.5-0.4-0.4-0.6l0.3-1.2c0.1-0.3,0.4-0.5,0.6-0.4c0.3,0.1,0.5,0.4,0.4,0.6L475,494
				C475,494.3,474.7,494.5,474.4,494.4z"/>
		</g>
		<g>
			
				<linearGradient id="SVGID_13_" gradientUnits="userSpaceOnUse" x1="-1603.7345" y1="396.2479" x2="-1603.1115" y2="386.101" gradientTransform="matrix(0.9961 8.800000e-002 -8.800000e-002 0.9961 2100.8848 244.9414)">
				<stop  offset="0" style="stop-color:#D8654E"/>
				<stop  offset="0.167" style="stop-color:#DB6C54"/>
				<stop  offset="0.4123" style="stop-color:#E58064"/>
				<stop  offset="0.7046" style="stop-color:#F4A07E"/>
				<stop  offset="0.8444" style="stop-color:#FCB28D"/>
			</linearGradient>
			<path fill="url(#SVGID_13_)" d="M468.5,498.1C468.5,498.1,468.4,498.1,468.5,498.1c-1.5-0.6-1.4-2.1-1.2-2.8
				c0-0.1,0.2-0.2,0.3-0.2l1.8,0.2l0.4-0.6c0,0,1.3-2.4,1-5.6c0-0.2,0.1-0.3,0.3-0.4c0.2,0,0.3,0.1,0.4,0.3c0.4,3.4-1,5.9-1.1,6
				l-0.5,0.8c-0.1,0.1-0.2,0.2-0.3,0.1l-1.7-0.2c-0.1,0.5-0.1,1.4,0.9,1.8c0.2,0.1,0.2,0.3,0.2,0.4
				C468.8,498.1,468.6,498.1,468.5,498.1z"/>
		</g>
		<path fill="#F6921E" d="M485.8,485.5c-0.5-0.5-1-0.7-1.5-0.7l0-0.1c0.4-1.9-0.7-3.8-2.6-4.2l-7.8-1.8l-2.9-0.7
			c-1.9-0.4-3.8,0.7-4.2,2.6l0,0.2c-0.1,0.6-0.1,1.1,0,1.7c0.3,1.2,1.3,2.2,2.6,2.5l0.6,0.1l9.6,2.2c1.1,0.3,1.8,1.4,1.5,2.5l-1.4,6
			c-0.3,1.3,0.4,2.6,1.6,3c1.3,0.4,2.7-0.4,3-1.7l2.1-9C486.7,487.1,486.5,486.2,485.8,485.5z"/>
		<g>
			<circle fill="#FCB28D" cx="483.7" cy="499.1" r="2.4"/>
			
				<linearGradient id="SVGID_14_" gradientUnits="userSpaceOnUse" x1="-1554.4449" y1="744.756" x2="-1557.4117" y2="745.4681" gradientTransform="matrix(0.974 0.2266 -0.2266 0.974 2167.8147 125.9186)">
				<stop  offset="0" style="stop-color:#D8654E"/>
				<stop  offset="0.1833" style="stop-color:#E0765C"/>
				<stop  offset="0.5438" style="stop-color:#F4A17F"/>
				<stop  offset="0.6696" style="stop-color:#FCB28D"/>
			</linearGradient>
			<circle fill="url(#SVGID_14_)" cx="483.7" cy="499.1" r="1.3"/>
		</g>
		<path fill="#845D42" d="M476.5,492c0.2,0,0.3-0.1,0.3-0.2c0.1-0.5,0.1-1-0.1-1.4c-0.2-0.4-0.6-0.7-1.1-0.9c-0.9-0.3-2,0.2-2.3,1.2
			c-0.1,0.2,0,0.4,0.2,0.4c0.2,0.1,0.4,0,0.4-0.2c0.2-0.6,0.8-0.9,1.4-0.7c0.6,0.2,0.9,0.8,0.7,1.4c-0.1,0.2,0,0.4,0.2,0.4
			C476.5,492,476.5,492,476.5,492z"/>
		<path fill="#845D42" d="M469.2,490.2c0.2,0,0.3-0.1,0.3-0.2c0.1-0.5,0.1-1-0.1-1.4c-0.2-0.4-0.6-0.7-1.1-0.9
			c-0.5-0.1-1-0.1-1.4,0.1c-0.4,0.2-0.7,0.6-0.9,1.1c-0.1,0.2,0,0.4,0.2,0.4c0.2,0.1,0.4,0,0.4-0.2c0.2-0.6,0.8-0.9,1.4-0.7
			c0.3,0.1,0.5,0.3,0.7,0.5c0.1,0.3,0.2,0.6,0.1,0.8c-0.1,0.2,0,0.4,0.2,0.4C469.1,490.2,469.1,490.2,469.2,490.2z"/>
		
			<pattern  id="SVGID_15_" xlink:href="#New_Pattern_Swatch_53" patternTransform="matrix(-0.2559 0.298 0.298 0.2559 -8474.7188 -2341.9199)">
		</pattern>
		<path fill="url(#SVGID_15_)" d="M504.7,540c0.9,0,1.8-0.5,2.3-1.4c4-7.9,4-15.1,0.1-20.4c-4.4-6-13.1-8.7-22.7-7.1
			c-1.4,0.2-2.3,1.5-2.1,2.9c0.2,1.4,1.5,2.3,2.9,2.1c7.6-1.3,14.6,0.7,17.8,5.1c2.8,3.7,2.6,9-0.5,15.2c-0.6,1.2-0.1,2.8,1.1,3.4
			C503.9,539.9,504.3,540,504.7,540z"/>
		<g>
			<path fill="#FCB28D" d="M504.1,546.9L504.1,546.9c-1.3,0-2.4-1.1-2.4-2.4l0.1-6.2c0-1.4,1.3-2.5,2.7-2.3l0.7,0.1
				c1.3,0.2,2.2,1.4,2,2.7l-0.8,6.1C506.3,546.1,505.3,546.9,504.1,546.9z"/>
		</g>
		<path fill="#FCB28D" d="M439.5,573.3c1,0,2-0.6,2.5-1.6c5-9.7,11.2-15.5,18.5-17.3c10.6-2.6,20.1,4.2,20.2,4.2
			c1.3,0.9,3.1,0.6,4-0.7c0.9-1.3,0.6-3.1-0.7-4c-0.5-0.3-11.7-8.3-24.9-5.1c-9,2.2-16.5,9-22.3,20.2c-0.7,1.4-0.2,3.1,1.2,3.8
			C438.6,573.2,439,573.3,439.5,573.3z"/>
		<path fill="#FCB28D" d="M486.1,607.2c0.6,0,1.2-0.2,1.7-0.5c1.3-0.9,1.5-2.7,0.6-4c-6.4-8.8-8.8-17-7.1-24.3
			c2.5-10.6,12.8-16.1,12.9-16.2c1.4-0.7,1.9-2.4,1.2-3.8c-0.7-1.4-2.4-1.9-3.8-1.2c-0.5,0.3-12.7,6.8-15.8,19.9
			c-2.1,9,0.6,18.8,8.1,29C484.3,606.8,485.2,607.2,486.1,607.2z"/>
		<path fill="#1F1D38" d="M426.1,562.6L426.1,562.6c2.4-1.7,4.1,0.4,4.1,0.4s0.9,1.2,1.7,2c0.8,0.8,3.1,0.9,4.4,1.1
			c1.3,0.2,2.1,0.9,1.7,1.5c-0.4,0.6-0.8,2.4,0.3,4c1,1.6,3,1.6,3.3,1.6c0.3-0.1,0.3,0.1,0.3,0.1c0.6,0.8-0.5,1.6-0.5,1.6l-3.9,2.9
			l-0.2,0.2l-0.6,0.5c-0.2,0.1-0.5,0.1-0.6-0.1l-10.6-14.2C425,563.3,425.8,562.7,426.1,562.6z"/>
		<path fill="#1F1D38" d="M477.5,616.9L477.5,616.9c-1.6-2.5,0.6-4.1,0.6-4.1s1.2-0.8,2-1.6c0.8-0.7,1.1-3.1,1.3-4.4
			c0.2-1.3,0.9-2,1.6-1.6c0.6,0.4,2.4,0.9,4-0.1c1.7-1,1.8-3,1.7-3.2c-0.1-0.3,0.1-0.3,0.1-0.3c0.9-0.6,1.6,0.6,1.6,0.6l2.8,4
			l0.2,0.2l0.4,0.6c0.1,0.2,0.1,0.5-0.1,0.6l-14.6,10C478.2,618,477.6,617.1,477.5,616.9z"/>
		<g>
			<path fill="#00B469" d="M451.5,535.2c5,2.3,9.3,2.3,12.5,0.1c4.3-2.9,6.6-9.6,5.7-17.1c-0.2-1.6,1-3.1,2.6-3.3
				c1.6-0.2,3.1,1,3.3,2.6c0.8,6.2-0.2,11.9-2.6,16.4c-1.4,2.7-3.3,4.9-5.7,6.5c-3,2-9.2,4.5-18.3,0.3L451.5,535.2z"/>
		</g>
		<g>
			<path fill="#00B469" d="M484.2,510.7c9.8-1.6,18.7,1.2,23.2,7.3c2.1,2.8,4.8,8.7,1.4,17.7l-5.5-2.2c1.8-4.8,1.6-8.9-0.6-11.9
				c-3.1-4.2-9.9-6.2-17.4-4.9c-1.6,0.3-3.2-0.8-3.4-2.5C481.5,512.5,482.6,510.9,484.2,510.7z"/>
		</g>
		<g>
			<path fill="#00B469" d="M459.1,548.4c13.4-3.2,24.9,4.9,25.3,5.2c1.5,1.1,1.9,3.2,0.8,4.8c-1.1,1.5-3.2,1.9-4.8,0.8
				c-0.1-0.1-9.5-6.7-19.8-4.1c-6.3,1.5-11.8,6.2-16.3,13.8l-5.6-4C444.2,555.8,451.1,550.3,459.1,548.4z"/>
		</g>
		<path fill="#00B469" d="M491.2,556.7c1.7-0.9,3.7-0.2,4.6,1.4c0.9,1.7,0.2,3.7-1.4,4.6c-0.1,0.1-10.1,5.4-12.6,15.8
			c-1.4,6.2,0.1,13,4.6,20.3l-6.4,2.6c-5-8.5-6.7-16.7-4.9-24.4C478.3,563.5,490.7,556.9,491.2,556.7z"/>
		<path fill="#F6921E" d="M469.8,475c0.4-0.1,0.7-0.2,1.1-0.2c-0.4,1.5-0.3,3.3,0.2,5.1c0.5,1.8,1.5,3.4,2.6,4.4
			c-0.3,0.2-0.7,0.3-1,0.4c-2.7,0.8-5.6-0.8-6.3-3.5C465.5,478.7,467.1,475.8,469.8,475z"/>
		<path fill="#F6921E" d="M473.8,475.3c0.2,0,0.5,0,0.7,0.1c-0.5,0.9-0.8,2-0.8,3.3c0,1.3,0.3,2.4,0.8,3.3c-0.2,0.1-0.5,0.1-0.7,0.1
			c-1.9,0-3.4-1.5-3.4-3.4C470.4,476.8,471.9,475.3,473.8,475.3z"/>
		<path fill="#D98566" d="M469,502.7c1,0,1.8-0.3,1.8-0.3c0.2-0.1,0.3-0.3,0.3-0.5c-0.1-0.2-0.3-0.3-0.5-0.3c0,0-2.4,0.8-3.5-0.6
			c-0.1-0.2-0.4-0.2-0.6-0.1c-0.2,0.1-0.2,0.4-0.1,0.6C467.1,502.5,468.1,502.7,469,502.7z"/>
	</g>
	<g>
		
			<pattern  id="SVGID_16_" xlink:href="#New_Pattern_Swatch_53" patternTransform="matrix(0.1471 -0.2822 0.2822 0.1471 -5147.7666 -7995.2134)">
		</pattern>
		<path fill="url(#SVGID_16_)" d="M634.8,364.3c-4,0-8.4-1.5-12.5-4.3c-0.9-0.6-1.2-1.9-0.5-2.9c0.7-0.9,1.9-1.2,2.9-0.5
			c5.1,3.6,10.9,4.6,14.8,2.5c3.3-1.8,5-5.7,4.9-11.3c0-1.1,0.9-2.1,2-2.1c1.1,0,2.1,0.9,2.1,2c0.2,7.1-2.4,12.5-7.1,15
			C639.5,363.8,637.2,364.3,634.8,364.3z"/>
		<g>
			<path fill="#FCB28D" d="M649.3,340.7L649.3,340.7c-1-0.4-2.1,0-2.6,0.9l-2.1,4.6c-0.5,1,0.1,2.3,1.2,2.6l0.6,0.2
				c1,0.3,2.1-0.2,2.4-1.2l1.5-4.7C650.6,342.1,650.2,341.1,649.3,340.7z"/>
		</g>
		<g>
			<path fill="#00B469" d="M625.3,361.9c1.6-4-0.4-8.5-4.4-10.1c-4-1.6-8.5,0.4-10.1,4.4l-9.8,24.8l14.5,5.7L625.3,361.9z"/>
			<path fill="#00B469" d="M601.1,381l-1.5,3.8c-1.6,4,0.4,8.5,4.4,10.1c4,1.6,8.5-0.4,10.1-4.4l1.5-3.8L601.1,381z"/>
		</g>
		<path fill="#FCB28D" d="M651.4,386.5l4.4-9.9c0.3-0.6,0-1.3-0.6-1.6l0,0c-0.5-0.2-1.2-0.1-1.5,0.4l-6.9,9.6
			c-0.5,0.6-0.2,1.5,0.5,1.8l1.5,0.7C649.8,387.9,651,387.5,651.4,386.5z"/>
		<path fill="#534741" d="M623.3,331.3c1.5,0.3,2.8,1.1,3.7,2.4c0-0.5-0.1-1.1-0.4-1.6c-0.6-1.3-1.8-1.9-2.7-1.5
			C623.7,330.7,623.4,331,623.3,331.3z"/>
		
			<linearGradient id="SVGID_17_" gradientUnits="userSpaceOnUse" x1="62.0653" y1="-208.0615" x2="67.6164" y2="-202.5104" gradientTransform="matrix(0.8478 0.5304 -0.5304 0.8478 457.6558 489.7331)">
			<stop  offset="0" style="stop-color:#D8654E"/>
			<stop  offset="0.2392" style="stop-color:#DE7259"/>
			<stop  offset="0.6831" style="stop-color:#EF9575"/>
			<stop  offset="1" style="stop-color:#FCB28D"/>
		</linearGradient>
		<path fill="url(#SVGID_17_)" d="M624.4,348.3c0.4-0.8,0.1-1.9-0.7-2.3c-0.8-0.4-1.9-0.1-2.3,0.7l-2.7,5.1
			c-0.4,0.8-0.1,1.9,0.7,2.3c0.8,0.4,1.9,0.1,2.3-0.7L624.4,348.3z"/>
		<g>
			<path fill="#FCB28D" d="M627.1,351l1.3-0.7c3.2-1.6,4.5-5.6,2.9-8.8l-4-7.9c-1.4-2.7-4.7-3.8-7.5-2.4l-3.7,1.9
				c-2.7,1.4-3.8,4.7-2.4,7.5l3.7,7.3C619.2,351.4,623.5,352.8,627.1,351z"/>
		</g>
		<g>
			<path d="M627.6,338.1L627.6,338.1c0.2-0.1,0.3-0.4,0.2-0.6l-0.5-0.9c-0.1-0.2-0.4-0.3-0.6-0.2c-0.2,0.1-0.3,0.4-0.2,0.6l0.5,0.9
				C627.1,338.1,627.4,338.2,627.6,338.1z"/>
		</g>
		<g>
			<path d="M622.1,340.9L622.1,340.9c0.2-0.1,0.3-0.4,0.2-0.6l-0.5-0.9c-0.1-0.2-0.4-0.3-0.6-0.2c-0.2,0.1-0.3,0.4-0.2,0.6l0.5,0.9
				C621.6,340.9,621.9,341,622.1,340.9z"/>
		</g>
		<g>
			
				<linearGradient id="SVGID_18_" gradientUnits="userSpaceOnUse" x1="-1184.8811" y1="126.9637" x2="-1184.3765" y2="118.744" gradientTransform="matrix(-0.946 0.3241 0.3241 0.946 -534.5331 606.8599)">
				<stop  offset="0" style="stop-color:#D8654E"/>
				<stop  offset="0.167" style="stop-color:#DB6C54"/>
				<stop  offset="0.4123" style="stop-color:#E58064"/>
				<stop  offset="0.7046" style="stop-color:#F4A07E"/>
				<stop  offset="0.8444" style="stop-color:#FCB28D"/>
			</linearGradient>
			<path fill="url(#SVGID_18_)" d="M627.5,342.6C627.5,342.6,627.5,342.6,627.5,342.6c1-0.8,0.7-2,0.4-2.5c-0.1-0.1-0.2-0.2-0.3-0.1
				l-1.4,0.5l-0.4-0.4c0,0-1.5-1.6-1.9-4.2c0-0.1-0.1-0.2-0.3-0.2c-0.1,0-0.2,0.1-0.2,0.3c0.4,2.8,2,4.4,2,4.5l0.6,0.5
				c0.1,0.1,0.2,0.1,0.3,0.1l1.3-0.4c0.1,0.3,0.3,1.1-0.3,1.6c-0.1,0.1-0.1,0.2-0.1,0.4C627.2,342.6,627.4,342.7,627.5,342.6z"/>
		</g>
		<path fill="#534741" d="M611.4,336.1c0.3-0.5,0.7-0.7,1-0.8l-0.1-0.1c-0.7-1.4-0.2-3.1,1.2-3.8l5.8-2.9l2.1-1.1
			c1.4-0.7,3.1-0.2,3.8,1.2l0.1,0.1c0.2,0.4,0.3,0.9,0.3,1.3c0,1-0.6,2-1.5,2.5l-0.5,0.2l-7.1,3.6c-0.8,0.4-1.1,1.4-0.7,2.2l2.3,4.5
			c0.5,0.9,0.2,2.1-0.7,2.6c-1,0.6-2.2,0.2-2.7-0.8l-3.4-6.7C611,337.5,611,336.7,611.4,336.1z"/>
		<g>
			<circle fill="#FCB28D" cx="615.7" cy="346.3" r="1.9"/>
			
				<linearGradient id="SVGID_19_" gradientUnits="userSpaceOnUse" x1="-1180.0166" y1="419.9847" x2="-1182.4198" y2="420.5615" gradientTransform="matrix(-0.8913 0.4534 0.4534 0.8913 -627.5156 507.274)">
				<stop  offset="0" style="stop-color:#D8654E"/>
				<stop  offset="0.1833" style="stop-color:#E0765C"/>
				<stop  offset="0.5438" style="stop-color:#F4A17F"/>
				<stop  offset="0.6696" style="stop-color:#FCB28D"/>
			</linearGradient>
			<circle fill="url(#SVGID_19_)" cx="615.7" cy="346.3" r="1"/>
		</g>
		<path fill="#845D42" d="M619.9,339.4c-0.1,0-0.2,0-0.2-0.1c-0.2-0.3-0.3-0.7-0.2-1.1c0.1-0.4,0.3-0.7,0.7-0.9
			c0.3-0.2,0.7-0.3,1.1-0.2c0.4,0.1,0.7,0.3,0.9,0.7c0.1,0.1,0,0.3-0.1,0.4c-0.1,0.1-0.3,0-0.4-0.1c-0.1-0.2-0.3-0.3-0.6-0.4
			c-0.2-0.1-0.5,0-0.7,0.1c-0.4,0.3-0.6,0.8-0.3,1.2c0.1,0.1,0,0.3-0.1,0.4C620,339.4,619.9,339.4,619.9,339.4z"/>
		<path fill="#845D42" d="M625.3,336.6c-0.1,0-0.2,0-0.2-0.1c-0.2-0.3-0.3-0.7-0.2-1.1c0.1-0.4,0.3-0.7,0.7-0.9
			c0.3-0.2,0.7-0.3,1.1-0.2c0.4,0.1,0.7,0.3,0.9,0.7c0.1,0.1,0,0.3-0.1,0.4c-0.1,0.1-0.3,0-0.4-0.1c-0.1-0.2-0.3-0.4-0.6-0.4
			c-0.2-0.1-0.5,0-0.7,0.1c-0.4,0.3-0.6,0.8-0.3,1.2c0.1,0.1,0,0.3-0.1,0.4C625.5,336.6,625.4,336.6,625.3,336.6z"/>
		
			<pattern  id="SVGID_20_" xlink:href="#New_Pattern_Swatch_53" patternTransform="matrix(0.2073 0.2414 -0.2414 0.2073 -8160.3599 -3167.2036)">
		</pattern>
		<path fill="url(#SVGID_20_)" d="M591.8,368.9c-1.1,0-2-0.8-2-1.9c-0.6-7.1,1.7-12.6,6.2-15.4c5.1-3.1,12.5-2.5,19.2,1.7
			c1,0.6,1.3,1.9,0.7,2.8c-0.6,1-1.9,1.3-2.8,0.7c-5.3-3.3-11.2-3.9-14.9-1.6c-3.2,2-4.7,5.9-4.3,11.5c0.1,1.1-0.8,2.1-1.9,2.2
			C591.9,368.9,591.9,368.9,591.8,368.9z"/>
		<g>
			<path fill="#FCB28D" d="M589.4,374L589.4,374c1,0.4,2.1-0.1,2.5-1.1l1.9-4.7c0.4-1.1-0.2-2.3-1.3-2.5l-0.6-0.2
				c-1-0.3-2.1,0.3-2.3,1.4l-1.3,4.8C588,372.7,588.5,373.7,589.4,374z"/>
		</g>
		<path fill="#FCB28D" d="M611.3,392.1c-0.4,0-0.7-0.1-1.1-0.3c-1.1-0.6-1.6-2-1-3.1c0.2-0.4,5.4-10.3,16-12.9
			c7.3-1.8,15.2,0.4,23.5,6.4c1,0.7,1.3,2.2,0.5,3.2c-0.7,1-2.2,1.3-3.2,0.5c-7.2-5.1-13.8-7-19.7-5.6c-8.6,2-13,10.4-13.1,10.5
			C612.9,391.6,612.1,392.1,611.3,392.1z"/>
		<path fill="#FCB28D" d="M587,424.8c-0.9,0-1.8-0.6-2.2-1.5c-0.5-1.2,0.1-2.5,1.3-3c8.2-3.2,13.5-7.7,15.5-13.4
			c3-8.3-1.6-16.6-1.6-16.6c-0.6-1.1-0.2-2.5,0.9-3.1c1.1-0.6,2.5-0.2,3.1,0.9c0.2,0.4,5.7,10.2,2,20.5c-2.5,7.1-8.7,12.5-18.2,16.2
			C587.6,424.8,587.3,424.8,587,424.8z"/>
		<path fill="#1F1D38" d="M655.9,374.5L655.9,374.5c-2.2-0.9-3.1,1.1-3.1,1.1s-0.5,1.1-1,1.8c-0.5,0.7-2.3,1.3-3.3,1.7
			c-1,0.4-1.5,1-1.1,1.5s1,1.8,0.5,3.2c-0.5,1.5-2.1,1.8-2.3,1.8c-0.2,0-0.2,0.1-0.2,0.1c-0.3,0.8,0.7,1.2,0.7,1.2l3.6,1.6l0.2,0.1
			l0.6,0.3c0.2,0.1,0.4,0,0.5-0.2l5.9-13.1C656.9,374.9,656.1,374.6,655.9,374.5z"/>
		<path fill="#1F1D38" d="M592.5,433.9L592.5,433.9c1.6-1.7,0.2-3.3,0.2-3.3s-0.8-0.9-1.4-1.6c-0.5-0.7-0.4-2.6-0.3-3.7
			c0-1.1-0.4-1.8-1-1.6c-0.6,0.2-2,0.3-3.2-0.7c-1.2-1-0.9-2.6-0.8-2.8c0.1-0.2,0-0.3,0-0.3c-0.6-0.6-1.4,0.2-1.4,0.2l-2.8,2.8
			l-0.2,0.2l-0.5,0.4c-0.1,0.1-0.1,0.4,0,0.5l10,10.3C591.7,434.7,592.3,434.1,592.5,433.9z"/>
		<g>
			<path fill="#00B469" d="M644,349.8c-0.3,4.4-1.9,7.5-4.7,9c-3.7,2-9.4,1-14.4-2.5c-1.1-0.8-2.6-0.5-3.4,0.6
				c-0.8,1.1-0.5,2.6,0.6,3.4c4.1,2.9,8.6,4.4,12.7,4.4c2.4,0,4.8-0.5,6.8-1.6c2.6-1.4,6.7-4.8,7.2-13L644,349.8z"/>
		</g>
		<g>
			<path fill="#00B469" d="M615.4,353c-6.8-4.2-14.3-4.9-19.6-1.7c-2.4,1.5-6.3,5.1-6.5,12.9l4.8,0c0.1-4.2,1.5-7.2,4.1-8.8
				c3.6-2.2,9.3-1.6,14.5,1.6c1.1,0.7,2.6,0.4,3.3-0.8C616.9,355.2,616.5,353.7,615.4,353z"/>
		</g>
		<g>
			<path fill="#00B469" d="M625.2,375.4c-10.8,2.6-16.1,12.7-16.3,13.1c-0.7,1.4-0.2,3,1.2,3.7c1.4,0.7,3,0.2,3.7-1.2
				c0-0.1,4.4-8.3,12.8-10.3c5.1-1.2,10.8,0.1,16.9,3.9l2.5-5C638.6,375.3,631.7,373.8,625.2,375.4z"/>
		</g>
		<path fill="#00B469" d="M604.5,387.8c-0.8-1.3-2.4-1.8-3.8-1c-1.3,0.8-1.8,2.4-1,3.8c0,0.1,4.5,8.1,1.6,16.3
			c-1.7,4.8-5.8,8.8-12.1,11.8l3.2,4.6c7.2-3.6,11.9-8.5,14.1-14.5C610.3,398.1,604.7,388.2,604.5,387.8z"/>
		<ellipse fill="#E66F57" cx="627.9" cy="345.8" rx="0.9" ry="1.5"/>
		<path fill="#534741" d="M617.7,341L617.7,341c-0.4,0.2-0.9,0-1.1-0.4l-1.5-2.9c-0.2-0.4,0-0.9,0.4-1.1l0,0c0.4-0.2,0.9,0,1.1,0.4
			l1.5,2.9C618.2,340.3,618.1,340.8,617.7,341z"/>
		<path fill="#534741" d="M618,338.5L618,338.5c-0.4,0.2-0.9,0-1.1-0.4l-1.5-2.9c-0.2-0.4,0-0.9,0.4-1.1l0,0c0.4-0.2,0.9,0,1.1,0.4
			l1.5,2.9C618.5,337.8,618.4,338.3,618,338.5z"/>
		<path fill="#534741" d="M613.8,343.6L613.8,343.6c-0.4,0.2-0.9,0-1.1-0.4l-1.5-2.9c-0.2-0.4,0-0.9,0.4-1.1h0
			c0.4-0.2,0.9,0,1.1,0.4l1.5,2.9C614.4,342.9,614.2,343.4,613.8,343.6z"/>
	</g>
</g>
<g id="Флаг_битроникс">
	<g>
		
			<line fill="none" stroke="#1A3954" stroke-width="1.6596" stroke-linecap="round" stroke-linejoin="round" stroke-miterlimit="10" x1="1273.3" y1="759.1" x2="1273.3" y2="633.6"/>
		<polygon fill="#2B286D" points="1469,679.8 1270.4,679.8 1270.4,635.8 1469,635.8 1449.9,657.8 		"/>
	</g>
	<g>
		<g>
			<path fill="#FFFFFF" d="M1419.2,651l-6.4,16.2h2.7l2.1-5.5h5.5l2,5.5h2.7l-6.2-16.2H1419.2z M1418.3,659.7l2-5.4l1.9,5.4H1418.3z
				"/>
			<g>
				<g>
					<path fill="#FFFFFF" d="M1334.9,651v5.4c-0.6,0-0.8,0-1.1,0c-1.5,0-2.4,1.3-2.3,3.3v7.6h-5.3v-8.7c0-2.3,0.6-4.1,1.9-5.5
						c1.3-1.4,2.9-2.1,5-2.1C1333.5,651,1333.1,651,1334.9,651z"/>
				</g>
			</g>
			<g>
				<g>
					<path fill="#FFFFFF" d="M1344.1,650.9c2.3,0,4.2,0.8,5.8,2.4c1.6,1.6,2.4,3.5,2.4,5.7c0,2.3-0.8,4.2-2.5,5.8
						c-1.6,1.6-3.6,2.4-5.9,2.4c-2.3,0-4.3-0.8-5.9-2.4c-1.6-1.6-2.5-3.5-2.5-5.8c0-2.3,0.8-4.2,2.5-5.8
						C1339.7,651.7,1341.7,650.9,1344.1,650.9z M1344,656c-0.8,0-1.5,0.3-2.1,0.9c-0.6,0.6-0.9,1.3-0.9,2.2c0,0.8,0.3,1.6,0.9,2.2
						c0.6,0.6,1.3,0.9,2.1,0.9c0.8,0,1.5-0.3,2.1-0.9c0.6-0.6,0.9-1.3,0.9-2.2c0-0.8-0.3-1.6-0.9-2.2
						C1345.5,656.3,1344.8,656,1344,656z"/>
				</g>
			</g>
			<g>
				<g>
					<path fill="#FFFFFF" d="M1367.8,667.2h-5.4l0-8.8c0-0.9-0.6-2.1-1.8-2.1c-1.4,0-2,1.2-2,2.1l0,8.8h-5.4v-8.8
						c0-2.1,0.7-3.8,2.1-5.2c1.4-1.4,3.1-2.1,5.2-2.1c2.3,0,4.2,0.8,5.6,2.5c1.1,1.3,1.6,3.1,1.6,5.4V667.2z"/>
				</g>
			</g>
			<g>
				<rect x="1369.4" y="651.7" fill="#FFFFFF" width="5.4" height="15.5"/>
			</g>
			<path fill="#FFFFFF" d="M1407.3,664.9h-2h-0.3c-0.5,0-0.9-0.2-1.2-0.5c-0.3-0.3-0.5-0.7-0.5-1.2v-0.4V661v-10h-2.5v13.1
				c0,0.9,0.3,1.7,0.9,2.3c0.6,0.6,1.4,0.9,2.4,0.9h7.4v-2.3H1407.3z"/>
			<path fill="#FFFFFF" d="M1439.4,658.3c0.7-0.8,1.1-1.8,1.1-2.9c0-2.4-2-4.4-4.4-4.4c0,0,0,0-0.1,0l0,0h-6.8v16.2h6.8
				c0,0,0.2,0,0.3,0c2.8,0,5-2.3,5-5C1441.3,660.6,1440.6,659.2,1439.4,658.3z M1431.8,653.3h4.1c0,0,0.1,0,0.1,0
				c1.1,0,2.1,0.9,2.1,2.1c0,1.1-0.9,2.1-2.1,2.1c-0.1,0-0.1,0-0.2,0h-4.1V653.3z M1436.3,664.9
				C1436.3,664.9,1436.2,664.9,1436.3,664.9h-4.5v-5.4h4.4c0,0,0,0,0,0c1.5,0,2.7,1.2,2.7,2.7C1439,663.7,1437.8,664.9,1436.3,664.9
				z"/>
			<g>
				<path fill="#FFFFFF" d="M1385.7,656.3V651h-1.3c-2.3,0-4.2,0.8-5.8,2.3c-1.6,1.6-2.4,3.5-2.4,5.7c0,2.4,0.8,4.3,2.4,6
					c1.4,1.4,2.8,2,4.7,2.1c0.3,0,0.6,0,0.9,0c0.4,0,1.1,0,1.6,0v-0.1v-5.2v-0.2l-1,0c-0.1,0-0.2,0-0.2,0c0,0-0.1,0-0.1,0
					c-0.3,0-0.7-0.1-0.9-0.2c-1.1-0.4-1.8-1.4-1.8-2.6c0-1.5,1.2-2.7,2.8-2.7c0.1,0,0.3,0,0.4,0c0.1,0,0.2,0,0.2,0
					C1385.7,656.3,1384.9,656.3,1385.7,656.3z"/>
			</g>
			<g>
				<path fill="#FFFFFF" d="M1397,651c-2.1,0-3.5,1-4.7,2.1c-0.7,0.6-1.1,1.6-1.3,2.2c-0.2,0.7-0.4,1.8-0.5,3.4
					c-0.1,1-0.4,2-0.8,2.4c-0.3,0.3-0.9,0.5-1.7,0.6h-0.2h-0.7v5.4l0.9,0l1.2,0l0,0h0.5c1.1,0,1.8-0.1,2.6-0.6
					c2.1-1.3,3.3-2.9,3.6-6c0.1-0.9,0.2-2.2,0.4-2.6c0.6-1.3,1.6-1.7,2.4-1.7V651H1397z"/>
			</g>
			<g>
				<polygon fill="#FFFFFF" points="1316.8,645.6 1314.3,645.6 1311.3,645.6 1311.3,651 1314.6,651 1316.8,651 1316.8,667.2 
					1322.2,667.2 1322.2,651 1327.6,651 1327.6,645.6 				"/>
			</g>
			<g>
				<rect x="1304.8" y="651.7" fill="#FFFFFF" width="5.4" height="15.5"/>
			</g>
			<g>
				<g>
					<path fill="#FFFFFF" d="M1302.5,657.8c-0.6-0.9-1.6-1.4-2.8-1.7c1-0.4,1.7-1,2.2-1.8c0.5-0.8,0.7-1.7,0.7-2.7
						c0-2-0.7-3.4-2.2-4.4c-1.5-1-3.6-1.5-6.2-1.5h-7v21.5h8.2c2.6,0,4.6-0.5,6-1.6c1.4-1.1,2.1-2.7,2.1-4.8
						C1303.4,659.7,1303.1,658.7,1302.5,657.8z M1297.2,662.7c-0.5,0.4-1.3,0.6-2.4,0.6h-2.3V658h2.4h0.2c1.1,0,1.8,0.3,2.3,0.8
						c0.5,0.5,0.7,1.2,0.7,2.1C1298,661.7,1297.7,662.3,1297.2,662.7z M1296.3,654c-0.6,0.4-1.5,0.6-2.7,0.6h-1.1v-5.1h1.2
						c1.2,0,2.1,0.2,2.6,0.6c0.6,0.4,0.9,1.1,0.9,2C1297.2,653,1296.9,653.6,1296.3,654z"/>
				</g>
			</g>
			<g>
				<circle fill="#FFFFFF" cx="1372.1" cy="647.8" r="2.7"/>
			</g>
			<g>
				<circle fill="#FFFFFF" cx="1307.5" cy="647.8" r="2.7"/>
			</g>
		</g>
	</g>
</g>
<path fill="#FA4614" d="M1074,914.7H735c-6.6,0-12-5.4-12-12v-41c0-6.6,5.4-12,12-12h339c6.6,0,12,5.4,12,12v41
	C1086,909.3,1080.6,914.7,1074,914.7z"/>
<g>
	<g>
		<text transform="matrix(1 0 0 1 752.3691 890.6192)"><tspan x="0" y="0" fill="#FFFFFF" font-family="'FuturaPT-Heavy'" font-size="24">О</tspan><tspan x="17.6" y="0" fill="#FFFFFF" font-family="'FuturaPT-Heavy'" font-size="24">СНОВНОЕ ОБ</tspan><tspan x="170.7" y="0" fill="#FFFFFF" font-family="'FuturaPT-Heavy'" font-size="24" letter-spacing="-3">Р</tspan><tspan x="181" y="0" fill="#FFFFFF" font-family="'FuturaPT-Heavy'" font-size="24">А</tspan><tspan x="197.8" y="0" fill="#FFFFFF" font-family="'FuturaPT-Heavy'" font-size="24">ЗО</tspan><tspan x="227.1" y="0" fill="#FFFFFF" font-family="'FuturaPT-Heavy'" font-size="24" letter-spacing="-1">В</tspan><tspan x="241.6" y="0" fill="#FFFFFF" font-family="'FuturaPT-Heavy'" font-size="24">АНИЕ</tspan></text>
	</g>
</g>
</svg>
