<?xml version="1.0" encoding="utf-8"?>
<!-- Generator: Adobe Illustrator 17.1.0, SVG Export Plug-In . SVG Version: 6.00 Build 0)  -->
<!DOCTYPE svg PUBLIC "-//W3C//DTD SVG 1.1//EN" "http://www.w3.org/Graphics/SVG/1.1/DTD/svg11.dtd">
<svg version="1.1" id="Layer_1" xmlns="http://www.w3.org/2000/svg" xmlns:xlink="http://www.w3.org/1999/xlink" x="0px" y="0px"
	 width="1920px" height="1080px" viewBox="0 0 1920 1080" enable-background="new 0 0 1920 1080" xml:space="preserve">
<g>
	<g>
		<defs>
			<path id="SVGID_1_" d="M1194.5,695.3H727c-3.3,0-6-2.7-6-6v-288c0-3.3,2.7-6,6-6h467.5c3.3,0,6,2.7,6,6v288
				C1200.5,692.6,1197.8,695.3,1194.5,695.3z"/>
		</defs>
		<clipPath id="SVGID_2_">
			<use xlink:href="#SVGID_1_"  overflow="visible"/>
		</clipPath>
		<g clip-path="url(#SVGID_2_)">
			
				<image overflow="visible" width="1800" height="1200" xlink:href="36C95E1E.jpg"  transform="matrix(0.3462 0 0 0.3466 695.0656 337.9422)">
			</image>
		</g>
	</g>
	<g>
		<defs>
			<path id="SVGID_3_" d="M685.1,695.3H217.6c-3.3,0-6-2.7-6-6v-288c0-3.3,2.7-6,6-6h467.5c3.3,0,6,2.7,6,6v288
				C691.1,692.6,688.4,695.3,685.1,695.3z"/>
		</defs>
		<clipPath id="SVGID_4_">
			<use xlink:href="#SVGID_3_"  overflow="visible"/>
		</clipPath>
		<g clip-path="url(#SVGID_4_)">
			
				<image overflow="visible" width="3479" height="2174" xlink:href="36C95E22.jpg"  transform="matrix(0.1932 0 0 0.1934 197.6352 383.2993)">
			</image>
		</g>
	</g>
	<g>
		<defs>
			<path id="SVGID_5_" d="M1914,695.3h-169.9c-3.3,0-6-2.7-6-6v-288c0-3.3,2.7-6,6-6H1914c3.3,0,6,2.7,6,6v288
				C1920,692.6,1917.3,695.3,1914,695.3z"/>
		</defs>
		<clipPath id="SVGID_6_">
			<use xlink:href="#SVGID_5_"  overflow="visible"/>
		</clipPath>
		<g clip-path="url(#SVGID_6_)">
			
				<image overflow="visible" width="3479" height="2174" xlink:href="36C95E25.jpg"  transform="matrix(0.1932 0 0 0.1934 1724.094 383.2993)">
			</image>
		</g>
	</g>
	<g>
		<defs>
			<path id="SVGID_7_" d="M1702.3,695.3h-467.5c-3.3,0-6-2.7-6-6v-288c0-3.3,2.7-6,6-6h467.5c3.3,0,6,2.7,6,6v288
				C1708.3,692.6,1705.7,695.3,1702.3,695.3z"/>
		</defs>
		<clipPath id="SVGID_8_">
			<use xlink:href="#SVGID_7_"  overflow="visible"/>
		</clipPath>
		<g transform="matrix(1 0 0 1 0 0)" clip-path="url(#SVGID_8_)">
			
				<image overflow="visible" width="1800" height="1200" xlink:href="36C95E26.jpg"  transform="matrix(0.3575 0 0 0.3579 1205.5309 314.8423)">
			</image>
		</g>
	</g>
	<g>
		<defs>
			<path id="SVGID_9_" d="M173.9,695.3H7.9c-3.3,0-6-2.7-6-6v-288c0-3.3,2.7-6,6-6h165.9c3.3,0,6,2.7,6,6v288
				C179.9,692.6,177.2,695.3,173.9,695.3z"/>
		</defs>
		<clipPath id="SVGID_10_">
			<use xlink:href="#SVGID_9_"  overflow="visible"/>
		</clipPath>
		<g transform="matrix(1 0 0 1 0 0)" clip-path="url(#SVGID_10_)">
			
				<image overflow="visible" width="1800" height="1200" xlink:href="36C95E24.jpg"  transform="matrix(0.3575 0 0 0.3579 -322.9259 314.8423)">
			</image>
		</g>
	</g>
	<path opacity="0.5" fill="#FFFFFF" d="M685.1,695.3H217.6c-3.3,0-6-2.7-6-6v-288c0-3.3,2.7-6,6-6h467.5c3.3,0,6,2.7,6,6v288
		C691.1,692.6,688.4,695.3,685.1,695.3z"/>
	<path opacity="0.9" fill="#2B286D" d="M1195.7,695.8H728.2c-3.3,0-6-2.7-6-6v-288c0-3.3,2.7-6,6-6h467.5c3.3,0,6,2.7,6,6v288
		C1201.7,693.1,1199,695.8,1195.7,695.8z"/>
	<path opacity="0.9" fill="#2B286D" d="M1702.2,695.8h-467.5c-3.3,0-6-2.7-6-6v-288c0-3.3,2.7-6,6-6h467.5c3.3,0,6,2.7,6,6v288
		C1708.2,693.1,1705.5,695.8,1702.2,695.8z"/>
	<path opacity="0.9" fill="#2B286D" d="M1914,695.8h-169.8c-3.3,0-6-2.7-6-6v-288c0-3.3,2.7-6,6-6H1914c3.3,0,6,2.7,6,6v288
		C1920,693.1,1917.3,695.8,1914,695.8z"/>
	<path opacity="0.9" fill="#2B286D" d="M175.8,695.3H6c-3.3,0-6-2.7-6-6v-288c0-3.3,2.7-6,6-6h169.8c3.3,0,6,2.7,6,6v288
		C181.8,692.6,179.1,695.3,175.8,695.3z"/>
</g>
</svg>
