<?xml version="1.0" encoding="utf-8"?>
<!-- Generator: Adobe Illustrator 17.1.0, SVG Export Plug-In . SVG Version: 6.00 Build 0)  -->
<!DOCTYPE svg PUBLIC "-//W3C//DTD SVG 1.1//EN" "http://www.w3.org/Graphics/SVG/1.1/DTD/svg11.dtd">
<svg version="1.1" id="Layer_1" xmlns="http://www.w3.org/2000/svg" xmlns:xlink="http://www.w3.org/1999/xlink" x="0px" y="0px"
	 width="1920px" height="1080px" viewBox="0 0 1920 1080" enable-background="new 0 0 1920 1080" xml:space="preserve">
<g>
	
		<image overflow="visible" width="562" height="342" xlink:href="70E17A2A.jpg"  transform="matrix(0.3737 0 0 0.3737 1398.5 381.2672)">
	</image>
	
		<image overflow="visible" width="1067" height="713" xlink:href="70E17A2E.jpg"  transform="matrix(0.1968 0 0 0.1968 1628.5 375)">
	</image>
	
		<image overflow="visible" width="2219" height="1686" xlink:href="70E17A2E.png"  transform="matrix(9.463722e-002 0 0 9.463722e-002 938.5 365.3848)">
	</image>
	
		<image overflow="visible" width="1240" height="591" xlink:href="70E17A2B.jpg"  transform="matrix(0.1694 0 0 0.1694 1168.5 395.1197)">
	</image>
	
		<image overflow="visible" width="355" height="85" xlink:href="70E17A29.jpg"  transform="matrix(0.5915 0 0 0.5915 708.5 420.0232)">
	</image>
	
		<image overflow="visible" width="1280" height="960" xlink:href="70E17A36.png"  transform="matrix(0.1641 0 0 0.1641 478.5 366.414)">
	</image>
	
		<image overflow="visible" width="234" height="87" xlink:href="70E17A39.png"  transform="matrix(0.8974 0 0 0.8974 1166.5 617.9116)">
	</image>
	
		<image overflow="visible" width="506" height="307" xlink:href="70E17A3A.jpg"  transform="matrix(0.415 0 0 0.415 480.5 593.2444)">
	</image>
	
		<image overflow="visible" width="299" height="142" xlink:href="70E17A3A.png"  transform="matrix(0.6901 0 0 0.6901 710.5 607.95)">
	</image>
	<image overflow="visible" width="252" height="51" xlink:href="5096A86D.png"  transform="matrix(0.8333 0 0 0.8333 936.5 635.7)">
	</image>
	
		<image overflow="visible" width="551" height="164" xlink:href="5096A863.jpg"  transform="matrix(0.3811 0 0 0.3811 1396.5 625.6978)">
	</image>
	<image overflow="visible" width="300" height="197" xlink:href="5096A865.jpg"  transform="matrix(0.7 0 0 0.7 1626.5 588)">
	</image>
</g>
</svg>
