<?xml version="1.0" encoding="utf-8"?>
<!-- Generator: Adobe Illustrator 17.1.0, SVG Export Plug-In . SVG Version: 6.00 Build 0)  -->
<!DOCTYPE svg PUBLIC "-//W3C//DTD SVG 1.1//EN" "http://www.w3.org/Graphics/SVG/1.1/DTD/svg11.dtd">
<svg version="1.1" id="Layer_1" xmlns="http://www.w3.org/2000/svg" xmlns:xlink="http://www.w3.org/1999/xlink" x="0px" y="0px"
	 width="612px" height="792px" viewBox="0 0 612 792" enable-background="new 0 0 612 792" xml:space="preserve">
<g>
	<g id="Mail">
		<path id="XMLID_132_" fill="#5A5CA0" d="M359.9,415h-6.1c-8.5,0-15.5-6.9-15.5-15.5v-6.1c0-8.5,6.9-15.5,15.5-15.5h6.1
			c8.5,0,15.5,6.9,15.5,15.5v6.1C375.3,408.1,368.4,415,359.9,415z"/>
		<g id="XMLID_125_">
			<path id="XMLID_126_" fill="#FFFFFF" d="M367.5,401.9c0,0.5-0.1,0.9-0.3,1.3l-6.8-7.6l6.7-5.9c0.3,0.4,0.4,0.9,0.4,1.4V401.9z
				 M356.8,397l9.3-8.2c-0.4-0.2-0.8-0.3-1.3-0.3h-16.1c-0.5,0-0.9,0.1-1.3,0.3L356.8,397z M359.4,396.5l-2.2,1.9
				c-0.1,0.1-0.3,0.2-0.4,0.2c-0.2,0-0.3-0.1-0.4-0.2l-2.2-1.9l-6.9,7.7c0.4,0.3,0.9,0.4,1.4,0.4h16.1c0.5,0,1-0.2,1.4-0.4
				L359.4,396.5z M346.5,389.7c-0.3,0.4-0.4,0.9-0.4,1.4v10.7c0,0.5,0.1,0.9,0.3,1.3l6.8-7.6L346.5,389.7z M346.5,389.7"/>
		</g>
	</g>
	<g id="VK_logo">
		<path id="XMLID_1_" fill="#5A5CA0" d="M257.2,415h-6.1c-8.5,0-15.5-6.9-15.5-15.5v-6.1c0-8.5,6.9-15.5,15.5-15.5h6.1
			c8.5,0,15.5,6.9,15.5,15.5v6.1C272.7,408.1,265.8,415,257.2,415z"/>
		<path fill="#FFFFFF" d="M253.6,404.1h1.4c0,0,0.4,0,0.6-0.3c0.2-0.2,0.2-0.6,0.2-0.6s0-1.9,0.8-2.1c0.8-0.3,1.9,1.8,3.1,2.6
			c0.9,0.6,1.5,0.5,1.5,0.5l3.1,0c0,0,1.6-0.1,0.8-1.4c-0.1-0.1-0.4-0.9-2.3-2.7c-1.9-1.8-1.7-1.5,0.7-4.6c1.4-1.9,2-3,1.8-3.5
			c-0.2-0.5-1.2-0.3-1.2-0.3l-3.5,0c0,0-0.3,0-0.5,0.1c-0.2,0.1-0.3,0.4-0.3,0.4s-0.6,1.5-1.3,2.7c-1.6,2.6-2.2,2.8-2.4,2.6
			c-0.6-0.4-0.4-1.5-0.4-2.3c0-2.5,0.4-3.6-0.8-3.9c-0.4-0.1-0.7-0.1-1.6-0.2c-1.2,0-2.3,0-2.9,0.3c-0.4,0.2-0.7,0.6-0.5,0.6
			c0.2,0,0.8,0.1,1,0.5c0.4,0.5,0.3,1.6,0.3,1.6s0.2,3-0.5,3.4c-0.5,0.3-1.1-0.3-2.5-2.6c-0.7-1.2-1.2-2.6-1.2-2.6s-0.1-0.3-0.3-0.4
			c-0.2-0.2-0.5-0.2-0.5-0.2l-3.3,0c0,0-0.5,0-0.7,0.2c-0.2,0.2,0,0.6,0,0.6s2.6,6,5.5,9.1C250.5,404.3,253.6,404.1,253.6,404.1"/>
	</g>
	<g id="FB_logo">
		<path id="XMLID_2_" fill="#5A5CA0" d="M308.5,415h-6.1c-8.5,0-15.5-6.9-15.5-15.5v-6.1c0-8.5,6.9-15.5,15.5-15.5h6.1
			c8.5,0,15.5,6.9,15.5,15.5v6.1C324,408.1,317.1,415,308.5,415z"/>
		<g>
			<path fill="#FFFFFF" d="M311.9,386.8h-12.7c-1.8,0-3.3,1.5-3.3,3.3v12.7c0,1.8,1.5,3.3,3.3,3.3h7v-7.3h-2.5V396h2.5v-2.1
				c0-2.5,1.5-3.8,3.7-3.8c1.1,0,2,0.1,2.2,0.1v2.6h-1.5c-1.2,0-1.4,0.6-1.4,1.4v1.8h2.8l-0.4,2.9h-2.5v7.3h2.8
				c1.8,0,3.3-1.5,3.3-3.3v-12.7C315.2,388.3,313.7,386.8,311.9,386.8z"/>
			<rect x="306.1" y="406.2" fill="#FFFFFF" width="3" height="0"/>
		</g>
	</g>
</g>
</svg>
